<?xml version="1.0" encoding="utf-8"?>
<!-- Generator: Adobe Illustrator 27.0.0, SVG Export Plug-In . SVG Version: 6.00 Build 0)  -->
<svg version="1.1" id="Layer_1" xmlns="http://www.w3.org/2000/svg" xmlns:xlink="http://www.w3.org/1999/xlink" x="0px" y="0px"
	 viewBox="0 0 38 38" enable-background="new 0 0 38 38" xml:space="preserve">
<g>
	<g>
		<path fill-rule="evenodd" clip-rule="evenodd" fill="#02559F" d="M19,37.44L19,37.44C8.82,37.44,0.56,29.18,0.56,19v0
			C0.56,8.82,8.82,0.56,19,0.56h0c10.18,0,18.44,8.25,18.44,18.44v0C37.44,29.18,29.18,37.44,19,37.44z"/>
	</g>
	<path fill="#FFFFFF" d="M24.83,10.63h-1.96c-1.93,0-2.53,1.2-2.53,2.43v2.91h4.31l-0.69,4.49h-3.62v10.85
		c-0.79,0.12-1.6,0.19-2.43,0.19c-0.83,0-1.64-0.06-2.43-0.19V20.46h-3.94v-4.49h3.94v-3.42c0-3.89,2.32-6.04,5.87-6.04
		c1.7,0,3.48,0.3,3.48,0.3V10.63z"/>
</g>
<g>
</g>
<g>
</g>
<g>
</g>
<g>
</g>
<g>
</g>
<g>
</g>
</svg>
