<?xml version="1.0" encoding="utf-8"?>
<!-- Generator: Adobe Illustrator 27.0.0, SVG Export Plug-In . SVG Version: 6.00 Build 0)  -->
<svg version="1.1" id="Layer_1" xmlns="http://www.w3.org/2000/svg" xmlns:xlink="http://www.w3.org/1999/xlink" x="0px" y="0px"
	 viewBox="0 0 107 53" enable-background="new 0 0 107 53" xml:space="preserve">
<g>
	<path fill="#FFFFFF" d="M31,33.55c0.05,4.69-1.2,7.6-3.2,10.22c-2.96,3.88-6.92,6.5-11.25,8.61c-0.63,0.31-1.17,0.24-1.79-0.06
		c-3.75-1.83-7.18-4.09-10.01-7.2c-4.59-5.05-5.58-11.11-2.8-16.88c3.08-6.37,10.23-9.71,17.34-8.1C26.15,21.7,31,27.8,31,33.55z
		 M21.47,35.26c0.04-3.17-2.58-5.82-5.75-5.82c-3.07,0.01-5.74,2.63-5.76,5.67c-0.02,3.22,2.51,5.84,5.7,5.9
		C18.82,41.07,21.43,38.5,21.47,35.26z"/>
	<path fill="#FFFFFF" d="M90.4,32.81c-4.88,0-9.76,0.01-14.65,0c-1.32,0-1.38-0.03-1.35-1.32c0.03-1.24-0.55-2.82,0.28-3.63
		c0.76-0.74,2.3-0.23,3.49-0.24c5.23-0.02,10.45-0.01,15.68-0.01c1.76,0,1.79-0.01,1.95-1.79c0.13-1.49,0.22-2.98,0.24-4.47
		c0.02-1.2-0.04-1.2-1.29-1.24c-0.4-0.01-0.8,0-1.21,0c-4.42,0-8.85,0-13.27-0.01c-1.49,0-1.53-0.02-1.51-1.53
		c0.02-1.08-0.46-2.43,0.22-3.17c0.77-0.84,2.17-0.32,3.29-0.33c5.97-0.03,11.95-0.02,17.92-0.01c1.72,0,1.71,0.02,1.66,1.72
		c-0.09,3.1-0.26,6.19-0.77,9.26c-0.25,1.53-0.2,1.55,1.32,1.56c1.09,0.01,2.18,0.01,3.27,0.01c0.5,0,0.89,0.11,0.88,0.75
		c-0.02,1.21-0.02,2.41-0.01,3.62c0,0.58-0.26,0.84-0.84,0.82c-0.4-0.01-0.8,0-1.21,0C99.82,32.82,95.11,32.82,90.4,32.81
		C90.4,32.82,90.4,32.82,90.4,32.81z"/>
	<path fill="#FFFFFF" d="M12.38,18.71c-1.09,0.02-2.18,0-3.24-0.3c-3.18-0.89-5.28-3.91-4.86-7.01c0.48-3.5,3.1-5.83,6.56-5.83
		c0.34,0,0.69,0.01,1.03,0.05c0.54,0.06,0.88-0.14,1.03-0.67c0.08-0.27,0.17-0.55,0.3-0.81c1.16-2.4,3.09-3.65,5.73-3.73
		c2.61-0.08,4.57,1.1,5.71,3.42c1.15,2.35,0.94,4.68-0.62,6.83c-0.68,0.94-1.59,1.66-2.53,2.31c-1.27,0.88-2.56,1.74-3.84,2.63
		c-0.76,0.53-1.58,1.08-1.89,1.96c-0.37,1.07-1.09,1.19-2.01,1.16C13.3,18.7,12.84,18.71,12.38,18.71z"/>
	<path fill="#FFFFFF" d="M58.53,48.81c-3.1,0.01-5.74-0.58-8.03-2.36c-3.94-3.05-3.97-8.84-0.07-11.94c1.47-1.17,3.16-1.89,5-2.17
		c3.56-0.54,7.01-0.31,10.09,1.81c3.53,2.44,4.45,7.04,2.11,10.48c-1,1.47-2.37,2.47-4,3.16C61.91,48.53,60.11,48.82,58.53,48.81z
		 M58.29,44.2c0.93-0.07,1.95-0.2,2.88-0.71c1.13-0.62,1.83-1.55,1.89-2.87c0.06-1.39-0.57-2.49-1.76-3.11
		c-2.06-1.08-4.21-1.11-6.24,0.07c-2.29,1.33-2.25,4.42,0.01,5.81C56.02,43.96,57.09,44.13,58.29,44.2z"/>
	<path fill="#FFFFFF" d="M61.3,25.29c0.31,1.04,0.35,2.18,0.49,3.31c0.09,0.71-0.16,1.02-0.86,1.19c-2.58,0.61-5.19,0.99-7.81,1.27
		c-3.37,0.36-6.76,0.54-10.15,0.55c-1.5,0-1.52-0.02-1.52-1.53c-0.01-4.42-0.01-8.84,0-13.27c0-1.34,0.03-1.38,1.32-1.39
		c4.71-0.02,9.42-0.02,14.13,0c1.23,0,1.27,0.05,1.27,1.27c0,1.09,0.45,2.44-0.19,3.19c-0.67,0.79-2.06,0.26-3.13,0.28
		c-2.12,0.05-4.25,0.04-6.38,0.01c-0.88-0.02-1.24,0.3-1.19,1.2c0.06,1.26,0,2.53,0.02,3.79c0.02,1.38,0.09,1.48,1.48,1.41
		c3.84-0.19,7.69-0.36,11.45-1.27C60.53,25.22,60.87,25.05,61.3,25.29z"/>
	<path fill="#FFFFFF" d="M90.78,47.19c-3.45,0-6.89,0.01-10.34-0.01c-1.41-0.01-1.43-0.03-1.44-1.44c-0.01-3.33,0.02-6.66-0.02-9.99
		c-0.01-0.88,0.27-1.24,1.18-1.2c1.2,0.06,2.41,0,3.62,0.02c1.19,0.02,1.21,0.04,1.23,1.29c0.02,1.55,0,3.1,0.01,4.65
		c0.01,1.62,0.02,1.63,1.59,1.64c4.65,0.01,9.31,0,13.96,0c0.4,0,0.81,0.02,1.21,0c0.68-0.03,0.91,0.31,0.9,0.94
		c-0.02,0.98-0.04,1.96,0.01,2.93c0.05,0.92-0.37,1.19-1.22,1.18C97.91,47.18,94.35,47.2,90.78,47.19
		C90.78,47.2,90.78,47.19,90.78,47.19z"/>
	<path fill="#FFFFFF" d="M63.17,22.89c0-2.7-0.02-5.39,0.01-8.09c0.01-1.22,0.04-1.24,1.25-1.27c1.03-0.02,2.07-0.02,3.1,0
		c1.43,0.02,1.44,0.03,1.46,1.4c0.02,1.72,0.04,3.44-0.01,5.16c-0.02,0.83,0.28,1.13,1.1,1.09c0.92-0.04,1.84,0.01,2.75-0.01
		c0.66-0.01,0.94,0.29,0.91,0.93c-0.01,0.17,0.01,0.34,0,0.52c-0.06,1.14,0.45,2.54-0.21,3.35c-0.71,0.86-2.15,0.25-3.27,0.34
		c-1.22,0.09-1.24,0.05-1.26,1.26c-0.02,1.15-0.05,2.3,0.01,3.44c0.05,0.93-0.35,1.2-1.21,1.16c-1.15-0.05-2.3-0.05-3.44,0
		c-0.89,0.04-1.21-0.29-1.2-1.19C63.2,28.28,63.17,25.59,63.17,22.89z"/>
</g>
<g>
</g>
<g>
</g>
<g>
</g>
<g>
</g>
<g>
</g>
<g>
</g>
</svg>
