<?xml version="1.0" encoding="utf-8"?>
<!-- Generator: Adobe Illustrator 27.0.0, SVG Export Plug-In . SVG Version: 6.00 Build 0)  -->
<svg version="1.1" id="Layer_1" xmlns="http://www.w3.org/2000/svg" xmlns:xlink="http://www.w3.org/1999/xlink" x="0px" y="0px"
	 viewBox="0 0 38 38" enable-background="new 0 0 38 38" xml:space="preserve">
<g>
	<g>
		<radialGradient id="SVGID_1_" cx="9.166" cy="33.7113" r="43.5905" gradientUnits="userSpaceOnUse">
			<stop  offset="0" style="stop-color:#FFDB71"/>
			<stop  offset="0.2556" style="stop-color:#F8952A"/>
			<stop  offset="0.4886" style="stop-color:#EE3471"/>
			<stop  offset="0.6941" style="stop-color:#AA3E8E"/>
			<stop  offset="0.748" style="stop-color:#984098"/>
			<stop  offset="0.9852" style="stop-color:#575BA8"/>
		</radialGradient>
		<path fill-rule="evenodd" clip-rule="evenodd" fill="url(#SVGID_1_)" d="M19,37.44L19,37.44C8.82,37.44,0.56,29.18,0.56,19v0
			C0.56,8.82,8.82,0.56,19,0.56h0c10.18,0,18.44,8.25,18.44,18.44v0C37.44,29.18,29.18,37.44,19,37.44z"/>
	</g>
	<path fill="#FFFFFF" d="M19,8.23c3.51,0,3.92,0.01,5.31,0.08c1.28,0.06,1.98,0.27,2.44,0.45C27.36,9,27.8,9.28,28.26,9.74
		c0.46,0.46,0.74,0.9,0.98,1.51c0.18,0.46,0.39,1.16,0.45,2.44c0.06,1.39,0.08,1.8,0.08,5.31c0,3.51-0.01,3.92-0.08,5.31
		c-0.06,1.28-0.27,1.98-0.45,2.44c-0.24,0.61-0.52,1.05-0.98,1.51c-0.46,0.46-0.9,0.74-1.51,0.98c-0.46,0.18-1.16,0.39-2.44,0.45
		c-1.38,0.06-1.8,0.08-5.31,0.08c-3.51,0-3.92-0.01-5.31-0.08c-1.28-0.06-1.98-0.27-2.44-0.45c-0.61-0.24-1.05-0.52-1.51-0.98
		C9.28,27.8,9,27.36,8.76,26.75c-0.18-0.46-0.39-1.16-0.45-2.44c-0.06-1.39-0.08-1.8-0.08-5.31c0-3.51,0.01-3.92,0.08-5.31
		c0.06-1.28,0.27-1.98,0.45-2.44C9,10.64,9.28,10.2,9.74,9.74c0.46-0.46,0.9-0.74,1.51-0.98c0.46-0.18,1.16-0.39,2.44-0.45
		C15.08,8.24,15.49,8.23,19,8.23 M19,5.86c-3.57,0-4.01,0.02-5.42,0.08c-1.4,0.06-2.35,0.29-3.19,0.61C9.53,6.89,8.8,7.34,8.07,8.07
		C7.34,8.8,6.89,9.53,6.55,10.4c-0.32,0.84-0.55,1.79-0.61,3.19c-0.06,1.4-0.08,1.85-0.08,5.42c0,3.57,0.02,4.01,0.08,5.42
		c0.06,1.4,0.29,2.35,0.61,3.19c0.34,0.86,0.78,1.6,1.52,2.33c0.73,0.73,1.46,1.18,2.33,1.52c0.84,0.32,1.79,0.55,3.19,0.61
		c1.4,0.06,1.85,0.08,5.42,0.08c3.57,0,4.01-0.02,5.42-0.08c1.4-0.06,2.35-0.29,3.19-0.61c0.86-0.34,1.6-0.78,2.33-1.52
		c0.73-0.73,1.18-1.46,1.52-2.33c0.32-0.84,0.55-1.79,0.61-3.19c0.06-1.4,0.08-1.85,0.08-5.42c0-3.57-0.02-4.01-0.08-5.42
		c-0.06-1.4-0.29-2.35-0.61-3.19c-0.34-0.86-0.78-1.6-1.52-2.33c-0.73-0.73-1.46-1.18-2.33-1.52c-0.84-0.32-1.79-0.55-3.19-0.61
		C23.01,5.88,22.57,5.86,19,5.86L19,5.86z M19,12.25c-3.73,0-6.75,3.02-6.75,6.75c0,3.73,3.02,6.75,6.75,6.75
		c3.73,0,6.75-3.02,6.75-6.75C25.75,15.27,22.73,12.25,19,12.25z M19,23.38c-2.42,0-4.38-1.96-4.38-4.38c0-2.42,1.96-4.38,4.38-4.38
		s4.38,1.96,4.38,4.38C23.38,21.42,21.42,23.38,19,23.38z M26.01,10.41c-0.87,0-1.58,0.71-1.58,1.58c0,0.87,0.71,1.58,1.58,1.58
		c0.87,0,1.58-0.71,1.58-1.58C27.59,11.12,26.88,10.41,26.01,10.41z"/>
</g>
<g>
</g>
<g>
</g>
<g>
</g>
<g>
</g>
<g>
</g>
<g>
</g>
</svg>
