<?xml version="1.0" encoding="utf-8"?>
<!-- Generator: Adobe Illustrator 27.0.0, SVG Export Plug-In . SVG Version: 6.00 Build 0)  -->
<svg version="1.1" id="Layer_1" xmlns="http://www.w3.org/2000/svg" xmlns:xlink="http://www.w3.org/1999/xlink" x="0px" y="0px"
	 viewBox="0 0 141.73 28.35" enable-background="new 0 0 141.73 28.35" xml:space="preserve">
<g>
	<path fill="#535353" d="M21.08,10.75c2.21,2.22,4.42,4.44,6.65,6.64c0.22,0.22,0.24,0.33,0.01,0.56c-3.33,3.31-6.64,6.63-9.97,9.95
		c-0.07,0.07-0.14,0.29-0.31,0.09c0.01-2.35,0.01-4.69,0.02-7.04c0.02-0.01,0.05-0.02,0.07-0.02l0.03,0
		c0.01,0.02,0.01,0.05,0.02,0.07c0.03-0.02,0.05-0.04,0.08-0.06c0.11-0.11,0.22-0.22,0.33-0.32c0.09-0.09,0.18-0.18,0.27-0.27
		c0.06-0.06,0.11-0.11,0.17-0.17c0.02-0.02,0.05-0.05,0.07-0.07c0.66-0.61,1.3-1.24,1.91-1.91c0.14-0.13,0.28-0.27,0.43-0.39
		c0.22-0.18,0.16-0.32-0.06-0.44c-0.09-0.14-0.2-0.25-0.34-0.34c-0.49-0.54-1-1.06-1.54-1.54c-0.09-0.13-0.19-0.26-0.33-0.33
		c-0.09-0.14-0.2-0.26-0.35-0.35c-0.09-0.14-0.19-0.25-0.33-0.33c-0.07-0.08-0.1-0.22-0.26-0.18l0,0c0.04-0.1-0.01-0.11-0.09-0.09
		l0.01,0.01c-0.01-0.15-0.04-0.31-0.04-0.46c0-2.14,0.01-4.28,0.01-6.41c0.17-0.05,0.22,0.1,0.3,0.18
		C18.92,8.59,20,9.67,21.08,10.75z"/>
	<path fill="#CD2029" d="M17.55,20.93c-0.03,0-0.05,0.01-0.07,0.02c-0.87-0.86-1.73-1.73-2.6-2.58c-0.28-0.27-0.51-0.6-0.88-0.77
		c-1.38-1.4-2.77-2.79-4.15-4.19c-0.87-0.87-1.73-1.75-2.59-2.63c0.01-0.07-0.01-0.13-0.08-0.16c0.78-0.9,1.66-1.7,2.49-2.54
		c2.53-2.54,5.06-5.07,7.6-7.6c0.07-0.07,0.15-0.12,0.23-0.18c0,2.33,0,4.66,0,6.99c-0.22,0.03-0.28,0.25-0.41,0.38
		c-1.01,1-2.01,2.01-3.01,3.02c-0.06,0.04-0.04,0.07,0.02,0.08c0.31,0.31,0.62,0.62,0.94,0.92c0.86,0.82,1.65,1.71,2.55,2.5
		l-0.01-0.01c0.01,0.05-0.01,0.13,0.09,0.09c0,0,0,0,0,0c-0.17,0.62-0.05,1.25-0.07,1.87c0,0.23,0,0.45,0,0.68c0,0.28,0,0.57,0,0.85
		c0,0.14,0,0.28,0,0.43C17.57,19.06,17.56,19.99,17.55,20.93z M13.8,10.69c0-0.01,0-0.03,0.01-0.04c-1.95,0-3.9,0-5.85,0
		c0,0.01,0,0.03,0,0.04C9.9,10.69,11.85,10.69,13.8,10.69z M7.52,10.62c-0.04,0.02-0.07,0.04-0.1,0.06
		c0.02,0.01,0.05,0.03,0.07,0.03c0.04,0,0.08-0.02,0.11-0.03C7.58,10.66,7.55,10.64,7.52,10.62z"/>
	<path fill="#393D47" d="M84.07,15.28c0.28-0.77,0.38-1.5,0.54-2.21c0.36-1.56,0.7-3.12,1.04-4.68c0.08-0.35,0.24-0.52,0.64-0.51
		c0.76,0.02,1.53-0.02,2.3,0c0.28,0.01,0.34,0.07,0.25,0.34c-1.04,3.44-2.08,6.88-3.11,10.32c-0.11,0.37-0.32,0.52-0.71,0.51
		c-0.71-0.02-1.42-0.02-2.13,0c-0.25,0.01-0.34-0.08-0.41-0.31c-1.05-3.51-2.11-7.02-3.18-10.52c-0.1-0.34-0.01-0.38,0.29-0.38
		c0.78,0.02,1.56,0.03,2.34,0.02c0.36,0,0.48,0.19,0.55,0.5c0.48,2.16,0.97,4.31,1.45,6.46C83.97,14.95,84.01,15.07,84.07,15.28z"/>
	<path fill="#393D47" d="M71.73,16.62c0.13,0.23,0.33,0.22,0.53,0.22c0.71,0.01,1.42-0.04,2.13,0.06c1.15,0.16,1.76,0.7,1.95,1.7
		c0.2,1.08-0.3,2.22-1.23,2.67c-1.42,0.69-2.9,0.63-4.34,0.08c-0.99-0.38-1.29-1.46-0.77-2.51c0.12-0.24,0.11-0.38-0.04-0.59
		c-0.58-0.78-0.49-1.59,0.25-2.22c0.21-0.18,0.18-0.27,0.05-0.47c-0.79-1.2-0.63-3.06,0.32-3.98c0.42-0.41,0.94-0.56,1.51-0.57
		c0.57-0.02,1.14-0.01,1.7,0.1c0.57,0.11,0.98-0.04,1.27-0.52c0.12-0.2,0.23-0.22,0.44-0.13c0.92,0.36,0.96,0.41,0.59,1.32
		c-0.18,0.44-0.27,0.89-0.23,1.37c0.02,0.23,0.02,0.45,0.02,0.68c0.03,1.77-0.76,2.6-2.54,2.68c-0.38,0.02-0.77,0-1.15,0
		C72.02,16.49,71.86,16.47,71.73,16.62z M73.47,13.8C73.47,13.8,73.48,13.8,73.47,13.8c0-0.11,0.01-0.23,0-0.34
		c-0.02-0.49-0.21-0.69-0.66-0.68c-0.43,0.01-0.61,0.2-0.63,0.68c-0.01,0.27-0.02,0.54,0.01,0.8c0.04,0.38,0.27,0.55,0.68,0.53
		c0.36-0.02,0.59-0.18,0.6-0.57C73.48,14.08,73.47,13.94,73.47,13.8z M72.86,20.01c0.34,0.01,0.61-0.02,0.87-0.09
		c0.3-0.08,0.38-0.31,0.36-0.59c-0.02-0.27-0.21-0.35-0.45-0.35c-0.44-0.01-0.88-0.01-1.32-0.01c-0.22,0-0.39,0.06-0.45,0.3
		c-0.06,0.25,0.01,0.45,0.23,0.58C72.37,20,72.65,20,72.86,20.01z"/>
	<path fill="#393D47" d="M38.95,7.72c1.77-0.01,2.96,0.77,3.68,2.29c0.11,0.23,0.11,0.36-0.16,0.44c-0.12,0.04-0.24,0.09-0.35,0.15
		c-0.72,0.43-1.38,0.67-1.97-0.25c-0.26-0.41-0.8-0.4-1.26-0.31c-0.57,0.11-0.75,0.7-0.37,1.14c0.26,0.31,0.61,0.5,0.95,0.71
		c0.63,0.4,1.29,0.77,1.9,1.21c1.71,1.23,2,3.45,0.66,4.98c-0.74,0.84-1.74,1.11-2.8,1.11c-1.61,0-2.87-0.66-3.67-2.11
		c-0.29-0.52-0.23-0.7,0.34-0.92c0.3-0.12,0.62-0.21,0.91-0.35c0.39-0.18,0.66-0.11,0.89,0.27c0.38,0.62,0.96,0.9,1.69,0.84
		c0.63-0.05,0.92-0.56,0.62-1.12c-0.19-0.36-0.48-0.63-0.83-0.84c-0.76-0.46-1.55-0.89-2.29-1.39c-1.35-0.92-1.81-2.65-1.09-4.11
		C36.47,8.18,37.64,7.75,38.95,7.72z"/>
	<path fill="#EA383C" d="M17.49,7.3c0-2.33,0-4.66,0-6.99c0.15-0.11,0.19,0.05,0.25,0.11c3.36,3.35,6.72,6.71,10.08,10.07
		c0.04,0.04,0.07,0.09,0.1,0.14c-0.15,0.12-0.31,0.06-0.45,0.06c-1.97,0.01-3.94,0.01-5.91,0.02c-0.15,0-0.31,0.02-0.46,0.03
		C20,9.67,18.92,8.59,17.84,7.51c-0.08-0.08-0.13-0.23-0.3-0.18C17.51,7.33,17.5,7.32,17.49,7.3z"/>
	<path fill="#393D47" d="M13.99,17.6c0.37,0.17,0.6,0.5,0.88,0.77c0.87,0.86,1.74,1.72,2.6,2.58c-0.01,2.35-0.01,4.69-0.02,7.04
		c-1.25-1.24-2.5-2.47-3.74-3.71c-2.1-2.09-4.19-4.19-6.29-6.28c-0.1-0.1-0.19-0.2-0.37-0.39C9.45,17.6,11.72,17.6,13.99,17.6z"/>
	<path fill="#393D47" d="M115.22,15.13c0,1.16-0.01,2.33,0.01,3.49c0.01,0.32-0.09,0.42-0.41,0.41c-0.5-0.02-0.99-0.01-1.49-0.01
		c-0.21,0-0.43,0.05-0.48-0.26c-0.03-0.22-0.18-0.06-0.26-0.03c-0.4,0.15-0.78,0.34-1.2,0.41c-1.66,0.28-2.77-0.61-2.88-2.34
		c-0.12-1.77-0.08-3.54-0.09-5.32c0-0.31,0.15-0.41,0.42-0.39c0.58,0.04,1.16,0.04,1.74,0c0.33-0.03,0.44,0.12,0.44,0.45
		c-0.01,1.59,0,3.18,0.03,4.77c0.01,0.59,0.27,0.81,0.77,0.81c0.55-0.01,0.83-0.26,0.83-0.85c0.01-1.36-0.01-2.72-0.02-4.09
		c0-0.09,0-0.17,0-0.26c-0.01-0.85,0-0.84,0.85-0.81c0.38,0.02,0.77,0,1.15-0.02c0.53-0.03,0.6,0.03,0.6,0.54
		C115.22,12.8,115.22,13.97,115.22,15.13z"/>
	<path fill="#393D47" d="M97.87,11.61c0.55-0.41,1.11-0.65,1.76-0.65c1.52,0,2.39,0.75,2.55,2.27c0.1,0.95,0.07,1.9,0.07,2.85
		c0,0.87-0.01,1.73,0.01,2.6c0,0.25-0.04,0.36-0.32,0.35c-0.64-0.02-1.28-0.02-1.92,0c-0.27,0.01-0.33-0.09-0.33-0.34
		c0-1.46-0.01-2.92-0.03-4.38c0-0.16,0-0.31-0.03-0.47c-0.08-0.56-0.32-0.78-0.78-0.74c-0.52,0.04-0.78,0.33-0.78,0.87
		c0.01,1.52,0,3.04,0.02,4.55c0.01,0.41-0.14,0.56-0.55,0.54c-0.58-0.02-1.16-0.01-1.74,0c-0.22,0.01-0.29-0.07-0.29-0.29
		c0.01-2.45,0.01-4.91,0-7.36c0-0.2,0.05-0.27,0.26-0.27c0.51,0.01,1.02,0,1.53,0C97.75,11.14,97.75,11.14,97.87,11.61z"/>
	<path fill="#393D47" d="M62.05,15.07c0-1.21,0.01-2.41-0.01-3.62c0-0.26,0.06-0.34,0.33-0.33c0.47,0.02,0.94,0.01,1.4,0
		c0.25,0,0.48-0.01,0.57,0.3c0.08,0.27,0.23,0.05,0.32-0.01C65.3,10.98,66,10.88,66.74,11c1.13,0.18,1.81,0.94,1.96,2.19
		c0.14,1.19,0.05,2.38,0.07,3.57c0.01,0.62-0.01,1.25,0.01,1.87c0.01,0.27-0.05,0.38-0.35,0.36c-0.62-0.02-1.25-0.02-1.87,0
		c-0.28,0.01-0.35-0.08-0.35-0.35c0.01-1.36,0.01-2.72,0-4.09c0-0.3-0.03-0.6-0.08-0.89c-0.09-0.45-0.36-0.63-0.79-0.58
		c-0.46,0.05-0.74,0.34-0.74,0.78c0,1.52,0.01,3.04,0.01,4.55c0,0.6,0,0.6-0.58,0.6c-0.5,0-0.99-0.02-1.49,0.01
		c-0.37,0.02-0.51-0.06-0.5-0.47C62.07,17.39,62.05,16.23,62.05,15.07z"/>
	<path fill="#393D47" d="M54.13,14.99c-0.03-0.46,0.03-0.99,0.08-1.53c0.11-1.19,1.05-2.16,2.31-2.39c0.72-0.13,1.44-0.13,2.16,0.02
		c1.46,0.3,2.24,1.24,2.3,2.83c0.03,0.8,0.02,1.61-0.02,2.42c-0.07,1.59-0.92,2.5-2.55,2.8c-0.58,0.11-1.16,0.1-1.73-0.02
		c-1.67-0.33-2.51-1.37-2.55-3.15C54.13,15.67,54.13,15.37,54.13,14.99z M58.4,15.08c0-0.44,0.01-0.88,0-1.32
		c-0.02-0.51-0.31-0.83-0.77-0.85c-0.52-0.02-0.79,0.21-0.83,0.79c-0.06,0.92-0.06,1.84,0.01,2.76c0.04,0.52,0.32,0.78,0.77,0.78
		c0.46,0,0.8-0.34,0.81-0.86C58.41,15.96,58.4,15.52,58.4,15.08z"/>
	<path fill="#393D47" d="M126.21,15.62c-0.47,0-0.94,0.02-1.4-0.01c-0.41-0.02-0.51,0.16-0.48,0.53c0.07,0.87,0.57,1.27,1.31,1.04
		c0.28-0.09,0.45-0.28,0.56-0.54c0.1-0.23,0.25-0.27,0.48-0.18c0.42,0.16,0.84,0.32,1.27,0.47c0.2,0.07,0.22,0.15,0.15,0.34
		c-0.31,0.85-0.85,1.46-1.74,1.71c-1.02,0.29-2.02,0.27-2.99-0.15c-0.96-0.41-1.48-1.16-1.58-2.19c-0.1-1.06-0.1-2.13,0-3.19
		c0.11-1.13,0.76-1.91,1.83-2.29c0.91-0.33,1.86-0.28,2.75,0.05c1.21,0.44,1.71,1.42,1.78,2.65c0.03,0.45-0.01,0.91,0.01,1.36
		c0.01,0.31-0.14,0.39-0.42,0.39C127.23,15.61,126.72,15.61,126.21,15.62C126.21,15.61,126.21,15.62,126.21,15.62z M124.89,14.15
		c0.15,0,0.4,0.08,0.65,0.02c0.13-0.04,0.29-0.05,0.31-0.23c0.03-0.33,0.01-0.66-0.25-0.9c-0.24-0.22-0.55-0.21-0.84-0.11
		c-0.32,0.11-0.5,0.57-0.42,1.01C124.39,14.24,124.59,14.19,124.89,14.15z"/>
	<path fill="#393D47" d="M92.59,15.62c-0.51,0-1.02,0.01-1.53,0c-0.28,0-0.37,0.13-0.38,0.39c-0.02,0.91,0.54,1.42,1.31,1.19
		c0.28-0.09,0.46-0.28,0.57-0.53c0.11-0.24,0.24-0.3,0.5-0.19c0.4,0.17,0.82,0.32,1.24,0.45c0.22,0.07,0.24,0.16,0.17,0.37
		c-0.35,0.96-1,1.55-2,1.77c-1,0.22-1.97,0.16-2.9-0.31c-0.77-0.39-1.25-1.01-1.37-1.88c-0.15-1.13-0.14-2.27-0.03-3.4
		c0.13-1.4,1.14-2.34,2.55-2.46c1.24-0.11,2.42,0.01,3.25,1.12c0.37,0.5,0.54,1.06,0.56,1.67c0.01,0.47-0.01,0.94,0.01,1.4
		c0.01,0.3-0.11,0.41-0.4,0.4C93.61,15.6,93.1,15.61,92.59,15.62C92.59,15.61,92.59,15.62,92.59,15.62z M91.44,14.16
		c0,0,0,0.01,0,0.01c0.17,0,0.34,0.01,0.51,0c0.13-0.01,0.28-0.05,0.28-0.2c0-0.27,0.01-0.54-0.14-0.78
		c-0.21-0.32-0.59-0.41-0.98-0.25c-0.3,0.13-0.52,0.62-0.43,0.98c0.1,0.4,0.44,0.17,0.67,0.24C91.39,14.16,91.42,14.16,91.44,14.16z
		"/>
	<path fill="#393D47" d="M131.74,10.96c1.4-0.01,2.42,0.65,2.84,1.8c0.08,0.22,0.07,0.33-0.18,0.39c-0.23,0.06-0.46,0.13-0.69,0.22
		c-0.43,0.18-0.8,0.31-1.1-0.26c-0.16-0.3-0.56-0.41-0.95-0.29c-0.18,0.05-0.31,0.15-0.34,0.33c-0.03,0.18,0.07,0.3,0.2,0.39
		c0.5,0.36,1.07,0.58,1.62,0.84c1.24,0.58,1.76,1.66,1.41,2.97c-0.27,1-1.03,1.47-1.97,1.73c-1.48,0.41-2.98-0.19-3.67-1.48
		c-0.16-0.3-0.15-0.49,0.2-0.61c0.33-0.12,0.65-0.27,0.97-0.42c0.22-0.11,0.36-0.06,0.49,0.15c0.21,0.33,0.52,0.56,0.91,0.64
		c0.29,0.06,0.55,0.03,0.67-0.28c0.13-0.32-0.04-0.52-0.3-0.66c-0.52-0.26-1.05-0.49-1.56-0.77c-1.14-0.61-1.65-1.59-1.42-2.67
		c0.25-1.16,1.19-1.93,2.47-2.02C131.48,10.96,131.61,10.96,131.74,10.96z"/>
	<path fill="#393D47" d="M43.98,15.2c0-0.52,0-1.05,0-1.57c0-0.33-0.08-0.58-0.47-0.63c-0.27-0.04-0.41-0.23-0.4-0.52
		c0.01-0.34,0.01-0.68,0.01-1.02c-0.01-0.27,0.12-0.4,0.39-0.37c0.45,0.05,0.64-0.18,0.74-0.58c0.1-0.38,0.22-0.76,0.33-1.14
		c0.08-0.27,0.23-0.43,0.55-0.41c0.34,0.02,0.68-0.01,1.02-0.02c0.25-0.01,0.36,0.08,0.35,0.34c-0.02,0.44,0,0.88-0.01,1.32
		c-0.01,0.36,0.13,0.5,0.5,0.51c0.95,0.01,0.95,0.02,0.95,0.98c0,0.95,0,0.97-0.94,0.91c-0.4-0.03-0.52,0.12-0.51,0.5
		c0.02,0.98,0,1.96,0.03,2.93c0.02,0.63,0.3,0.86,0.93,0.8c0.35-0.04,0.46,0.1,0.44,0.42c-0.01,0.14,0.01,0.28,0.02,0.42
		c0.08,0.81,0.08,0.82-0.73,1c-0.69,0.16-1.38,0.14-2.05-0.11c-0.45-0.17-0.75-0.48-0.9-0.95C43.92,17.1,43.97,16.15,43.98,15.2z"/>
	<path fill="#393D47" d="M106.2,14.89c0,0.52-0.02,1.05,0,1.57c0.03,0.59,0.33,0.86,0.91,0.78c0.35-0.05,0.46,0.09,0.47,0.4
		c0.01,0.21,0.03,0.42,0.05,0.64c0.05,0.58,0.04,0.59-0.53,0.75c-0.54,0.16-1.1,0.18-1.65,0.11c-1.12-0.14-1.77-0.96-1.79-2.21
		c-0.02-1.06-0.05-2.12,0-3.19c0.02-0.38-0.03-0.7-0.52-0.76c-0.28-0.04-0.36-0.29-0.34-0.56c0.03-0.34,0.06-0.68,0.01-1.02
		c-0.05-0.34,0.24-0.33,0.42-0.32c0.44,0.04,0.61-0.18,0.7-0.56c0.08-0.34,0.2-0.68,0.29-1.02c0.1-0.4,0.35-0.59,0.77-0.57
		c0.27,0.01,0.54,0.01,0.81,0c0.3-0.02,0.4,0.12,0.38,0.41c-0.02,0.45,0.01,0.91-0.01,1.36c-0.01,0.32,0.12,0.43,0.43,0.41
		c1.02-0.06,1.02-0.05,1.02,0.97c0,0.94,0,0.96-0.97,0.91c-0.39-0.02-0.5,0.12-0.48,0.49c0.02,0.47,0.01,0.94,0.01,1.4
		C106.19,14.89,106.2,14.89,106.2,14.89z"/>
	<path fill="#393D47" d="M51.26,11.93c0.31-0.45,0.66-0.85,1.25-0.93c0.08-0.01,0.17-0.03,0.25-0.03c0.84-0.04,0.99,0.1,0.93,0.92
		c-0.03,0.47-0.09,0.93-0.13,1.4c-0.02,0.19-0.07,0.21-0.26,0.16c-1.12-0.29-1.8,0.22-1.82,1.39c-0.02,1.21,0,2.41,0,3.62
		c0,0.54-0.04,0.59-0.57,0.59c-0.55,0-1.11-0.02-1.66,0.01c-0.3,0.02-0.37-0.12-0.37-0.36c0-0.51,0-1.02,0-1.53
		c0-1.85,0-3.69,0-5.54c0-0.5,0.07-0.55,0.58-0.52c0.34,0.02,0.68,0.02,1.02,0c0.58-0.03,0.62-0.01,0.67,0.57
		C51.16,11.76,51.17,11.85,51.26,11.93z"/>
	<path fill="#393D47" d="M118.81,12.02c0.5-0.88,1.17-1.15,2.03-1.01c0.35,0.06,0.5,0.24,0.47,0.58c-0.05,0.56-0.12,1.13-0.17,1.69
		c-0.02,0.18-0.06,0.22-0.26,0.17c-1.13-0.28-1.82,0.26-1.82,1.43c-0.01,1.25-0.01,2.5,0.01,3.74c0,0.31-0.09,0.38-0.38,0.37
		c-0.61-0.02-1.22-0.02-1.83,0c-0.25,0.01-0.35-0.04-0.35-0.32c0.01-2.4,0.01-4.79,0-7.19c0-0.28,0.08-0.36,0.36-0.35
		c0.45,0.02,0.91,0.03,1.36,0c0.35-0.02,0.55,0.05,0.5,0.44C118.71,11.68,118.77,11.79,118.81,12.02z"/>
	<path fill="#EA383C" d="M7.17,10.63c0.07,0.03,0.09,0.09,0.08,0.16C7.2,10.75,7.07,10.75,7.17,10.63z"/>
	<path fill="#EA383C" d="M13.8,10.69c-1.95,0-3.9,0-5.84,0c0-0.01,0-0.03,0-0.04c1.95,0,3.9,0,5.85,0
		C13.8,10.67,13.8,10.68,13.8,10.69z"/>
	<path fill="#EA383C" d="M7.52,10.62c0.03,0.02,0.06,0.04,0.08,0.06c-0.04,0.01-0.08,0.03-0.11,0.03c-0.02,0-0.05-0.02-0.07-0.03
		C7.45,10.65,7.48,10.64,7.52,10.62z"/>
	<path fill="#EA383C" d="M14.07,10.71c0.01,0.03,0.01,0.06,0.02,0.08C14.02,10.78,14.01,10.75,14.07,10.71z"/>
</g>
<g>
</g>
<g>
</g>
<g>
</g>
<g>
</g>
<g>
</g>
<g>
</g>
</svg>
