<?xml version="1.0" encoding="utf-8"?>
<!-- Generator: Adobe Illustrator 27.0.0, SVG Export Plug-In . SVG Version: 6.00 Build 0)  -->
<svg version="1.1" id="Layer_1" xmlns="http://www.w3.org/2000/svg" xmlns:xlink="http://www.w3.org/1999/xlink" x="0px" y="0px"
	 viewBox="0 0 170.08 42.52" enable-background="new 0 0 170.08 42.52" xml:space="preserve">
<g>
	<path fill="#242424" d="M77.02,2.53c0,0.11-0.01,0.21-0.01,0.32c0,12.28,0,24.55,0,36.83c0,0.11,0.01,0.21,0.01,0.32
		c-12.38,0-24.76,0-37.15,0.01c-0.39,0-0.43-0.1-0.43-0.45c0.01-12.2,0.01-24.39,0-36.59c0-0.35,0.05-0.45,0.43-0.45
		C52.25,2.53,64.64,2.53,77.02,2.53z M51.66,23.29c-0.03-0.02-0.05-0.05-0.08-0.07c0-1.46,0-2.92,0-4.38
		c0.01-0.01,0.03-0.02,0.03-0.03c-0.01-0.02-0.02-0.04-0.04-0.06c-0.4-0.14-0.8-0.14-1.2,0c-0.22,0.05-0.16,0.23-0.16,0.37
		c0,1.58,0,3.15,0,4.73c0,0.14-0.06,0.32,0.16,0.37c0.1,0.17,0.27,0.1,0.41,0.1c0.91,0.01,1.81,0,2.72,0c0.64,0,0.62,0,0.63-0.66
		c0.01-0.31-0.1-0.37-0.38-0.37C53.05,23.32,52.36,23.3,51.66,23.29z M58.22,19.71c0.39-0.01,0.79-0.02,1.18-0.01
		c0.21,0,0.31-0.05,0.29-0.28c-0.02-0.15-0.01-0.3,0-0.46c0.01-0.2-0.04-0.3-0.28-0.3c-1.29,0.01-2.58,0.01-3.88,0
		c-0.2,0-0.27,0.07-0.26,0.26c0.01,0.15,0.02,0.31,0,0.46c-0.03,0.24,0.06,0.32,0.31,0.31c0.39-0.01,0.79,0.01,1.18,0.01
		c0.03,0.05,0.07,0.09,0.1,0.14c0.01,1.32,0.01,2.63,0.03,3.95c0,0.17-0.13,0.5,0.12,0.5c0.35,0,0.77,0.23,1.07-0.15
		c0.18-0.09,0.14-0.25,0.14-0.4C58.23,22.4,58.22,21.05,58.22,19.71z M64.23,24.4c1.66-0.01,2.93-1.27,2.92-2.91
		c0-1.63-1.29-2.91-2.94-2.91c-1.67,0-2.98,1.31-2.95,2.94C61.29,23.17,62.57,24.41,64.23,24.4z M70.95,24.4
		c1.29,0,2.04-0.68,1.97-1.79c-0.04-0.68-0.43-1.12-1.01-1.41c-0.42-0.21-0.85-0.39-1.27-0.62c-0.23-0.13-0.34-0.36-0.25-0.62
		c0.1-0.29,0.34-0.37,0.62-0.35c0.19,0.01,0.38,0.08,0.47,0.24c0.16,0.27,0.31,0.2,0.5,0.06c0.11-0.08,0.22-0.16,0.35-0.22
		c0.27-0.12,0.21-0.26,0.07-0.45c-0.53-0.68-1.72-0.87-2.49-0.38c-0.45,0.29-0.69,0.71-0.7,1.25c-0.02,0.81,0.42,1.3,1.1,1.63
		c0.38,0.19,0.77,0.36,1.15,0.55c0.22,0.12,0.32,0.32,0.28,0.57c-0.04,0.24-0.2,0.37-0.42,0.43c-0.5,0.15-0.96,0.05-1.27-0.35
		c-0.22-0.29-0.38-0.25-0.62-0.08c-0.08,0.06-0.18,0.12-0.28,0.16c-0.32,0.12-0.26,0.29-0.09,0.5C69.56,24.15,70.2,24.4,70.95,24.4z
		 M43.18,24.33c0.22,0,0.35-0.01,0.49,0c0.43,0.05,0.78-0.01,0.86-0.53c0.03-0.21,0.19-0.24,0.37-0.23c0.5,0.01,1,0.02,1.5-0.01
		c0.32-0.02,0.52,0.08,0.59,0.4c0.06,0.31,0.25,0.42,0.55,0.37c0.15-0.02,0.3-0.02,0.45,0c0.33,0.03,0.35-0.07,0.22-0.35
		c-0.77-1.68-1.53-3.36-2.3-5.04c-0.05-0.11-0.06-0.27-0.26-0.29C44.84,20.52,44.02,22.39,43.18,24.33z"/>
	<path fill="#282828" d="M130.64,23.31c-0.9,1.13-1.97,1.42-3.12,0.83c-0.12-0.06-0.24-0.13-0.35-0.21
		c-0.23-0.19-0.59-0.42-0.52-0.68c0.07-0.27,0.49-0.36,0.77-0.51c0.19-0.11,0.22,0.11,0.29,0.19c0.36,0.39,0.79,0.54,1.31,0.39
		c0.22-0.06,0.38-0.19,0.43-0.42c0.05-0.25-0.05-0.46-0.27-0.58c-0.33-0.18-0.68-0.32-1.03-0.48c-0.91-0.43-1.3-1.01-1.23-1.82
		c0.06-0.7,0.54-1.22,1.26-1.37c0.84-0.18,1.7,0.14,2.02,0.72c0.08,0.15,0.04,0.21-0.08,0.29c-0.14,0.09-0.28,0.18-0.42,0.27
		c-0.19,0.14-0.34,0.21-0.5-0.06c-0.13-0.2-0.37-0.26-0.61-0.25c-0.23,0.02-0.41,0.11-0.48,0.35c-0.07,0.23,0,0.42,0.18,0.57
		c0.21,0.18,0.47,0.27,0.73,0.37c0.7,0.28,1.32,0.65,1.63,1.39C130.64,22.64,130.64,22.98,130.64,23.31z"/>
	<path fill="#272727" d="M118.71,24.33c-0.46,0-0.83,0-1.21,0c-0.18,0-0.22-0.14-0.28-0.25c-0.28-0.48-0.58-0.96-0.84-1.46
		c-0.2-0.38-0.52-0.23-0.8-0.22c-0.14,0-0.09,0.17-0.09,0.27c-0.01,0.46-0.02,0.91,0,1.37c0.01,0.24-0.07,0.3-0.31,0.3
		c-0.87,0.01-0.87,0.02-0.87-0.83c0-1.49,0.01-2.98-0.01-4.47c0-0.29,0.06-0.39,0.37-0.38c0.65,0.03,1.31-0.01,1.96,0.02
		c1.24,0.04,1.95,0.82,1.88,2.02c-0.03,0.57-0.27,1.04-0.77,1.32c-0.31,0.17-0.27,0.3-0.11,0.55
		C118,23.12,118.33,23.69,118.71,24.33z M115.49,20.52c0,0.21,0,0.42,0,0.64c0,0.13,0.01,0.24,0.19,0.24
		c0.36-0.02,0.73,0.04,1.09-0.05c0.36-0.09,0.53-0.33,0.56-0.68c0.05-0.58-0.2-0.89-0.78-0.96
		C115.52,19.56,115.49,19.59,115.49,20.52z"/>
	<path fill="#272727" d="M97.64,21.87c0-0.98,0.01-1.89-0.01-2.8c-0.01-0.31,0.06-0.45,0.4-0.4c0.15,0.02,0.3,0.01,0.46,0
		c0.21-0.02,0.25,0.08,0.25,0.27c-0.01,1.81,0,3.61,0,5.57c-1.23-1.15-2.38-2.22-3.58-3.34c0,0.93-0.02,1.8,0.01,2.67
		c0.01,0.38-0.06,0.54-0.49,0.51c-0.62-0.04-0.63-0.01-0.63-0.63c0-1.56,0-3.13,0-4.69c0-0.12-0.08-0.3,0.08-0.36
		c0.13-0.05,0.2,0.11,0.28,0.19C95.47,19.84,96.53,20.83,97.64,21.87z"/>
	<path fill="#282828" d="M124.44,19.67c-0.7,0.01-1.4,0.03-2.09,0.02c-0.27,0-0.36,0.06-0.36,0.35c0,0.96-0.02,0.95,0.95,0.95
		c0.26,0,0.52-0.01,0.77,0.01c0.18,0.01,0.46-0.12,0.53,0.09c0.08,0.25,0.05,0.54,0.02,0.81c-0.02,0.16-0.2,0.1-0.31,0.1
		c-0.55,0.01-1.09,0.01-1.64,0c-0.23-0.01-0.31,0.06-0.32,0.3c-0.04,1.01-0.05,1.01,0.96,1.01c0.47,0,0.94,0.02,1.41-0.01
		c0.3-0.02,0.38,0.09,0.34,0.36c-0.02,0.13-0.01,0.27,0,0.41c0.02,0.21-0.08,0.26-0.27,0.25c-1.12-0.01-2.25,0-3.37,0
		c-0.2,0-0.26-0.07-0.26-0.27c0.01-1.72,0-3.43,0-5.15c0-0.16,0.03-0.26,0.22-0.25c1.15,0.01,2.31,0.01,3.46,0.02
		c0.02,0,0.03,0.05,0.05,0.07c-0.08,0.04-0.06,0.07,0.01,0.1c0.04,0.24,0.04,0.48,0,0.72C124.51,19.6,124.48,19.63,124.44,19.67z"/>
	<path fill="#282828" d="M107.33,18.94c-0.06-0.2,0.01-0.28,0.22-0.27c0.21,0.01,0.43,0.02,0.64,0c0.25-0.02,0.3,0.08,0.3,0.31
		c-0.01,1.05,0.01,2.09-0.01,3.14c-0.03,1.2,0.73,1.36,1.63,1.17c0.41-0.09,0.59-0.42,0.61-0.81c0.03-0.7,0.02-1.4,0.03-2.09
		c0-0.49,0.01-0.97,0-1.46c0-0.19,0.05-0.25,0.26-0.26c0.92-0.05,0.92-0.06,0.92,0.84c0,0.96,0.01,1.91,0,2.87
		c-0.02,1.21-0.85,2-2.11,2.04c-1.48,0.05-2.34-0.62-2.46-1.89c0.11-0.05,0.14-0.15,0.14-0.26c0-1.02,0-2.05,0-3.07
		C107.48,19.07,107.46,18.97,107.33,18.94z"/>
	<path fill="#272727" d="M91.43,19.67c-0.67,0.01-1.33,0.03-2,0.01c-0.3-0.01-0.43,0.05-0.43,0.39c0,0.91-0.01,0.91,0.9,0.91
		c0.36,0,0.73,0.01,1.09,0c0.25-0.01,0.3,0.08,0.31,0.31C91.31,22,91.32,22,90.6,22c-0.42,0-0.85,0.01-1.27-0.01
		c-0.22-0.01-0.32,0.05-0.33,0.3c-0.04,1.02-0.05,1.02,0.96,1.02c0.47,0,0.94,0.02,1.41-0.01c0.29-0.02,0.38,0.08,0.35,0.36
		c-0.02,0.13-0.01,0.27,0,0.41c0.02,0.19-0.05,0.27-0.25,0.26c-1.17-0.01-2.33-0.02-3.5-0.02c-0.03-0.03-0.07-0.06-0.1-0.09
		c-0.03-1.79-0.04-3.58,0.01-5.38c0.98,0,1.95,0,2.93,0c0.17,0,0.37,0.07,0.47-0.15c0.04,0,0.09,0,0.13,0.01
		c0.06,0.06,0.12,0.12,0.18,0.17c0,0.17,0,0.33,0,0.5C91.43,19.42,91.43,19.54,91.43,19.67z"/>
	<path fill="#282828" d="M83.3,21.85c0.39-0.9,0.75-1.74,1.12-2.59c0.25-0.57,0.63-0.75,1.23-0.59c0.27,0.07,0.07,0.22,0.03,0.3
		c-0.65,1.5-1.3,3-1.95,4.5c-0.14,0.31-0.27,0.63-0.46,1.04c-0.91-2.01-1.77-3.9-2.63-5.8c0.06-0.03,0.07-0.04,0.09-0.04
		c1.13-0.08,1.13-0.08,1.58,0.96C82.63,20.35,82.95,21.06,83.3,21.85z"/>
	<path fill="#282828" d="M103.59,19.86c0.04,1.39,0.05,2.78,0,4.17c-0.07,0.03-0.09,0.06,0,0.09c0.02,0.06,0.06,0.12-0.01,0.16
		c-0.05,0.03-0.11,0.04-0.17,0.04c-0.95,0.12-0.97,0.1-0.97-0.85c0-1.14-0.01-2.27,0.01-3.41c0-0.3-0.08-0.41-0.38-0.38
		c-0.3,0.03-0.61-0.02-0.91,0.01c-0.29,0.03-0.38-0.08-0.34-0.36c0.02-0.13,0.01-0.27,0-0.41c-0.01-0.19,0.05-0.27,0.26-0.27
		c1.3,0.01,2.61,0.01,3.91,0c0.17,0,0.25,0.05,0.24,0.23c-0.01,0.23-0.02,0.45-0.02,0.68c-0.03,0.03-0.06,0.06-0.1,0.1
		c-0.48,0-0.95,0-1.43,0C103.54,19.69,103.4,19.71,103.59,19.86z"/>
	<path fill="#191918" d="M107.33,18.94c0.13,0.03,0.15,0.13,0.15,0.24c0,1.02,0,2.05,0,3.07c0,0.11-0.03,0.21-0.14,0.26
		C107.29,21.32,107.3,20.13,107.33,18.94z"/>
	<path fill="#191918" d="M91.27,18.69c-0.1,0.22-0.31,0.15-0.47,0.15c-0.98,0.01-1.95,0-2.93,0c-0.04-0.2,0.11-0.17,0.22-0.17
		C89.15,18.68,90.21,18.68,91.27,18.69z"/>
	<path fill="#191918" d="M91.43,19.67c0-0.13,0.01-0.24,0.15-0.3C91.56,19.49,91.71,19.68,91.43,19.67z"/>
	<path fill="#191918" d="M103.59,19.86c-0.19-0.16-0.05-0.17,0.08-0.19C103.65,19.74,103.62,19.8,103.59,19.86z"/>
	<path fill="#191918" d="M105.11,19.67c0.03-0.03,0.06-0.06,0.1-0.1C105.21,19.65,105.18,19.68,105.11,19.67z"/>
	<path fill="#191918" d="M124.44,19.67c0.04-0.03,0.07-0.06,0.11-0.1C124.56,19.66,124.52,19.68,124.44,19.67z"/>
	<path fill="#191918" d="M124.55,18.85c-0.07-0.03-0.09-0.06-0.01-0.1c0.01,0.02,0.02,0.04,0.02,0.06
		C124.56,18.82,124.56,18.84,124.55,18.85z"/>
	<path fill="#191918" d="M91.58,18.87c-0.06-0.06-0.12-0.12-0.18-0.17C91.53,18.67,91.6,18.72,91.58,18.87z"/>
	<path fill="#191918" d="M103.59,24.12c-0.09-0.03-0.07-0.06,0-0.09C103.59,24.06,103.59,24.09,103.59,24.12z"/>
	<path fill="#191918" d="M87.86,24.22c0.03,0.03,0.07,0.06,0.1,0.09C87.89,24.32,87.85,24.3,87.86,24.22z"/>
	<path fill="#F7F8F8" d="M64.23,24.4c-1.66,0.01-2.94-1.23-2.96-2.87c-0.03-1.64,1.28-2.94,2.95-2.94c1.64,0,2.93,1.28,2.94,2.91
		C67.16,23.13,65.89,24.39,64.23,24.4z M62.48,21.51c0.01,1.08,0.75,1.87,1.76,1.87c0.97-0.01,1.71-0.81,1.72-1.86
		c0.01-1.08-0.72-1.87-1.74-1.88C63.22,19.63,62.47,20.43,62.48,21.51z"/>
	<path fill="#F7F8F8" d="M70.95,24.4c-0.75-0.01-1.39-0.26-1.88-0.86c-0.17-0.21-0.24-0.38,0.09-0.5c0.1-0.04,0.19-0.1,0.28-0.16
		c0.23-0.17,0.4-0.21,0.62,0.08c0.31,0.41,0.77,0.51,1.27,0.35c0.22-0.07,0.38-0.2,0.42-0.43c0.04-0.25-0.06-0.46-0.28-0.57
		c-0.38-0.19-0.77-0.36-1.15-0.55c-0.68-0.33-1.11-0.83-1.1-1.63c0.01-0.55,0.24-0.96,0.7-1.25c0.76-0.49,1.95-0.3,2.49,0.38
		c0.15,0.19,0.2,0.33-0.07,0.45c-0.12,0.06-0.24,0.14-0.35,0.22c-0.19,0.14-0.35,0.21-0.5-0.06c-0.09-0.16-0.28-0.23-0.47-0.24
		c-0.28-0.02-0.52,0.06-0.62,0.35c-0.09,0.26,0.01,0.5,0.25,0.62c0.41,0.22,0.85,0.4,1.27,0.62c0.58,0.29,0.97,0.73,1.01,1.41
		C72.99,23.73,72.24,24.41,70.95,24.4z"/>
	<path fill="#F7F8F8" d="M43.18,24.33c0.85-1.94,1.66-3.81,2.48-5.68c0.2,0.02,0.21,0.18,0.26,0.29c0.77,1.68,1.52,3.36,2.3,5.04
		c0.13,0.28,0.11,0.38-0.22,0.35c-0.15-0.02-0.31-0.02-0.45,0c-0.31,0.04-0.49-0.06-0.55-0.37c-0.07-0.32-0.27-0.41-0.59-0.4
		c-0.5,0.03-1,0.02-1.5,0.01c-0.19,0-0.34,0.02-0.37,0.23c-0.08,0.52-0.43,0.58-0.86,0.53C43.53,24.32,43.39,24.33,43.18,24.33z
		 M46.39,22.57c-0.23-0.55-0.44-1.06-0.7-1.66c-0.25,0.62-0.45,1.12-0.67,1.66C45.51,22.57,45.93,22.57,46.39,22.57z"/>
	<path fill="#F7F8F8" d="M58.09,24.15c-0.3,0.38-0.72,0.15-1.07,0.15c-0.25,0-0.12-0.33-0.12-0.5c-0.02-1.32-0.02-2.63-0.03-3.95
		c0.01-0.08,0.02-0.16-0.1-0.14c-0.39-0.01-0.79-0.03-1.18-0.01c-0.24,0.01-0.33-0.07-0.31-0.31c0.02-0.15,0.01-0.3,0-0.46
		c-0.01-0.19,0.05-0.27,0.26-0.26c1.29,0.01,2.58,0.01,3.88,0c0.23,0,0.29,0.09,0.28,0.3c-0.01,0.15-0.01,0.31,0,0.46
		c0.02,0.23-0.08,0.28-0.29,0.28c-0.39-0.01-0.79,0.01-1.18,0.01c-0.16,0-0.15,0.11-0.15,0.22C58.08,21.33,58.08,22.74,58.09,24.15z
		"/>
	<path fill="#F7F8F8" d="M50.37,18.75c0.4-0.15,0.8-0.14,1.2,0c0,0.03,0,0.06,0,0.09c0,1.46,0,2.92,0,4.38
		c-0.01,0.07,0.02,0.09,0.08,0.07c0.7,0.01,1.39,0.02,2.09,0.01c0.28-0.01,0.39,0.05,0.38,0.37c-0.02,0.66,0,0.66-0.63,0.66
		c-0.91,0-1.82,0-2.72,0c-0.14,0-0.31,0.07-0.41-0.1C50.37,22.4,50.37,20.58,50.37,18.75z"/>
	<path fill="#191918" d="M50.37,18.75c0,1.82,0,3.64,0,5.47c-0.22-0.05-0.16-0.23-0.16-0.37c0-1.58,0-3.15,0-4.73
		C50.21,18.98,50.15,18.8,50.37,18.75z"/>
	<path fill="#191918" d="M58.09,24.15c-0.01-1.41-0.02-2.81-0.02-4.22c0-0.11-0.01-0.22,0.15-0.22c0,1.35,0.01,2.7,0.01,4.04
		C58.23,23.9,58.27,24.06,58.09,24.15z"/>
	<path fill="#191918" d="M56.77,19.71c0.12-0.01,0.11,0.06,0.1,0.14C56.84,19.8,56.81,19.75,56.77,19.71z"/>
	<path fill="#191918" d="M51.66,23.29c-0.06,0.01-0.09-0.01-0.08-0.07C51.61,23.25,51.64,23.27,51.66,23.29z"/>
	<path fill="#191918" d="M51.58,18.84c0-0.03,0-0.06,0-0.09c0.01,0.02,0.03,0.04,0.04,0.06C51.62,18.82,51.59,18.83,51.58,18.84z"/>
	<path fill="#272727" d="M62.48,21.51c-0.01-1.08,0.74-1.88,1.74-1.88c1.01,0.01,1.74,0.8,1.74,1.88c-0.01,1.05-0.74,1.85-1.72,1.86
		C63.23,23.38,62.48,22.59,62.48,21.51z"/>
	<path fill="#282828" d="M46.39,22.57c-0.47,0-0.88,0-1.36,0c0.21-0.53,0.42-1.04,0.67-1.66C45.95,21.51,46.16,22.02,46.39,22.57z"
		/>
</g>
<g>
</g>
<g>
</g>
<g>
</g>
<g>
</g>
<g>
</g>
<g>
</g>
</svg>
