<?xml version="1.0" encoding="utf-8"?>
<!-- Generator: Adobe Illustrator 27.0.0, SVG Export Plug-In . SVG Version: 6.00 Build 0)  -->
<svg version="1.1" id="Layer_1" xmlns="http://www.w3.org/2000/svg" xmlns:xlink="http://www.w3.org/1999/xlink" x="0px" y="0px"
	 viewBox="0 0 255.12 28.35" enable-background="new 0 0 255.12 28.35" xml:space="preserve">
<g>
	<path fill="#030303" d="M142.2,17.82c0-2.66,0.06-5.32-0.03-7.98c-0.03-1.05,0.37-1.27,1.27-1.22c1.09,0.06,2.3-0.31,2.65,1.34
		c0.14,0.66,0.64,0.08,0.89-0.1c1.55-1.07,3.28-1.71,5.15-1.73c3.41-0.04,5.79,2.06,5.95,5.49c0.19,4.27,0.09,8.55,0.13,12.82
		c0.01,0.61-0.25,0.73-0.78,0.71c-1.01-0.03-2.02-0.06-3.02,0.01c-0.84,0.06-1.02-0.25-1.01-1.04c0.04-3.53,0.03-7.07,0.01-10.6
		c-0.01-2.63-0.92-3.41-3.57-3.12c-2.93,0.32-2.93,0.32-2.92,3.23c0,3.49-0.03,6.98,0.02,10.47c0.01,0.81-0.2,1.09-1.02,1.01
		c-1.2-0.13-2.82,0.51-3.51-0.26c-0.6-0.66-0.19-2.24-0.2-3.41C142.19,21.57,142.2,19.69,142.2,17.82z"/>
	<path fill="#060606" d="M132.87,19.5c-1.53,0-3.07,0.03-4.6-0.02c-0.69-0.02-0.79,0.24-0.71,0.83c0.22,1.66,1.61,3.04,3.41,3.34
		c1.82,0.31,3.59,0.06,5.29-0.58c0.65-0.24,0.87-0.2,1.11,0.5c0.94,2.69,0.92,2.77-1.85,3.55c-2.1,0.6-4.21,0.7-6.36,0.27
		c-3.36-0.66-5.65-2.85-6.28-6.21c-0.5-2.65-0.41-5.29,0.49-7.87c1.17-3.37,4.13-5.39,7.64-5.22c3.93,0.18,6.26,2.04,7.21,5.81
		c0.45,1.8,0.48,3.62,0.13,5.45c-1.42,0.31-2.86,0.06-4.29,0.13C133.66,19.52,133.27,19.5,132.87,19.5z M130.76,16.13
		c0.83,0,1.66,0.01,2.48-0.01c0.27-0.01,0.67,0.13,0.66-0.37c-0.02-1.23-0.09-2.48-1.14-3.32c-0.99-0.79-2.17-0.87-3.33-0.37
		c-1.18,0.5-1.47,1.64-1.79,2.72c-0.26,0.86-0.24,1.54,1.02,1.36C129.35,16.05,130.06,16.13,130.76,16.13z"/>
	<path fill="#060606" d="M221.04,19.5c-1.54,0-3.07,0.06-4.6-0.02c-0.94-0.05-0.99,0.33-0.81,1.07c0.43,1.74,1.91,3.02,3.74,3.16
		c1.68,0.13,3.35-0.01,4.91-0.64c0.79-0.32,0.96-0.01,1.18,0.61c0.89,2.57,0.76,2.75-1.9,3.47c-2.03,0.54-4.08,0.71-6.12,0.39
		c-3.69-0.59-5.98-2.98-6.59-6.83c-0.41-2.61-0.3-5.22,0.69-7.73c1.28-3.27,4.34-5.14,8.04-4.86c3.55,0.27,5.94,2.38,6.71,5.93
		c0.33,1.51,0.29,3.03,0.29,4.56c0,0.78-0.35,0.93-1.05,0.91C224.02,19.47,222.53,19.5,221.04,19.5z M218.62,16.13
		c0.87,0,1.74-0.01,2.62,0c0.38,0,0.67-0.02,0.66-0.54c-0.04-2.7-1.3-4.25-4.02-3.68c-1.56,0.33-1.95,1.69-2.29,3.02
		c-0.21,0.84-0.11,1.32,0.94,1.2C217.22,16.07,217.93,16.13,218.62,16.13z"/>
	<path fill="#030303" d="M189.38,25.37c-1.77,1.55-3.64,2.27-5.78,2.25c-3.86-0.03-6.12-2.07-6.24-5.9
		c-0.13-4.1-0.03-8.2-0.06-12.31c0-0.58,0.2-0.76,0.75-0.76c1.05,0.01,2.1,0.03,3.15-0.02c0.82-0.04,1.01,0.29,1,1.08
		c-0.04,3.4-0.03,6.81-0.01,10.21c0,1.21-0.14,2.54,1.24,3.19c1.51,0.71,2.99,0.37,4.42-0.31c0.61-0.29,0.49-0.86,0.49-1.38
		c0-3.88,0.03-7.77-0.02-11.65c-0.01-0.85,0.21-1.14,1.08-1.08c1,0.08,2.02,0.05,3.02,0.01c0.58-0.02,0.74,0.17,0.74,0.74
		c-0.02,5.67-0.02,11.35,0,17.02c0,0.48-0.11,0.75-0.65,0.69c-0.3-0.03-0.62-0.03-0.92,0C190.39,27.27,189.32,27.21,189.38,25.37z"
		/>
	<path fill="#060606" d="M235.6,27.62c-2,0.1-3.9-0.38-5.8-0.97c-0.67-0.21-0.97-0.39-0.68-1.16c0.32-0.85,0.2-2.05,0.77-2.57
		c0.66-0.61,1.65,0.3,2.51,0.47c1.29,0.26,2.59,0.41,3.92,0.35c0.86-0.03,1.58-0.28,1.84-1.18c0.28-0.97-0.25-1.63-1.06-2.01
		c-1.54-0.72-3.13-1.34-4.69-2.02c-2.01-0.88-2.86-2.49-2.84-4.6c0.02-2.12,0.9-3.81,2.8-4.85c1.42-0.78,2.97-0.98,4.58-0.9
		c1.63,0.09,3.21,0.38,4.75,0.91c0.74,0.25,1.13,0.53,0.67,1.39c-0.41,0.76-0.46,1.88-1.06,2.32c-0.59,0.44-1.49-0.44-2.3-0.55
		c-1.16-0.16-2.32-0.56-3.5-0.11c-0.68,0.26-1.25,0.64-1.33,1.46c-0.08,0.79,0.42,1.26,1.01,1.54c1.22,0.57,2.51,1.01,3.75,1.54
		c3.42,1.46,4.63,3.83,3.63,7.06c-0.69,2.25-2.78,3.75-5.4,3.87C236.66,27.64,236.13,27.62,235.6,27.62z"/>
	<path fill="#060606" d="M112.17,22.2c1.31-4.52,2.6-8.84,3.8-13.19c0.27-0.97,0.65-1.18,1.49-0.76c0.12,0.06,0.25,0.09,0.37,0.13
		c1.02,0.37,2.55,0.3,2.94,1.12c0.32,0.67-0.52,1.91-0.87,2.89c-1.64,4.58-3.32,9.15-4.92,13.75c-0.29,0.83-0.68,1.06-1.49,1.01
		c-1.26-0.07-2.78,0.35-3.73-0.2c-0.96-0.56-1-2.21-1.43-3.39c-1.56-4.29-3.05-8.6-4.67-12.87c-0.45-1.18-0.22-1.61,0.99-1.77
		c0.73-0.1,1.45-0.36,2.13-0.64c0.92-0.38,1.31-0.15,1.58,0.84c1.08,3.99,2.25,7.95,3.4,11.92
		C111.86,21.37,111.99,21.69,112.17,22.2z"/>
	<path fill="#060606" d="M163.61,17.52c0-1.4-0.04-2.79,0.02-4.19c0.03-0.78-0.17-1.06-1.01-1.05c-1.9,0.02-1.77-0.04-1.94-1.92
		c-0.13-1.45,0.69-1.59,1.68-1.56c1.06,0.02,1.29-0.43,1.27-1.41c-0.06-2.4-0.01-2.4,2.31-2.92c2.51-0.57,2.51-0.57,2.51,1.97
		c0,2.19,0,2.19,2.21,2.19c0.18,0,0.35,0,0.53,0c2.81,0,2.76,0,2.76,2.81c0,0.88-0.33,1-1.07,0.97c-1.14-0.05-2.28,0.02-3.42-0.03
		c-0.72-0.03-0.99,0.15-0.98,0.93c0.05,2.44-0.01,4.89,0.03,7.33c0.05,2.67,1.13,3.5,3.7,2.62c1.23-0.42,1.5-0.08,1.81,1.01
		c0.66,2.31,0.73,2.3-1.64,2.92c-0.59,0.16-1.19,0.3-1.79,0.38c-4.27,0.59-6.74-1.44-6.94-5.73c-0.06-1.44-0.01-2.88-0.01-4.32
		C163.62,17.52,163.61,17.52,163.61,17.52z"/>
	<path fill="#060606" d="M99.46,17.71c0.04,2.8-0.27,5.18-1.87,7.15c-2.22,2.74-5.22,3.21-8.45,2.46c-3.03-0.7-4.76-2.8-5.44-5.76
		c-0.53-2.29-0.54-4.6,0.02-6.88c1.02-4.18,4.16-6.44,8.38-6.11c4.2,0.33,6.92,3.14,7.29,7.54C99.43,16.76,99.44,17.42,99.46,17.71z
		 M96.34,18.09c-0.03-1.62-0.18-3.22-0.96-4.69c-0.78-1.47-2.03-2.22-3.7-2.29c-1.76-0.06-3.22,0.51-4.04,2.13
		c-1.59,3.16-1.52,6.41-0.13,9.58c0.74,1.68,2.29,2.25,4.11,2.23c1.76-0.01,3.01-0.75,3.83-2.27
		C96.23,21.32,96.37,19.72,96.34,18.09z"/>
	<path fill="#060606" d="M40.29,25.42c-1.34,0.89-2.78,1.6-4.38,1.96c-2.87,0.66-5.42-0.65-6.17-3.2c-0.94-3.2,0.38-6.04,3.19-7.09
		c1.96-0.73,3.98-0.54,5.98-0.49c1.12,0.03,1.28-0.39,1.23-1.33c-0.16-3.16-1.74-4.46-4.89-4.01c-1.05,0.15-2.08,0.33-3.04,0.78
		c-1.01,0.47-0.96-0.43-1.19-0.88c-0.23-0.45-0.68-0.96,0.2-1.36c2.51-1.13,5.08-1.62,7.79-0.97c2.29,0.55,3.9,2.51,3.99,5.23
		c0.13,4.14,0.05,8.28,0.07,12.43c0,0.39-0.03,0.76-0.53,0.64c-0.61-0.15-1.45,0.51-1.82-0.46C40.57,26.28,40.66,25.8,40.29,25.42z
		 M37.53,18.72c-0.88-0.06-1.97-0.01-3.03,0.28c-1.35,0.37-1.98,1.36-2.13,2.67c-0.14,1.19,0.05,2.4,1.19,2.95
		c1.77,0.85,3.46,0.12,5.13-0.62c1.43-0.63,1.44-1.74,1.41-3.01C40.04,18.72,40.08,18.72,37.53,18.72z"/>
	<path fill="#060606" d="M76.41,25.32c-1.11,0.67-2.22,1.37-3.48,1.75c-2.23,0.67-4.42,0.66-6.08-1.15
		c-1.61-1.74-1.61-3.94-0.83-6.03c0.82-2.22,2.78-3.05,4.97-3.26c1.48-0.15,2.98-0.08,4.47-0.05c0.62,0.01,0.81-0.16,0.84-0.8
		c0.14-3.76-2.12-5.38-6.09-4.31c-0.51,0.14-1.04,0.25-1.48,0.51c-0.86,0.5-1.1,0.13-1.5-0.63c-0.57-1.1-0.16-1.44,0.82-1.84
		c2.25-0.91,4.52-1.3,6.92-0.72c2.44,0.58,4.07,2.46,4.14,5.22c0.12,4.14,0.04,8.28,0.06,12.43c0,0.45-0.06,0.84-0.61,0.69
		c-0.59-0.16-1.47,0.54-1.77-0.52C76.66,26.2,76.71,25.74,76.41,25.32z M73.98,18.72c-1.27,0-2.54-0.09-3.74,0.5
		c-1.1,0.54-1.6,1.43-1.67,2.61c-0.06,1.09,0.04,2.2,1.1,2.76c1.8,0.94,3.46,0.11,5.14-0.59c1.41-0.59,1.53-1.66,1.49-2.97
		C76.22,18.72,76.28,18.72,73.98,18.72z"/>
	<path fill="#030303" d="M201.85,10.58c1.79-1.48,3.57-2.42,5.72-2.46c1.7-0.03,1.74,0,1.59,1.7c-0.08,0.96,0.1,2.13-0.4,2.8
		c-0.5,0.68-1.68-0.14-2.56,0.03c-0.04,0.01-0.09,0-0.13,0c-3.27,0.09-3.46,0.27-3.46,3.48c0,3.27-0.05,6.55,0.03,9.82
		c0.03,1.04-0.33,1.26-1.25,1.2c-1.13-0.08-2.61,0.34-3.3-0.23c-0.73-0.6-0.22-2.12-0.22-3.24c-0.03-4.58,0.02-9.17-0.04-13.75
		c-0.01-1.02,0.27-1.35,1.28-1.34C200.47,8.61,201.84,8.46,201.85,10.58z"/>
	<path fill="#060606" d="M15.25,13.9c0,4.02-0.03,8.04,0.02,12.05c0.01,0.95-0.21,1.27-1.22,1.22c-1.8-0.09-1.8-0.02-1.8-1.77
		c0-7.69,0-15.37,0.01-23.06c0-0.38-0.27-0.96,0.33-1.12c0.84-0.22,1.7-0.41,2.56-0.44c0.28-0.01,0.15,0.61,0.15,0.94
		c0.01,4.06,0.01,8.12,0.01,12.18C15.29,13.9,15.27,13.9,15.25,13.9z"/>
	<path fill="#060606" d="M51.47,0.65c0,5.92,0,11.72,0,17.53c0,2.66-0.04,5.33,0.02,7.99c0.02,0.83-0.23,1.11-1.02,0.98
		c-0.04-0.01-0.09,0-0.13,0c-1.95,0.02-1.95,0.02-1.95-1.88c0-7.42,0.05-14.84-0.04-22.26C48.33,1.62,48.7,1,50.04,0.91
		C50.47,0.88,50.9,0.76,51.47,0.65z"/>
	<path fill="#060606" d="M25.77,10.23c-0.2,0.25-0.36,0.46-0.52,0.66c-1.57,1.99-3.11,4-4.71,5.97c-0.44,0.54-0.45,0.88,0.01,1.43
		c1.86,2.2,3.64,4.48,5.52,6.67c0.58,0.67,0.72,1.1-0.15,1.56c-0.34,0.18-0.65,0.45-0.94,0.72c-0.38,0.35-0.65,0.43-1.04-0.06
		c-2.37-2.98-4.76-5.93-7.16-8.88c-0.32-0.4-0.37-0.68-0.03-1.12c2.08-2.7,4.14-5.41,6.18-8.14c0.37-0.49,0.64-0.61,1.13-0.17
		C24.59,9.35,25.3,9.62,25.77,10.23z"/>
	<path fill="#060606" d="M62.02,10.15c-1.76,2.25-3.46,4.47-5.22,6.63c-0.5,0.62-0.5,1.02,0.01,1.62c1.84,2.16,3.6,4.39,5.44,6.55
		c0.57,0.67,0.61,1.05-0.16,1.6c-1.54,1.1-1.51,1.14-2.71-0.33c-2.09-2.58-4.15-5.19-6.27-7.74c-0.49-0.58-0.48-0.94-0.03-1.53
		c1.98-2.55,3.95-5.12,5.84-7.74c0.57-0.79,0.97-0.78,1.61-0.2C60.99,9.43,61.5,9.76,62.02,10.15z"/>
</g>
<g>
</g>
<g>
</g>
<g>
</g>
<g>
</g>
<g>
</g>
<g>
</g>
</svg>
