<?xml version="1.0" encoding="utf-8"?>
<!-- Generator: Adobe Illustrator 27.0.0, SVG Export Plug-In . SVG Version: 6.00 Build 0)  -->
<svg version="1.1" id="Layer_1" xmlns="http://www.w3.org/2000/svg" xmlns:xlink="http://www.w3.org/1999/xlink" x="0px" y="0px"
	 viewBox="0 0 141.73 28.35" enable-background="new 0 0 141.73 28.35" xml:space="preserve">
<g>
	<path fill="#070707" d="M65.16,12.65c0-1.56,0.02-3.12-0.01-4.68c-0.01-0.53,0.12-0.72,0.7-0.73c2.31-0.05,2.35-0.07,2.31,2.3
		c-0.01,0.77,0.14,1.11,0.97,0.99c0.56-0.08,1.14-0.02,1.7-0.06c1.97-0.16,3.07-1.31,3.1-3.22c0.04-1.89-0.92-3-2.89-3.27
		c-1.66-0.23-3.33-0.08-5-0.08c-0.65,0-0.92-0.1-0.9-0.85c0.03-1.95-0.01-1.96,1.93-1.94c1.6,0.02,3.19-0.08,4.79,0.13
		c3.28,0.43,5.26,2.54,5.32,5.71c0.06,3.34-1.72,5.48-5.03,6.06c-1.06,0.18-2.12,0.27-3.18,0.19c-0.69-0.05-0.83,0.2-0.8,0.83
		c0.05,1.13-0.02,2.27,0.03,3.41c0.02,0.58-0.18,0.69-0.72,0.71c-2.31,0.06-2.31,0.08-2.31-2.19
		C65.16,14.85,65.16,13.75,65.16,12.65z"/>
	<path fill="#070707" d="M50.22,18.41c-2.09,0.03-3.75-0.45-5.33-1.22c-0.51-0.25-0.67-0.51-0.39-1.06c0.3-0.59,0.35-1.48,0.81-1.79
		c0.47-0.32,1.09,0.42,1.66,0.65c1.25,0.49,2.52,0.76,3.85,0.55c0.96-0.15,1.79-0.59,2-1.64c0.22-1.08-0.37-1.78-1.28-2.21
		C50.3,11.09,49,10.6,47.76,10c-1.63-0.79-2.95-1.88-3.04-3.89c-0.13-2.77,1.78-4.88,4.8-5.22c1.73-0.2,3.39,0.13,4.99,0.79
		c0.51,0.21,0.64,0.46,0.43,0.96c-0.26,0.61-0.33,1.46-0.78,1.81c-0.47,0.36-1.1-0.36-1.7-0.53c-0.94-0.26-1.87-0.44-2.83-0.29
		c-0.97,0.15-1.63,0.69-1.84,1.67c-0.2,0.94,0.28,1.59,1.05,2.02c0.65,0.36,1.34,0.64,2.01,0.95c0.77,0.35,1.57,0.65,2.32,1.06
		c2.36,1.3,3.16,2.92,2.69,5.33c-0.38,1.95-2.08,3.36-4.45,3.67C50.9,18.38,50.4,18.39,50.22,18.41z"/>
	<path fill="#070707" d="M37.03,18.09c-3.06,0.17-3.06,0.16-4.27-2.54c-1.29-2.9-2.59-5.8-3.89-8.7c-0.45,0.1-0.46,0.47-0.58,0.74
		c-1.44,3.23-2.89,6.46-4.28,9.7c-0.28,0.65-0.61,0.93-1.33,0.86c-0.7-0.07-1.41-0.02-2.24-0.02c0.72-1.53,1.39-2.97,2.06-4.41
		c1.88-4.04,3.76-8.08,5.65-12.11c0.12-0.26,0.17-0.62,0.62-0.62c0.43,0,0.51,0.29,0.64,0.58c2.53,5.41,5.06,10.83,7.59,16.24
		C37.03,17.87,37.02,17.95,37.03,18.09z"/>
	<path fill="#070707" d="M121.24,18.13c-1.16,0-2.15-0.03-3.13,0.01c-0.49,0.02-0.68-0.28-0.91-0.59c-1.18-1.6-2.39-3.18-3.54-4.8
		c-0.39-0.55-0.59-0.51-0.96,0.02c-1.11,1.56-2.29,3.08-3.39,4.65c-0.39,0.56-0.82,0.78-1.5,0.73c-0.81-0.06-1.62-0.01-2.63-0.01
		c0.68-0.9,1.25-1.68,1.84-2.46c1.25-1.64,2.47-3.29,3.76-4.9c0.45-0.56,0.49-0.93,0.05-1.54c-1.88-2.62-3.7-5.28-5.67-8.12
		c1.25,0,2.33,0,3.4,0c0.3,0,0.42,0.24,0.56,0.44C113.12,7.02,117.12,12.49,121.24,18.13z"/>
	<path fill="#070707" d="M91.67,18.13c-1.56,0-3.13-0.02-4.69,0.01c-0.6,0.01-0.88-0.06-0.86-0.78c0.05-2.66,0.03-5.33,0.01-7.99
		c-0.01-0.56,0.16-0.73,0.72-0.72c2.98,0.02,5.97,0.03,8.95,0c0.64-0.01,0.75,0.23,0.75,0.8c0.01,1.87,0.04,1.87-1.79,1.87
		c-1.6,0-3.2,0.02-4.8-0.01c-0.56-0.01-0.85,0.08-0.81,0.74c0.06,1.06-0.36,2.45,0.17,3.1c0.55,0.68,1.99,0.18,3.05,0.21
		c1.35,0.04,2.7,0.04,4.05,0c0.61-0.02,0.86,0.08,0.86,0.79c-0.01,1.99,0.03,1.99-1.98,1.99C94.09,18.13,92.88,18.13,91.67,18.13z"
		/>
	<path fill="#070707" d="M91.71,3.89c-1.56,0-3.13-0.03-4.69,0.01c-0.64,0.02-0.92-0.09-0.91-0.85c0.04-1.94-0.01-1.94,1.96-1.94
		c2.73,0,5.47,0.03,8.2-0.02c0.79-0.02,1.02,0.18,1,0.99c-0.05,1.81-0.01,1.81-1.84,1.81C94.2,3.89,92.95,3.89,91.71,3.89z"/>
	<path fill="#070707" d="M115.91,8.47c-0.03-0.01-0.07-0.02-0.09-0.04c-1.78-1.96-1.78-1.96-0.28-4.11c0.2-0.29,0.41-0.58,0.61-0.87
		c1.73-2.5,1.73-2.5,4.87-2.29C120.81,1.87,116.91,7.44,115.91,8.47z"/>
	<path fill="#171617" d="M84.39,26c0-1-0.01-1.7,0-2.4c0-0.26-0.11-0.59,0.36-0.59c0.5,0,0.45,0.32,0.45,0.65c0,1.06,0,2.12,0,3.19
		c0,0.23,0.07,0.53-0.26,0.61c-0.27,0.07-0.47-0.05-0.64-0.27c-0.5-0.65-1-1.29-1.5-1.92c-0.13-0.16-0.22-0.4-0.48-0.34
		c-0.35,0.08-0.23,0.38-0.24,0.61c-0.02,0.46,0,0.92-0.01,1.38c0,0.27,0.06,0.59-0.4,0.56c-0.34-0.02-0.4-0.23-0.4-0.5
		c0-1.17,0-2.34,0-3.51c0-0.22,0.02-0.41,0.31-0.45c0.32-0.03,0.53,0.08,0.72,0.33C82.94,24.15,83.57,24.95,84.39,26z"/>
	<path fill="#171617" d="M28.64,25.81c-2.62,0-5.25,0.01-7.87-0.01c-0.26,0-0.73,0.24-0.75-0.28c-0.02-0.53,0.46-0.33,0.72-0.33
		c5.28-0.01,10.57-0.01,15.85,0c0.28,0,0.74-0.18,0.75,0.31c0.01,0.53-0.47,0.3-0.73,0.3C33.96,25.82,31.3,25.81,28.64,25.81z"/>
	<path fill="#171617" d="M113.1,25.81c-2.66,0-5.32,0.01-7.98-0.01c-0.26,0-0.74,0.22-0.74-0.3c0-0.49,0.47-0.32,0.75-0.32
		c5.28-0.01,10.57-0.01,15.85,0c0.27,0,0.74-0.2,0.73,0.32c-0.01,0.5-0.48,0.29-0.74,0.29C118.35,25.82,115.73,25.81,113.1,25.81z"
		/>
	<path fill="#171617" d="M72.51,25.16c0.02,1.35-0.96,2.35-2.31,2.35c-1.31,0-2.31-0.95-2.35-2.23c-0.03-1.3,1.01-2.35,2.34-2.35
		C71.52,22.93,72.49,23.86,72.51,25.16z M70.23,26.76c0.82-0.02,1.42-0.65,1.42-1.52c0-0.91-0.63-1.58-1.49-1.56
		c-0.8,0.01-1.43,0.68-1.45,1.52C68.7,26.06,69.39,26.77,70.23,26.76z"/>
	<path fill="#171617" d="M94.17,25.2c0-2.19,0-2.19,2.2-2.19c0.21,0,0.43,0,0.64,0c0.21,0,0.43-0.04,0.45,0.29
		c0.02,0.33-0.14,0.43-0.45,0.42c-0.5-0.01-1,0.01-1.49-0.01c-0.42-0.02-0.55,0.17-0.56,0.57c-0.01,0.41,0.16,0.58,0.56,0.57
		c0.43-0.01,0.85,0,1.28,0c0.24,0,0.39,0.09,0.4,0.37c0.01,0.29-0.15,0.36-0.39,0.36c-0.43,0-0.85,0.02-1.28,0
		c-0.38-0.02-0.58,0.07-0.58,0.52c0,0.46,0.15,0.64,0.61,0.61c0.5-0.03,0.99,0,1.49-0.01c0.25,0,0.42,0.07,0.43,0.34
		c0.02,0.31-0.13,0.45-0.45,0.43c-0.18-0.01-0.36,0-0.53,0C94.17,27.48,94.17,27.48,94.17,25.2z"/>
	<path fill="#171617" d="M45.78,22.96c0.65,0,1.07,0.07,1.44,0.31c0.18,0.11,0.39,0.22,0.18,0.48c-0.13,0.17-0.22,0.35-0.5,0.22
		c-0.57-0.25-1.38-0.72-1.58,0.15c-0.17,0.74,0.85,0.61,1.36,0.83c0.64,0.27,1.14,0.64,1.01,1.42c-0.13,0.73-0.65,1.06-1.36,1.13
		c-0.62,0.06-1.2-0.09-1.72-0.43c-0.16-0.11-0.41-0.22-0.2-0.49c0.15-0.2,0.29-0.41,0.6-0.18c0.35,0.26,0.76,0.4,1.19,0.37
		c0.28-0.02,0.59-0.11,0.66-0.44c0.07-0.35-0.18-0.51-0.47-0.6c-0.27-0.09-0.54-0.16-0.81-0.24c-0.71-0.21-1.25-0.58-1.12-1.42
		C44.57,23.19,45.22,22.97,45.78,22.96z"/>
	<path fill="#070707" d="M57.87,23.02c0.46,0,0.92,0,1.38,0c0.22,0,0.42,0.02,0.41,0.33c-0.01,0.27-0.14,0.4-0.39,0.36
		c-1.1-0.2-1.09,0.49-1.05,1.26c0.03,0.64,0.01,1.27,0.01,1.91c0,0.28,0.05,0.6-0.4,0.58c-0.45-0.01-0.37-0.34-0.38-0.61
		c-0.01-0.71-0.03-1.42,0.01-2.12c0.03-0.65-0.01-1.15-0.87-1.01c-0.28,0.04-0.58,0.04-0.55-0.4c0.03-0.41,0.34-0.27,0.56-0.28
		C57.02,23,57.44,23.02,57.87,23.02z"/>
</g>
<g>
</g>
<g>
</g>
<g>
</g>
<g>
</g>
<g>
</g>
<g>
</g>
</svg>
