<?xml version="1.0" encoding="utf-8"?>
<!-- Generator: Adobe Illustrator 27.0.0, SVG Export Plug-In . SVG Version: 6.00 Build 0)  -->
<svg version="1.1" id="Layer_1" xmlns="http://www.w3.org/2000/svg" xmlns:xlink="http://www.w3.org/1999/xlink" x="0px" y="0px"
	 viewBox="0 0 255.12 28.35" enable-background="new 0 0 255.12 28.35" xml:space="preserve">
<g>
	<path fill="#364691" d="M5.25,1.45c3.59,0,7.18-0.02,10.76,0.01c2.62,0.02,5.22,0.24,7.73,1.07c3.49,1.15,6.25,3.22,7.79,6.61
		c2.53,5.58,0.93,12.78-5.42,16.27c-1.94,1.06-4.03,1.6-6.2,1.87c-1.81,0.22-3.62,0.25-5.44,0.25c-2.92,0-5.83,0-8.75,0
		c-0.16,0-0.31,0.01-0.47,0.02C5.25,18.85,5.25,10.15,5.25,1.45z M10.72,14.53c0,0.98,0,1.95,0,2.93c0,1.75,0,3.5,0,5.25
		c0,0.21,0.02,0.36,0.3,0.35c2.43-0.04,4.87,0.09,7.29-0.15c1.65-0.17,3.25-0.51,4.73-1.3c1.89-1.01,3.18-2.49,3.65-4.62
		c0.26-1.17,0.31-2.35,0.22-3.54c-0.2-2.66-1.45-4.63-3.78-5.93c-1.86-1.03-3.89-1.37-5.98-1.5c-1.97-0.12-3.95-0.04-5.92-0.06
		c-0.51,0-0.52,0-0.52,0.5C10.72,9.15,10.72,11.84,10.72,14.53z"/>
	<path fill="#354690" d="M157.29,26.9c-0.03-0.37-0.34-0.25-0.53-0.29c-2.78-0.57-5.29-1.68-7.46-3.55
		c-5.88-5.05-5.59-15.78,1.91-20.08c5.84-3.35,11.82-3.36,17.55,0.24c4.41,2.77,6.29,6.98,5.75,12.14
		c-0.51,4.86-3.31,8.09-7.66,10.09c-1.21,0.56-2.49,0.91-3.8,1.17c-0.18,0.04-0.47-0.07-0.48,0.27
		C160.81,26.9,159.05,26.9,157.29,26.9z M159.98,5c-1.37-0.03-2.69,0.21-3.97,0.68c-3.47,1.28-5.67,4.45-5.68,8.17
		c-0.01,3.64,2.12,6.67,5.62,7.98c2.15,0.8,4.36,0.92,6.58,0.42c7.49-1.69,8.63-9.54,5.06-13.89C165.63,5.97,163,5.03,159.98,5z"/>
	<path fill="#354690" d="M96.14,11.33c0.26,0,0.23-0.22,0.25-0.37c1.04-5.42,5.48-9.14,11.02-9.87c4.99-0.66,9.64,0.38,13.74,3.45
		c0.52,0.39,0.65,0.66,0.21,1.2c-0.56,0.7-1.05,1.46-1.54,2.22c-0.22,0.35-0.4,0.37-0.76,0.17c-1.88-1.02-3.76-2.09-5.89-2.51
		c-1.97-0.39-3.95-0.54-5.94-0.11c-3.37,0.74-5.65,3.23-6.05,6.67c-0.32,2.78,0.2,5.36,2.21,7.45c1.88,1.96,4.25,2.67,6.91,2.48
		c2.21-0.16,4.29-0.79,6.19-1.97c0.44-0.28,0.67-0.59,0.63-1.14c-0.05-0.75-0.04-1.5,0-2.25c0.02-0.48-0.16-0.63-0.63-0.63
		c-2.23,0.02-4.46-0.01-6.69,0.02c-0.61,0.01-0.84-0.14-0.79-0.78c0.06-0.83,0.04-1.67,0.03-2.51c0-0.38,0.14-0.53,0.53-0.53
		c3.9,0.01,7.81,0.01,11.71,0c0.41,0,0.5,0.17,0.5,0.54c-0.01,2.98-0.01,5.96,0,8.94c0,0.42-0.23,0.62-0.51,0.82
		c-2.85,2.06-6.01,3.37-9.51,3.8c-4.11,0.51-7.85-0.36-11.1-2.99c-2.12-1.71-3.49-3.92-4.15-6.57c-0.06-0.26,0.09-0.67-0.36-0.77
		C96.14,14.5,96.14,12.92,96.14,11.33z"/>
	<path fill="#364691" d="M46.66,27.84c-2.35-0.03-4.69-0.19-6.96-0.84c-1.88-0.54-3.58-1.46-5.17-2.6
		c-0.26-0.19-0.27-0.32-0.09-0.58c0.76-1.16,1.51-2.33,2.25-3.51c0.16-0.26,0.26-0.3,0.52-0.1c1.16,0.88,2.36,1.73,3.76,2.2
		c2.92,0.97,5.9,1.31,8.94,0.64c0.76-0.17,1.48-0.45,2.11-0.92c0.95-0.69,1.26-1.85,0.82-2.93c-0.14-0.35-0.39-0.59-0.71-0.79
		c-0.9-0.56-1.92-0.8-2.94-1.02c-1.87-0.41-3.78-0.62-5.66-1.01c-1.92-0.39-3.79-0.91-5.45-2.01c-3.17-2.1-3.45-5.72-2.41-7.99
		c0.75-1.64,2.05-2.72,3.61-3.52c1.96-1.01,4.06-1.45,6.25-1.54c2.41-0.1,4.79,0.13,7.15,0.61c0.91,0.18,1.74,0.59,2.55,1.01
		c0.88,0.45,1.73,0.94,2.58,1.45c0.23,0.14,0.29,0.24,0.15,0.5c-0.63,1.15-1.25,2.3-1.86,3.46c-0.11,0.21-0.19,0.25-0.39,0.09
		c-2.07-1.6-4.49-2.23-7.02-2.55c-1.48-0.18-2.95-0.21-4.42,0.07C43.35,6.13,42.52,6.48,41.74,7c-1.25,0.84-1.07,2.95,0.2,3.6
		c0.92,0.47,1.9,0.74,2.9,0.93c2.25,0.43,4.53,0.74,6.77,1.28c1.58,0.38,3.09,0.91,4.45,1.82c1.63,1.1,2.43,2.64,2.63,4.58
		c0.3,3.02-1.18,5.05-3.55,6.57c-1.87,1.2-3.99,1.75-6.19,1.96C48.18,27.82,47.42,27.83,46.66,27.84z"/>
	<path fill="#364691" d="M72.38,1.38c4.16,0,8.32,0,12.48-0.01c0.34,0,0.44,0.08,0.44,0.43c-0.02,1.26-0.02,2.51,0,3.77
		c0,0.3-0.08,0.4-0.39,0.4c-3.11-0.01-6.21-0.01-9.32-0.01c-0.43,0-0.43,0-0.43,0.44c0,6.86,0,13.72,0,20.58
		c0,0.49,0,0.49-0.49,0.49c-1.54,0-3.07-0.01-4.61,0.01c-0.35,0-0.42-0.11-0.42-0.44c0.01-6.87,0.01-13.74,0.01-20.61
		c0-0.47,0-0.47-0.47-0.47c-3.08,0-6.17,0-9.25,0.01c-0.33,0-0.44-0.07-0.44-0.42c0.02-1.24,0.01-2.49,0.01-3.73
		c0-0.43,0-0.43,0.45-0.43C64.09,1.38,68.23,1.38,72.38,1.38z"/>
	<path fill="#354690" d="M195.66,13.59c0.58,0.27,1.13,0.46,1.59,0.81c3.26,2.46,3.81,7.3-0.21,10.06
		c-1.85,1.27-3.95,1.74-6.16,1.75c-4.31,0.02-8.62,0-12.94,0.02c-0.53,0-0.64-0.2-0.64-0.68c0.03-7.87,0.05-15.74,0.05-23.61
		c0-0.53,0.18-0.64,0.67-0.64c4.18,0.01,8.37,0,12.55,0.01c2,0.01,3.93,0.37,5.68,1.39c2.63,1.53,3.87,4.29,3.14,6.96
		c-0.42,1.51-1.39,2.58-2.71,3.36C196.37,13.22,196.05,13.39,195.66,13.59z M187.03,5.27c-1.26,0-2.53,0.02-3.79-0.01
		c-0.48-0.01-0.69,0.11-0.68,0.64c0.03,1.8,0.03,3.6,0,5.4c-0.01,0.53,0.21,0.65,0.68,0.65c2.23-0.01,4.45,0.03,6.68,0
		c1.24-0.01,2.43-0.29,3.45-1.05c1.77-1.32,1.68-3.71-0.18-4.9c-0.8-0.51-1.69-0.71-2.63-0.72C189.38,5.26,188.2,5.27,187.03,5.27z
		 M187.21,15.64c-1.55,0-2.82,0.01-4.08-0.01c-0.41,0-0.57,0.14-0.57,0.56c0.02,1.84,0.01,3.69,0,5.53c0,0.4,0.11,0.58,0.55,0.57
		c2.42-0.02,4.85,0,7.27-0.04c0.91-0.01,1.79-0.25,2.58-0.71c1.92-1.12,2.08-3.57,0.33-4.95c-0.71-0.56-1.55-0.82-2.44-0.91
		C189.54,15.58,188.23,15.66,187.21,15.64z"/>
	<path fill="#354690" d="M223.9,26.23c-0.69,0-1.37-0.02-2.06,0.01c-0.43,0.02-0.65-0.14-0.82-0.54c-0.63-1.5-1.32-2.98-1.95-4.48
		c-0.18-0.42-0.41-0.58-0.87-0.57c-3.47,0.03-6.95,0.04-10.42,0.03c-0.47,0-0.68,0.19-0.85,0.59c-0.64,1.48-1.32,2.93-1.95,4.41
		c-0.18,0.42-0.42,0.57-0.87,0.56c-1.24-0.03-2.49-0.01-3.73-0.01c-0.79,0-0.8-0.01-0.47-0.72c3.12-6.75,6.24-13.5,9.36-20.25
		c0.53-1.15,1.08-2.29,1.58-3.45c0.18-0.41,0.41-0.58,0.87-0.57c1.07,0.03,2.15,0.03,3.22,0c0.44-0.01,0.68,0.13,0.87,0.55
		c3.5,7.94,7.01,15.88,10.53,23.81c0.25,0.57,0.06,0.65-0.45,0.63C225.23,26.21,224.56,26.23,223.9,26.23z M213.08,7.46
		c-0.05,0.07-0.12,0.13-0.15,0.21c-1.26,2.81-2.5,5.63-3.77,8.44c-0.23,0.51,0.04,0.52,0.41,0.52c2.29-0.01,4.58,0,6.87,0
		c0.71,0,0.71-0.01,0.43-0.66c-1.14-2.61-2.28-5.21-3.42-7.82C213.35,7.91,213.3,7.65,213.08,7.46z"/>
	<path fill="#354690" d="M125.06,13.81c0-3.9,0.01-7.81-0.01-11.71c0-0.62,0.17-0.82,0.79-0.8c1.29,0.04,2.57,0.04,3.86,0
		c0.62-0.02,0.8,0.17,0.8,0.79c-0.02,6.13-0.01,12.27-0.01,18.4c0,0.19,0.02,0.39,0,0.58c-0.09,0.63,0.12,0.84,0.8,0.83
		c4.7-0.03,9.4-0.02,14.09-0.02c0.83,0,0.83,0,0.83,0.84c0,0.97-0.02,1.93,0.01,2.9c0.01,0.43-0.11,0.61-0.58,0.61
		c-6.65-0.01-13.3-0.01-19.95,0c-0.51,0-0.59-0.21-0.59-0.65c0.01-3.92,0.01-7.85,0.01-11.77
		C125.09,13.81,125.08,13.81,125.06,13.81z"/>
	<path fill="#354690" d="M239.3,26.23c-3.26,0-6.52-0.01-9.78,0.01c-0.57,0-0.77-0.14-0.77-0.75c0.01-7.81,0-15.61-0.03-23.42
		c0-0.58,0.15-0.78,0.75-0.76c1.29,0.04,2.58,0.04,3.86,0c0.63-0.02,0.84,0.13,0.83,0.81c-0.03,6.24-0.02,12.48-0.01,18.72
		c0,1.21-0.16,1.05,1.06,1.05c4.63,0.01,9.27,0.01,13.9-0.01c0.58,0,0.79,0.14,0.76,0.74c-0.05,0.98-0.04,1.97,0,2.96
		c0.02,0.51-0.15,0.66-0.66,0.66C245.91,26.22,242.6,26.23,239.3,26.23z"/>
</g>
<g>
</g>
<g>
</g>
<g>
</g>
<g>
</g>
<g>
</g>
<g>
</g>
</svg>
