<?xml version="1.0" encoding="utf-8"?>
<!-- Generator: Adobe Illustrator 27.0.0, SVG Export Plug-In . SVG Version: 6.00 Build 0)  -->
<svg version="1.1" id="Layer_1" xmlns="http://www.w3.org/2000/svg" xmlns:xlink="http://www.w3.org/1999/xlink" x="0px" y="0px"
	 viewBox="0 0 255.12 28.35" enable-background="new 0 0 255.12 28.35" xml:space="preserve">
<g>
	<path fill="#BABBBE" d="M50.65,28.23c-6.22,0-12.44,0-18.66,0.01c-0.32,0-0.43-0.05-0.43-0.41c0.02-2.87,0.01-5.73,0-8.6
		c0-0.31,0.07-0.41,0.4-0.41c12.46,0.01,24.91,0.01,37.37,0c0.32,0,0.4,0.08,0.4,0.4c-0.01,2.87-0.01,5.73,0,8.6
		c0,0.33-0.07,0.42-0.41,0.42C63.09,28.22,56.87,28.23,50.65,28.23z"/>
	<path fill="#BABBBE" d="M50.64,9.5c-6.21,0-12.42,0-18.63,0.01c-0.38,0-0.46-0.1-0.46-0.47c0.02-2.83,0.01-5.65,0-8.48
		c0-0.33,0.05-0.46,0.43-0.46c12.44,0.01,24.89,0.01,37.33,0c0.3,0,0.41,0.05,0.41,0.39c-0.02,2.88-0.01,5.76,0,8.63
		c0,0.31-0.09,0.37-0.39,0.37C63.11,9.5,56.88,9.5,50.64,9.5z"/>
	<path fill="#212121" d="M158.67,13.35c0.75,0.06,1.48,0.15,2.2,0.31c1.78,0.38,3.4,1.08,4.71,2.39c0.99,0.99,1.57,2.17,1.67,3.58
		c0.1,1.49-0.19,2.88-0.94,4.17c-1.03,1.76-2.59,2.82-4.53,3.35c-1.21,0.33-2.44,0.45-3.69,0.49c-4.16,0.12-8.33,0.02-12.49,0.06
		c-0.51,0-0.79-0.5-0.55-0.96c0.06-0.11,0.16-0.11,0.26-0.12c0.38-0.04,0.77-0.07,1.15-0.08c1.06-0.01,1.58-0.51,1.64-1.57
		c0.01-0.13,0-0.26,0-0.39c0-6.94,0-13.88,0-20.82c0-0.26-0.02-0.51-0.07-0.76c-0.14-0.69-0.53-1.05-1.22-1.14
		c-0.46-0.06-0.92-0.09-1.38-0.07c-0.29,0.01-0.42-0.07-0.41-0.39c0.02-0.9-0.07-0.77,0.75-0.77c3.57,0,7.15-0.03,10.72,0.01
		c1.59,0.02,3.18,0.17,4.69,0.73c1.22,0.45,2.32,1.07,3.18,2.09c1.14,1.36,1.39,2.91,1.07,4.59c-0.42,2.21-1.87,3.56-3.84,4.43
		C160.65,12.9,159.67,13.14,158.67,13.35z M154.99,26.22c1.58-0.02,3.16,0.09,4.72-0.23c1.64-0.35,3-1.13,3.85-2.63
		c0.61-1.07,0.77-2.24,0.75-3.46c-0.02-1.8-0.78-3.19-2.24-4.2c-1.53-1.07-3.3-1.34-5.09-1.41c-1.86-0.08-3.73-0.01-5.59-0.03
		c-0.33,0-0.45,0.09-0.45,0.43c0.01,3.42,0.01,6.84,0.01,10.26c0,0.94,0.35,1.27,1.3,1.27C153.16,26.22,154.07,26.22,154.99,26.22z
		 M150.95,7.72C150.95,7.72,150.95,7.72,150.95,7.72c0,1.53,0.01,3.06-0.01,4.59c0,0.38,0.09,0.52,0.49,0.51
		c1.32-0.02,2.65,0.02,3.97-0.02c1.31-0.03,2.61-0.21,3.84-0.69c1.17-0.46,2.15-1.15,2.74-2.3c0.68-1.32,0.81-2.7,0.43-4.11
		c-0.27-0.99-0.73-1.89-1.67-2.45c-1.2-0.72-2.52-1.03-3.89-1.07c-1.64-0.05-3.29-0.01-4.93-0.01c-0.73,0-0.96,0.23-0.96,0.97
		C150.95,4.66,150.95,6.19,150.95,7.72z"/>
	<path fill="#212121" d="M90.51,0.15c2.11-0.04,4.05,0.21,5.93,0.86c0.32,0.11,0.49,0.25,0.55,0.62c0.24,1.51,0.52,3.01,0.79,4.51
		c0.04,0.24,0,0.38-0.27,0.44c-1.26,0.3-0.97,0.37-1.24-0.74c-0.14-0.58-0.31-1.14-0.53-1.69C95.2,2.81,94.21,2,92.77,1.75
		C91.03,1.45,89.3,1.41,87.6,2c-1.08,0.38-2.03,0.97-2.6,2c-0.97,1.76-0.42,4.08,1.21,5.32c1.06,0.81,2.2,1.46,3.38,2.07
		c1.88,0.97,3.81,1.87,5.62,2.97c2.12,1.29,3.56,3.07,3.86,5.59c0.24,2.03-0.24,3.87-1.68,5.41c-1.43,1.52-3.25,2.25-5.25,2.62
		c-1.57,0.29-3.16,0.29-4.75,0.1c-1.6-0.19-3.16-0.54-4.69-1.04c-0.25-0.08-0.38-0.22-0.41-0.48c-0.23-1.62-0.62-3.2-1.08-4.77
		c-0.15-0.51-0.13-0.54,0.36-0.66c0.83-0.21,0.83-0.21,1.09,0.62c0.34,1.09,0.79,2.11,1.52,3.01c0.82,1,1.89,1.58,3.14,1.8
		c2.14,0.37,4.25,0.38,6.24-0.66c2.96-1.55,3.45-4.89,2.04-7.27c-0.68-1.15-1.75-1.9-2.91-2.52c-1.52-0.81-3.06-1.58-4.59-2.37
		c-1.44-0.75-2.84-1.56-4.09-2.6c-1.27-1.05-1.93-2.43-2.12-4.06c-0.19-1.64,0.26-3.08,1.32-4.32c0.84-0.98,1.92-1.61,3.13-2.03
		C87.74,0.26,89.17,0.09,90.51,0.15z"/>
	<path fill="#212121" d="M208.27,15.94c0-3.45,0-6.24,0-9.03c0-0.64-0.03-1.28-0.08-1.92c-0.07-0.92-0.48-1.26-1.58-1.35
		c-0.08-0.01-0.15-0.01-0.23,0c-0.23,0.01-0.43,0-0.43-0.33c0.01-0.29,0.03-0.48,0.39-0.53c1.36-0.18,2.65-0.62,3.85-1.3
		c0.49-0.28,0.71-0.15,0.71,0.42c0,5.27,0,10.54,0,15.81c0,0.17-0.09,0.43,0.06,0.5c0.2,0.09,0.3-0.18,0.43-0.3
		c1.21-1.17,2.39-2.37,3.62-3.52c0.58-0.55,1.14-1.11,1.71-1.66c0.1-0.1,0.19-0.21,0.27-0.32c0.34-0.5,0.19-0.81-0.41-0.89
		c-0.08-0.01-0.15,0-0.23-0.01c-0.48-0.04-0.7-0.41-0.51-0.85c0.06-0.14,0.17-0.14,0.29-0.14c1.67,0,3.34,0,5.01,0
		c0.26,0,0.35,0.13,0.32,0.36c-0.04,0.24,0.16,0.61-0.28,0.63c-0.94,0.04-1.64,0.52-2.28,1.14c-1.24,1.21-2.5,2.41-3.75,3.6
		c-0.18,0.17-0.22,0.29-0.07,0.52c1.89,2.86,3.78,5.73,5.66,8.59c0.42,0.64,0.95,1.15,1.73,1.32c0.24,0.05,0.49,0.05,0.73,0.04
		c0.27-0.01,0.35,0.11,0.36,0.37c0.01,0.63,0.02,0.63-0.63,0.63c-0.67,0-1.34,0-2.01,0c-0.45,0-0.9-0.01-1.35,0
		c-0.23,0.01-0.38-0.07-0.51-0.27c-1.93-2.98-3.86-5.95-5.79-8.92c-0.29-0.45-0.38-0.46-0.71-0.05c-0.44,0.54-0.96,1-1.44,1.5
		c-0.15,0.16-0.23,0.32-0.23,0.54c0.01,1.58,0,3.16,0.01,4.74c0.01,1.07,0.41,1.45,1.48,1.46c0.05,0,0.1,0,0.15,0
		c0.46,0,0.71,0.46,0.48,0.87c-0.07,0.12-0.19,0.13-0.3,0.13c-2.15,0-4.29,0-6.44,0c-0.23,0-0.31-0.09-0.32-0.32
		c-0.03-0.67-0.03-0.68,0.62-0.68c0.04,0,0.08,0,0.12,0c1.12-0.01,1.47-0.39,1.52-1.51C208.35,21.88,208.21,18.58,208.27,15.94z"/>
	<path fill="#212121" d="M202.02,20.44c0,1.59,0,3.19,0,4.78c0,1.08,0.35,1.45,1.42,1.46c0.39,0,0.44,0.18,0.44,0.5
		c0,0.31-0.03,0.51-0.43,0.51c-1.89-0.01-3.78-0.02-5.67,0c-0.4,0-0.4-0.21-0.39-0.49c0.01-0.28-0.04-0.57,0.39-0.52
		c0.08,0.01,0.15,0,0.23,0c0.81-0.01,1.11-0.25,1.26-1.04c0.03-0.15,0.05-0.31,0.05-0.46c0-3.47,0.01-6.94-0.01-10.41
		c0-0.68-0.13-1.35-0.45-1.97c-0.43-0.84-1.16-1.18-2.05-1.31c-1.39-0.2-2.46,0.45-3.45,1.3c-0.69,0.6-1.3,1.28-1.83,2.02
		c-0.11,0.16-0.17,0.31-0.17,0.49c0,3.29,0,6.58,0.01,9.87c0,0.25,0.05,0.51,0.1,0.76c0.08,0.4,0.38,0.67,0.79,0.73
		c0.11,0.02,0.23,0.01,0.35,0.01c0.6,0.01,0.74,0.21,0.6,0.8c-0.06,0.27-0.28,0.19-0.44,0.19c-1.92,0.01-3.83,0-5.75,0
		c-0.05,0-0.1,0-0.15,0c-0.21,0.01-0.29-0.09-0.3-0.3c-0.04-0.68-0.04-0.69,0.64-0.69c0.06,0,0.13,0,0.19,0
		c0.85-0.01,1.29-0.42,1.33-1.26c0.16-3.52,0.05-7.04,0.06-10.56c0-0.49,0-1-0.14-1.49c-0.12-0.44-0.41-0.71-0.86-0.78
		c-0.28-0.05-0.56-0.07-0.84-0.09c-0.18-0.01-0.39,0.02-0.38-0.26c0.01-0.24-0.14-0.56,0.29-0.64c0.57-0.1,1.13-0.22,1.68-0.4
		c0.69-0.23,1.34-0.52,1.94-0.93c0.37-0.26,0.6-0.15,0.64,0.29c0.06,0.74,0.1,1.48,0.15,2.22c0.01,0.12-0.07,0.29,0.09,0.34
		c0.12,0.03,0.17-0.13,0.25-0.21c1.12-1.27,2.39-2.32,4.09-2.67c1.65-0.34,3.26-0.22,4.66,0.85c0.93,0.71,1.29,1.74,1.48,2.84
		c0.14,0.86,0.16,1.73,0.16,2.61C202.01,17.84,202.02,19.14,202.02,20.44C202.02,20.44,202.02,20.44,202.02,20.44z"/>
	<path fill="#212121" d="M182.66,20.1c0,1.74,0,3.25,0,4.77c0,0.3,0.04,0.59,0.1,0.88c0.2,0.9,0.8,1.22,1.67,0.93
		c0.12-0.04,0.33-0.27,0.39,0.03c0.05,0.26,0.37,0.6-0.02,0.78c-1.1,0.51-2.25,0.64-3.39,0.13c-0.54-0.24-0.86-0.72-1.09-1.25
		c-0.18-0.43-0.22-0.45-0.56-0.13c-0.65,0.61-1.38,1.09-2.21,1.36c-1.99,0.65-3.96,0.73-5.84-0.36c-1.41-0.82-2.14-2.44-1.95-4.06
		c0.13-1.06,0.48-1.99,1.2-2.77c0.5-0.54,1.1-0.96,1.74-1.32c1.57-0.88,3.26-1.45,5.01-1.83c0.65-0.14,1.3-0.3,1.95-0.44
		c0.16-0.04,0.31-0.08,0.3-0.28c-0.01-1.04,0.1-2.08-0.18-3.1c-0.37-1.33-1.39-2.07-2.78-2.12c-1.04-0.03-2.01,0.11-2.88,0.76
		c-0.54,0.41-0.82,0.97-1.09,1.56c-0.11,0.23-0.2,0.48-0.33,0.7c-0.28,0.47-0.9,0.72-1.44,0.58c-0.46-0.11-0.75-0.43-0.8-0.88
		c-0.07-0.63,0.13-1.18,0.52-1.64c1.13-1.36,2.65-1.98,4.35-2.22c1.16-0.16,2.33-0.12,3.49,0.07c2.01,0.32,3.66,2.19,3.76,4.21
		C182.69,16.42,182.62,18.37,182.66,20.1z M179.96,21.37c0-1.02,0-2.03,0-3.05c0-0.29-0.08-0.4-0.39-0.32
		c-1.7,0.47-3.37,1.02-4.89,1.94c-1.87,1.13-2.41,2.39-2.04,4.54c0.08,0.44,0.29,0.85,0.62,1.18c0.97,0.97,2.19,1.07,3.45,0.89
		c1.21-0.17,2.15-0.86,3.01-1.68c0.17-0.16,0.24-0.34,0.24-0.58C179.96,23.33,179.96,22.35,179.96,21.37z"/>
	<path fill="#212121" d="M118.32,19.07c0.05,1.56-0.14,3.03-0.66,4.45c-0.91,2.48-2.73,3.89-5.28,4.38
		c-1.76,0.33-3.53,0.29-5.25-0.26c-2.41-0.77-3.84-2.46-4.47-4.88c-0.33-1.26-0.46-2.55-0.44-3.85c0.02-1.35,0.18-2.68,0.62-3.98
		c0.75-2.2,2.23-3.66,4.42-4.38c1.92-0.63,3.88-0.66,5.8-0.06c2.61,0.81,4.17,2.65,4.88,5.26c0.09,0.32,0.17,0.65,0.23,0.97
		C118.3,17.51,118.36,18.32,118.32,19.07z M104.97,19.17c-0.05,0.93,0.03,1.95,0.24,2.96c0.27,1.33,0.7,2.59,1.73,3.58
		c1.53,1.45,4.36,1.65,6.07,0.4c1.29-0.94,1.87-2.28,2.22-3.76c0.33-1.39,0.35-2.8,0.31-4.21c-0.03-1.2-0.2-2.38-0.61-3.51
		c-0.46-1.26-1.16-2.32-2.44-2.88c-0.79-0.35-1.63-0.42-2.49-0.41c-1.99,0.02-3.49,1.04-4.25,2.87
		C105.11,15.76,104.93,17.39,104.97,19.17z"/>
	<path fill="#212121" d="M126.11,18.62c0,2.03,0,4.06,0,6.09c0,1.56,0.4,1.97,1.96,1.98c0.19,0,0.39,0.02,0.58,0
		c0.37-0.04,0.5,0.1,0.48,0.47c-0.03,0.52-0.01,0.52-0.54,0.52c-2.49,0-4.99,0-7.48,0c-0.49,0-0.73-0.39-0.52-0.84
		c0.08-0.16,0.22-0.14,0.36-0.15c0.4-0.02,0.8,0.03,1.19-0.05c0.94-0.19,1.23-0.56,1.28-1.53c0.14-2.92,0.04-5.83,0.06-8.75
		c0.01-1.4-0.01-2.8,0.01-4.2c0-0.33-0.09-0.46-0.44-0.44c-0.68,0.02-1.36,0-2.04,0.01c-0.29,0.01-0.38-0.1-0.38-0.38
		c0.01-0.97-0.07-0.85,0.84-0.85c0.5,0,1,0,1.5,0c0.5,0,0.5,0,0.5-0.52c0-0.81-0.01-1.62,0.01-2.43c0.04-1.68,0.48-3.23,1.6-4.52
		c0.86-0.99,1.98-1.54,3.28-1.7c1.41-0.17,2.77,0.02,3.98,0.83c0.76,0.51,1.42,1.11,1.66,2.04c0.16,0.61-0.02,1.15-0.43,1.37
		c-0.51,0.28-1.08,0.17-1.54-0.29c-0.26-0.26-0.43-0.58-0.6-0.89c-0.19-0.35-0.37-0.7-0.57-1.05c-0.71-1.21-2.33-1.15-3.22-0.35
		c-0.87,0.77-1.18,1.81-1.37,2.9c-0.25,1.4-0.13,2.82-0.16,4.23c-0.01,0.32,0.13,0.39,0.41,0.39c1.3-0.01,2.6,0.01,3.9-0.01
		c0.36,0,0.51,0.08,0.49,0.47c-0.03,0.87,0.09,0.76-0.76,0.77c-1.21,0-2.42,0.01-3.63,0c-0.32,0-0.42,0.11-0.41,0.42
		C126.12,14.3,126.11,16.46,126.11,18.62z"/>
	<path fill="#212121" d="M135.44,18.4c0-2.07-0.01-4.14,0.01-6.21c0-0.37-0.11-0.49-0.48-0.48c-0.67,0.03-1.34,0.01-2,0.01
		c-0.18,0-0.39,0.02-0.37-0.25c0.01-0.24-0.14-0.57,0.29-0.63c0.17-0.02,0.33-0.06,0.49-0.08c1.9-0.32,2.91-1.55,3.37-3.32
		c0.13-0.48,0.2-0.98,0.31-1.47c0.1-0.47,0.48-0.2,0.73-0.25c0.25-0.05,0.29,0.14,0.29,0.34c0,1.34,0.01,2.67-0.01,4.01
		c0,0.34,0.11,0.44,0.44,0.44c1.05-0.02,2.11,0,3.16-0.01c0.32,0,0.43,0.1,0.42,0.42c-0.03,0.95,0.1,0.81-0.83,0.81
		c-0.94,0.01-1.88,0.01-2.81,0c-0.28,0-0.38,0.09-0.38,0.38c0.01,4.11,0,8.22,0.02,12.33c0,0.57,0.11,1.15,0.43,1.66
		c0.28,0.44,0.68,0.64,1.18,0.68c0.87,0.08,1.62-0.2,2.31-0.69c0.23-0.17,0.35-0.17,0.52,0.08c0.39,0.59,0.4,0.62-0.2,1.01
		c-1.43,0.92-2.97,1.17-4.61,0.71c-1.31-0.37-1.96-1.32-2.2-2.61c-0.07-0.37-0.08-0.74-0.08-1.11
		C135.45,22.23,135.44,20.31,135.44,18.4z"/>
</g>
<g>
</g>
<g>
</g>
<g>
</g>
<g>
</g>
<g>
</g>
<g>
</g>
</svg>
