<?xml version="1.0" encoding="utf-8"?>
<!-- Generator: Adobe Illustrator 27.0.0, SVG Export Plug-In . SVG Version: 6.00 Build 0)  -->
<svg version="1.1" id="Layer_1" xmlns="http://www.w3.org/2000/svg" xmlns:xlink="http://www.w3.org/1999/xlink" x="0px" y="0px"
	 viewBox="0 0 141.73 28.35" enable-background="new 0 0 141.73 28.35" xml:space="preserve">
<g>
	<path fill="#212123" d="M70.83,27.84c-11.87,0-23.73,0-35.6,0.01c-0.32,0-0.38-0.08-0.38-0.39c0.01-8.86,0.01-17.72,0-26.58
		c0-0.32,0.08-0.41,0.39-0.38c0.37,0.03,0.74,0.01,1.11,0c0.14,0,0.19,0.04,0.19,0.18c0,0.14-0.02,0.22-0.19,0.22
		c-0.29-0.01-0.59,0-0.88-0.01c-0.16-0.01-0.25,0.03-0.22,0.21c0.01,0.06,0,0.13,0,0.2c0,8.59,0,17.17-0.01,25.76
		c0,0.31,0.06,0.39,0.38,0.39c23.49-0.01,46.98-0.01,70.47,0c0.35,0,0.39-0.11,0.39-0.41c-0.01-8.59-0.01-17.17,0-25.76
		c0-0.31-0.06-0.39-0.38-0.39C86.29,0.9,66.47,0.9,46.65,0.9c-0.16,0-0.4,0.09-0.36-0.24c0.01-0.11,0.04-0.16,0.15-0.15
		c0.09,0,0.17,0,0.26,0c19.93,0,39.86,0,59.79-0.01c0.31,0,0.39,0.06,0.39,0.38c-0.01,8.86-0.01,17.72,0,26.58
		c0,0.31-0.06,0.39-0.38,0.39C94.61,27.84,82.72,27.84,70.83,27.84z"/>
	<path fill="#202022" d="M40.22,0.51c0.93,0.03,1.85-0.06,2.78,0.11c1.86,0.35,2.79,1.9,2.2,3.71c-0.27,0.84-0.8,1.52-1.43,2.12
		c-0.18,0.17-0.17,0.26-0.02,0.44c0.9,1.13,1.77,2.27,2.71,3.36c0.67,0.78,1.44,1.37,2.53,1.36c0.09,0,0.23-0.03,0.22,0.12
		c-0.01,0.09-0.13,0.1-0.22,0.1c-0.72,0-1.45,0.05-2.16-0.06c-0.59-0.09-1.04-0.45-1.42-0.88c-0.89-1.02-1.7-2.11-2.46-3.23
		c-0.33-0.49-0.69-0.73-1.28-0.66c-0.34,0.04-0.7,0-1.05-0.01c-0.17-0.01-0.24,0.06-0.23,0.23c0.02,1.22-0.04,2.45,0.11,3.67
		c0.06,0.49,0.23,0.64,0.71,0.7c0.13,0.01,0.26,0.02,0.39,0.03c0.09,0.01,0.23-0.04,0.22,0.1c0,0.12-0.14,0.12-0.23,0.12
		c-0.73-0.01-1.46-0.09-2.19-0.04c-0.34,0.02-0.68,0.03-1.01,0.04c-0.09,0-0.23,0.03-0.24-0.1c-0.02-0.16,0.13-0.11,0.22-0.11
		c0.52-0.06,0.62-0.15,0.72-0.67c0.08-0.42,0.1-0.85,0.1-1.27c0.01-2.57,0-5.13,0-7.7c0-0.09,0-0.17-0.01-0.26
		c-0.06-0.76-0.24-0.94-1-1c-0.1-0.01-0.27,0.05-0.26-0.1c0.01-0.13,0.17-0.09,0.28-0.1C38.87,0.51,39.55,0.51,40.22,0.51z
		 M40.4,3.65c0,0.77,0.01,1.55,0,2.32c0,0.26,0.1,0.38,0.34,0.44c0.43,0.1,0.86,0.13,1.3,0.15c0.9,0.05,1.51-0.32,1.84-1.16
		c0.38-0.98,0.35-1.97-0.02-2.94c-0.3-0.77-0.89-1.25-1.7-1.43c-0.45-0.09-0.91-0.07-1.37-0.02c-0.28,0.03-0.38,0.13-0.37,0.41
		C40.41,2.17,40.4,2.91,40.4,3.65z"/>
	<path fill="#212123" d="M37.91,13.97c0.05-0.13,0.16-0.13,0.27-0.12c1.4,0.09,2.8-0.04,4.19,0.03c0.53,0.03,1.04,0.14,1.51,0.38
		c1.09,0.56,1.56,1.67,1.3,3c-0.38,1.91-2.11,2.91-3.88,2.77c-0.08-0.01-0.2,0-0.19-0.12c0-0.12,0.12-0.12,0.2-0.12
		c0.45-0.01,0.89-0.03,1.31-0.23c1.16-0.57,1.66-1.58,1.42-2.93c-0.28-1.57-1.48-2.49-3.06-2.34c-0.47,0.04-0.53,0.11-0.53,0.58
		c0,2.7,0,5.4,0.01,8.09c0,0.35,0.02,0.7,0.06,1.05c0.08,0.75,0.25,0.91,1.01,0.95c0.12,0.01,0.35-0.1,0.34,0.1
		c0,0.17-0.24,0.1-0.37,0.1c-1.03-0.05-2.05-0.03-3.08,0c-0.1,0-0.26,0.06-0.27-0.1c-0.01-0.17,0.16-0.1,0.25-0.11
		c0.44-0.04,0.59-0.17,0.67-0.61c0.1-0.5,0.11-1,0.11-1.5c0.01-2.49,0-4.98,0-7.47c0-0.04,0-0.09,0-0.13
		c-0.03-0.94-0.15-1.08-1.08-1.19C38.03,14.04,37.95,14.05,37.91,13.97z"/>
	<path fill="#232324" d="M73.29,18.61c0.03,1.4,0.06,2.73,0.11,4.06c0.02,0.56-0.02,1.12,0.07,1.67c0.09,0.51,0.17,0.58,0.67,0.63
		c0.08,0.01,0.15,0.02,0.23,0.03c0.05,0.01,0.11,0.02,0.1,0.09c-0.01,0.05-0.05,0.07-0.1,0.07c-0.83,0-1.66,0-2.54,0
		c0.09-0.21,0.23-0.18,0.33-0.18c0.33-0.01,0.5-0.18,0.53-0.5c0.02-0.23,0.03-0.46,0.03-0.69c0-2.12,0-4.24,0-6.36
		c0-0.2-0.06-0.48,0.14-0.56c0.18-0.07,0.33,0.17,0.46,0.31c1.95,2.04,3.89,4.08,5.83,6.12c0.09,0.09,0.18,0.19,0.26,0.28
		c0.03-0.03,0.06-0.04,0.06-0.05c-0.03-1.82-0.05-3.65-0.11-5.47c-0.02-0.78-0.07-0.79-0.86-0.9c-0.06-0.01-0.15,0.03-0.16-0.07
		C78.33,17,78.42,17,78.48,17c0.76,0,1.53,0.01,2.29,0.02c0.02,0,0.05,0.03,0.07,0.05c-0.01,0.06-0.04,0.08-0.09,0.09
		c-0.63,0.12-0.68,0.19-0.68,0.83c-0.01,1.96-0.01,3.91-0.02,5.87c0,0.37,0,0.74-0.01,1.11c0,0.08,0.02,0.19-0.07,0.24
		c-0.11,0.06-0.18-0.03-0.26-0.09c-0.54-0.43-1.01-0.93-1.5-1.41c-1.63-1.63-3.23-3.29-4.79-4.98C73.4,18.7,73.37,18.68,73.29,18.61
		z"/>
	<path fill="#232324" d="M89.34,11.68c-0.2,0.14-2.49,0.15-2.68,0.04c0.12-0.12,0.27-0.07,0.4-0.1c0.25-0.04,0.4-0.17,0.42-0.43
		c0.02-0.24,0.04-0.48,0.04-0.72c0-2.13,0-4.26,0.01-6.39c0-0.2-0.07-0.48,0.14-0.56c0.2-0.08,0.33,0.17,0.46,0.3
		c1.96,2.04,3.91,4.09,5.86,6.13c0.08,0.08,0.15,0.18,0.22,0.27c0.03-0.01,0.05-0.03,0.08-0.04c0-0.09,0-0.18,0-0.27
		c-0.04-1.79-0.07-3.58-0.13-5.37c-0.02-0.58-0.12-0.65-0.71-0.71c-0.07-0.01-0.13-0.02-0.2-0.02c-0.05-0.01-0.09-0.02-0.09-0.07
		c-0.01-0.07,0.05-0.09,0.11-0.09c0.78,0.01,1.57,0.01,2.35,0.02c0.01,0,0.02,0.04,0.03,0.05c-0.01,0.07-0.07,0.08-0.12,0.09
		c-0.5,0.01-0.63,0.15-0.64,0.78c-0.01,1.16-0.01,2.31-0.01,3.47c0,1.16-0.01,2.32-0.01,3.47c0,0.12,0.04,0.27-0.07,0.33
		c-0.14,0.07-0.24-0.07-0.33-0.15c-1.25-1.11-2.4-2.32-3.56-3.53c-0.88-0.91-1.74-1.84-2.61-2.76c-0.04-0.04-0.06-0.11-0.08-0.17
		c-0.03,0.02-0.06,0.04-0.09,0.06c0,0.12,0,0.23,0,0.35c0.04,1.65,0.09,3.3,0.13,4.94c0,0.08,0.01,0.15,0.01,0.23
		c0.08,0.65,0.18,0.74,0.84,0.8C89.16,11.65,89.22,11.66,89.34,11.68z"/>
	<path fill="#232324" d="M80.11,11.76c-0.26,0.14-0.54,0.07-0.8,0.08c-0.91,0.05-1.65-0.27-2.22-1c-0.57-0.73-1.16-1.45-1.7-2.2
		c-0.15-0.2-0.3-0.28-0.54-0.27c-0.35,0.02-0.7,0.01-1.05-0.01c-0.17-0.01-0.23,0.05-0.22,0.22c0.01,0.76-0.02,1.53,0.05,2.29
		c0.05,0.61,0.12,0.69,0.74,0.77c0.09,0.01,0.2-0.03,0.29,0.08c-0.05,0.12-0.16,0.12-0.26,0.11c-0.76-0.08-1.53-0.04-2.29-0.01
		c-0.04,0-0.09,0.01-0.13,0c-0.05-0.01-0.12-0.02-0.12-0.09c0-0.07,0.06-0.07,0.11-0.09c0.53-0.15,0.57-0.18,0.6-0.82
		c0.07-1.39,0.05-2.77,0.04-4.16c0-0.7-0.01-1.4-0.02-2.1c-0.01-0.6-0.1-0.68-0.7-0.75c-0.08-0.01-0.21,0.04-0.2-0.09
		c0-0.1,0.12-0.08,0.19-0.07c1.21,0.05,2.42-0.07,3.63,0.06c1.1,0.12,1.86,0.82,1.92,1.8c0.04,0.76-0.29,1.39-0.78,1.95
		c-0.03,0.03-0.06,0.06-0.09,0.09c-0.16,0.17-0.45,0.34-0.44,0.49c0.02,0.21,0.26,0.4,0.41,0.6c0.55,0.68,1.09,1.36,1.68,2.01
		c0.48,0.53,1,0.98,1.77,0.98C80.02,11.64,80.07,11.66,80.11,11.76z M73.57,5.94c0,0.53,0,1.07,0,1.6c0,0.15,0.01,0.28,0.2,0.32
		c0.56,0.13,1.12,0.18,1.68,0.04c0.24-0.06,0.43-0.21,0.57-0.41c0.51-0.7,0.5-2.06-0.02-2.76c-0.45-0.62-1.56-0.93-2.28-0.66
		c-0.15,0.06-0.15,0.17-0.15,0.29C73.57,4.9,73.57,5.42,73.57,5.94z"/>
	<path fill="#232324" d="M89.67,25.08c0.01-0.03,0.02-0.05,0.02-0.05c0.61-0.02,0.69-0.44,0.7-0.92c0.06-2.11,0.04-4.21,0.01-6.32
		c-0.01-0.47-0.14-0.57-0.73-0.63c-0.07-0.01-0.18,0.04-0.18-0.08c0-0.08,0.09-0.09,0.15-0.08c1.28,0.08,2.58-0.12,3.86,0.1
		c1.05,0.18,1.71,0.89,1.73,1.83c0.01,0.72-0.29,1.33-0.76,1.86c-0.01,0.02-0.03,0.03-0.05,0.05c-0.17,0.21-0.52,0.36-0.5,0.59
		c0.02,0.23,0.3,0.43,0.47,0.64c0.54,0.67,1.08,1.35,1.66,1.98c0.46,0.5,0.95,0.94,1.69,0.92c0.06,0,0.12,0.04,0.17,0.07
		c-0.02,0.12-0.1,0.12-0.17,0.12c-0.51,0.01-1.03,0.03-1.54-0.06c-0.45-0.08-0.79-0.35-1.09-0.68c-0.69-0.76-1.3-1.58-1.91-2.41
		c-0.15-0.2-0.31-0.31-0.57-0.29c-0.34,0.02-0.68,0-1.02-0.01c-0.18-0.01-0.25,0.04-0.25,0.24c0.02,0.8-0.03,1.59,0.06,2.39
		c0.05,0.5,0.14,0.6,0.64,0.64c0.07,0.01,0.13,0.01,0.2,0.02c0.07,0.01,0.18-0.01,0.17,0.1c-0.01,0.08-0.1,0.08-0.16,0.07
		c-0.83-0.04-1.66-0.03-2.49,0C89.75,25.16,89.69,25.15,89.67,25.08z M91.39,19.29c0,0.53,0.01,1.07,0,1.6
		c0,0.2,0.07,0.31,0.26,0.34c0.41,0.07,0.82,0.12,1.23,0.09c0.64-0.04,1.01-0.4,1.2-0.98c0.15-0.44,0.16-0.88,0.09-1.33
		c-0.17-1.05-0.73-1.56-1.8-1.65c-0.24-0.02-0.48,0.02-0.72,0.04c-0.21,0.01-0.28,0.1-0.27,0.31C91.4,18.24,91.39,18.76,91.39,19.29
		z"/>
	<path fill="#232324" d="M57.9,25.07c-0.05,0.12-0.15,0.09-0.23,0.09c-0.77-0.04-1.55-0.03-2.32,0c-0.08,0-0.21,0.04-0.23-0.07
		c-0.02-0.14,0.14-0.11,0.22-0.12c0.3-0.02,0.41-0.19,0.45-0.47c0.06-0.42,0.07-0.85,0.07-1.27c0-1.75,0-3.49-0.01-5.24
		c0-0.69-0.08-0.76-0.76-0.84c-0.06-0.01-0.15,0.02-0.15-0.07c0-0.11,0.1-0.09,0.17-0.09c0.36,0,0.72,0.01,1.08,0.02
		c0.79,0.02,1.57-0.08,2.36,0.02c0.59,0.07,1.16,0.19,1.6,0.65c0.56,0.59,0.68,1.43,0.32,2.25c-0.22,0.51-0.58,0.92-0.99,1.29
		c-0.16,0.14-0.16,0.23-0.02,0.39c0.69,0.82,1.33,1.67,2.06,2.46c0.46,0.49,0.94,0.92,1.66,0.9c0.07,0,0.15,0.02,0.18,0.1
		c-0.01,0.02-0.02,0.05-0.04,0.05c-1.02,0.09-2.03,0.16-2.8-0.75c-0.65-0.78-1.28-1.57-1.88-2.39c-0.14-0.2-0.3-0.29-0.55-0.28
		c-0.35,0.01-0.7,0-1.05-0.01c-0.17-0.01-0.23,0.05-0.23,0.22c0.02,0.8-0.03,1.59,0.05,2.39c0.06,0.52,0.14,0.6,0.66,0.66
		C57.67,24.98,57.82,24.94,57.9,25.07z M56.84,19.3c0,0.52,0.01,1.05,0,1.57c0,0.21,0.06,0.33,0.28,0.36
		c0.42,0.06,0.84,0.12,1.27,0.09c0.57-0.04,0.92-0.36,1.12-0.87c0.06-0.16,0.11-0.33,0.13-0.5c0.15-1.33-0.3-2.64-2.08-2.58
		c-0.15,0-0.3,0.04-0.46,0.05c-0.2,0-0.26,0.1-0.26,0.29C56.85,18.23,56.84,18.77,56.84,19.3z"/>
	<path fill="#242425" d="M47.71,25.12c-0.83,0-1.65,0-2.5,0c0.06-0.15,0.15-0.15,0.23-0.15c0.54,0.02,0.84-0.3,1.03-0.76
		c0.34-0.85,0.67-1.7,1-2.55c0.59-1.51,1.17-3.02,1.76-4.53c0.02-0.04,0.03-0.08,0.05-0.12c0.04-0.09,0.07-0.21,0.18-0.21
		c0.11,0,0.16,0.11,0.19,0.2c0.19,0.44,0.37,0.88,0.55,1.32c0.76,1.86,1.48,3.74,2.29,5.59c0.08,0.18,0.17,0.35,0.27,0.52
		c0.2,0.33,0.48,0.52,0.87,0.55c0.1,0.01,0.22-0.03,0.34,0.16c-0.84,0.04-1.62,0.04-2.48-0.04c0.27-0.17,0.24-0.34,0.16-0.54
		c-0.3-0.71-0.59-1.43-0.87-2.15c-0.07-0.17-0.15-0.26-0.35-0.25c-0.74,0.01-1.49,0.01-2.23,0c-0.15,0-0.27,0.01-0.33,0.19
		c-0.22,0.62-0.46,1.22-0.67,1.84C47.02,24.78,47.07,24.84,47.71,25.12z M49.33,21.71c0.32,0,0.63,0,0.95,0
		c0.17,0,0.24-0.03,0.17-0.22c-0.35-0.91-0.68-1.83-1.03-2.74c-0.02-0.07-0.04-0.17-0.13-0.16c-0.07,0-0.09,0.09-0.11,0.14
		c-0.33,0.92-0.65,1.84-0.98,2.76c-0.07,0.19,0.01,0.23,0.18,0.22C48.7,21.71,49.01,21.71,49.33,21.71z"/>
	<path fill="#232324" d="M58.36,3.71c-0.07,0.13-0.17,0.12-0.25,0.13c-0.41,0.05-0.47,0.13-0.32,0.53C58.19,5.41,58.6,6.46,59,7.5
		c0.37,0.94,0.73,1.88,1.13,2.9c0.16-0.36,0.29-0.66,0.41-0.96c0.64-1.54,1.26-3.08,1.83-4.65c0.06-0.15,0.11-0.31,0.15-0.47
		c0.11-0.38,0.06-0.44-0.35-0.5c-0.09-0.01-0.23,0.02-0.22-0.12c0.01-0.11,0.14-0.07,0.22-0.07c0.65,0,1.31,0,1.96,0
		c0.06,0,0.15-0.02,0.16,0.07c0.01,0.09-0.08,0.1-0.14,0.1c-0.61,0-0.83,0.44-1.03,0.91c-0.77,1.78-1.53,3.56-2.29,5.34
		c-0.23,0.53-0.47,1.05-0.72,1.58c-0.06,0.13-0.1,0.31-0.25,0.31c-0.18,0-0.22-0.19-0.28-0.33c-0.57-1.36-1.14-2.73-1.71-4.1
		c-0.4-0.95-0.8-1.91-1.19-2.87c-0.2-0.5-0.49-0.85-1.08-0.82c-0.07,0-0.18,0-0.19-0.09c-0.01-0.11,0.1-0.09,0.17-0.09
		c0.87,0,1.75,0,2.62,0C58.26,3.66,58.3,3.68,58.36,3.71z"/>
	<path fill="#212123" d="M54.68,10.3c0,0.54-0.03,0.99-0.22,1.42c-0.06,0.14-0.24,0.13-0.38,0.13c-0.87-0.02-1.74-0.05-2.62-0.06
		c-0.49-0.01-0.98,0.02-1.47,0.03c-0.09,0-0.23,0.03-0.23-0.1c0-0.12,0.14-0.08,0.21-0.09c0.31-0.02,0.43-0.19,0.47-0.48
		c0.07-0.44,0.08-0.89,0.08-1.34c0.01-1.71-0.01-3.43-0.02-5.14c0-0.12-0.02-0.24-0.02-0.36c-0.02-0.3-0.19-0.44-0.48-0.47
		c-0.14-0.01-0.31,0.05-0.42-0.11c0.08-0.14,0.22-0.07,0.32-0.07c1.21,0,2.42,0,3.64,0.01c0.22,0,0.44,0.01,0.65-0.06
		c0.19-0.06,0.27-0.02,0.22,0.19c-0.09,0.33-0.07,0.67-0.12,1.01c-0.01,0.08-0.02,0.17-0.11,0.17c-0.1,0-0.08-0.1-0.09-0.18
		c-0.06-0.45-0.15-0.54-0.58-0.61c-0.6-0.1-1.2-0.06-1.8-0.07c-0.13,0-0.17,0.05-0.17,0.17c0,0.94,0,1.88,0,2.82
		c0,0.16,0.08,0.18,0.2,0.17c0.58-0.01,1.16-0.01,1.74-0.02c0.27-0.01,0.51-0.08,0.74-0.28c-0.06,0.52-0.03,1.05-0.16,1.58
		c-0.06-0.03-0.07-0.03-0.07-0.04c-0.11-0.7-0.13-0.71-1.03-0.77c-0.39-0.03-0.79-0.01-1.18-0.03c-0.15,0-0.24,0.02-0.24,0.21
		c0.01,0.88-0.01,1.77,0.01,2.65c0.01,0.56,0.18,0.74,0.74,0.8c0.48,0.05,0.96,0.05,1.44-0.02c0.43-0.06,0.69-0.29,0.76-0.72
		C54.5,10.52,54.52,10.43,54.68,10.3z"/>
	<path fill="#242425" d="M87.21,20.25c-0.06,0.59-0.12,1.1-0.17,1.62c-0.16-0.02-0.13-0.11-0.14-0.18
		c-0.07-0.44-0.16-0.56-0.59-0.59c-0.52-0.04-1.05-0.04-1.57-0.07c-0.17-0.01-0.23,0.04-0.23,0.22c0.01,0.9-0.01,1.79,0.01,2.69
		c0.01,0.53,0.21,0.71,0.74,0.76c0.45,0.04,0.89,0.04,1.34-0.01c0.52-0.05,0.73-0.24,0.86-0.74c0.02-0.09,0.01-0.24,0.13-0.22
		c0.13,0.02,0.07,0.17,0.06,0.25c-0.03,0.27-0.09,0.54-0.11,0.81c-0.03,0.3-0.21,0.41-0.49,0.4c-0.88-0.02-1.77-0.02-2.65-0.06
		c-0.47-0.02-0.94,0.03-1.41,0.03c-0.09,0-0.24,0.05-0.25-0.07c-0.02-0.16,0.15-0.12,0.24-0.13c0.27-0.02,0.37-0.17,0.42-0.41
		c0.09-0.49,0.09-0.98,0.09-1.47c0.01-1.69-0.01-3.39-0.02-5.08c0-0.7-0.05-0.74-0.74-0.83c-0.07-0.01-0.19,0-0.17-0.1
		c0.02-0.1,0.14-0.08,0.22-0.08c0.94,0.01,1.88,0.02,2.82,0.03c0.54,0,1.09,0.04,1.63-0.09c0.15-0.04,0.19,0.01,0.16,0.13
		c-0.09,0.35-0.1,0.71-0.13,1.07c-0.01,0.08-0.01,0.2-0.13,0.19c-0.1-0.01-0.07-0.12-0.07-0.19c-0.02-0.36-0.19-0.55-0.56-0.6
		c-0.61-0.09-1.22-0.07-1.83-0.08c-0.14,0-0.16,0.07-0.16,0.19c0,0.93,0,1.86,0,2.79c0,0.17,0.08,0.2,0.22,0.19
		c0.63-0.02,1.27-0.04,1.9-0.06C86.83,20.56,86.99,20.42,87.21,20.25z"/>
	<path fill="#242426" d="M84.89,8.56c-0.2-0.77-0.24-0.8-1.06-0.83c-0.39-0.01-0.79-0.01-1.18-0.02c-0.15-0.01-0.21,0.04-0.21,0.2
		c0.01,0.91-0.01,1.81,0.01,2.72c0.01,0.5,0.16,0.66,0.66,0.73c0.49,0.07,0.98,0.06,1.47-0.01c0.44-0.06,0.72-0.27,0.8-0.73
		c0.01-0.09,0-0.21,0.19-0.26c0.02,0.48-0.02,0.93-0.21,1.36c-0.06,0.14-0.24,0.13-0.38,0.13c-0.87-0.02-1.75-0.05-2.62-0.05
		c-0.49,0-0.98,0.02-1.47,0.03c-0.09,0-0.23,0.03-0.24-0.09c-0.01-0.12,0.13-0.09,0.2-0.09c0.35-0.02,0.47-0.24,0.49-0.54
		c0.03-0.41,0.07-0.83,0.07-1.24c0-1.75,0-3.5-0.01-5.24c0-0.63-0.09-0.71-0.7-0.78c-0.08-0.01-0.22,0-0.21-0.1
		c0.01-0.15,0.15-0.08,0.24-0.08c1.23,0,2.47,0,3.7,0.01c0.22,0,0.44,0,0.65-0.06c0.19-0.05,0.26-0.03,0.21,0.19
		c-0.06,0.33-0.08,0.67-0.12,1.01c-0.01,0.08-0.01,0.17-0.11,0.17c-0.1-0.01-0.09-0.1-0.1-0.18c-0.07-0.47-0.15-0.55-0.64-0.62
		c-0.56-0.09-1.13-0.05-1.7-0.06c-0.14,0-0.19,0.04-0.19,0.18c0,0.93,0,1.86,0,2.79c0,0.14,0.04,0.19,0.19,0.19
		c0.6-0.01,1.2-0.01,1.8-0.03c0.2-0.01,0.41-0.04,0.56-0.22c0.06-0.07,0.17-0.07,0.15,0.05C85.03,7.53,85.06,8,84.97,8.46
		C84.97,8.48,84.94,8.5,84.89,8.56z"/>
	<path fill="#252525" d="M69.7,6.91c-0.07,0.59-0.12,1.1-0.18,1.64c-0.14-0.06-0.15-0.13-0.15-0.21c0.01-0.37-0.19-0.52-0.54-0.57
		c-0.54-0.07-1.09-0.04-1.63-0.06c-0.16-0.01-0.21,0.05-0.21,0.2c0.01,0.92,0,1.83,0.02,2.75c0.01,0.44,0.17,0.62,0.6,0.68
		c0.56,0.08,1.13,0.08,1.69-0.02c0.38-0.07,0.57-0.34,0.64-0.7c0.02-0.09,0-0.25,0.12-0.23c0.14,0.02,0.09,0.18,0.08,0.28
		c-0.03,0.27-0.08,0.54-0.12,0.81c-0.04,0.28-0.2,0.39-0.47,0.38c-0.86-0.03-1.72-0.05-2.58-0.06c-0.49-0.01-0.98,0.01-1.47,0.03
		c-0.11,0-0.22,0.03-0.29-0.08c0.05-0.15,0.18-0.11,0.28-0.12c0.27-0.03,0.38-0.18,0.41-0.43c0.03-0.28,0.07-0.56,0.07-0.85
		c0.01-1.92,0.01-3.84,0-5.76c0-0.62-0.08-0.68-0.69-0.75c-0.08-0.01-0.22,0-0.21-0.1c0-0.14,0.15-0.09,0.23-0.09
		c1.22,0,2.45,0,3.67,0.01c0.24,0,0.48,0.01,0.71-0.06c0.17-0.05,0.25-0.02,0.2,0.18c-0.09,0.33-0.09,0.67-0.11,1.01
		c0,0.08-0.02,0.17-0.11,0.18c-0.12,0.02-0.08-0.1-0.1-0.16c-0.11-0.51-0.17-0.55-0.68-0.63c-0.56-0.09-1.13-0.04-1.7-0.06
		c-0.13,0-0.17,0.05-0.17,0.17c0,0.94,0,1.88,0,2.82c0,0.16,0.08,0.18,0.2,0.17c0.58-0.01,1.16-0.01,1.74-0.02
		C69.2,7.24,69.45,7.14,69.7,6.91z"/>
	<path fill="#232324" d="M101.65,11.69c-0.13,0.15-0.22,0.15-0.32,0.14c-0.77-0.08-1.55-0.04-2.32-0.01c-0.06,0-0.13,0-0.19-0.01
		c-0.04-0.01-0.08-0.03-0.08-0.09c0-0.06,0.04-0.07,0.09-0.07c0.59,0.01,0.63-0.4,0.66-0.84c0.08-1.35,0.03-2.71,0.04-4.06
		c0.01-0.78,0-1.55,0.01-2.33c0-0.2-0.03-0.29-0.26-0.28c-0.55,0.03-1.09,0.02-1.64,0.02c-0.46,0.01-0.84,0.14-1.01,0.62
		c-0.02,0.07-0.05,0.17-0.14,0.15c-0.09-0.02-0.07-0.12-0.05-0.2c0.08-0.35,0.15-0.7,0.23-1.06c0.03-0.13,0.1-0.22,0.25-0.16
		c0.36,0.14,0.75,0.13,1.13,0.13c1.49,0.01,2.97,0,4.46,0c0.26,0,0.53,0,0.78-0.07c0.21-0.05,0.27,0.03,0.26,0.23
		c-0.02,0.36-0.03,0.72-0.04,1.08c0,0.06-0.01,0.14-0.1,0.14c-0.07,0-0.07-0.07-0.08-0.13c-0.03-0.62-0.5-0.69-0.95-0.73
		c-0.54-0.05-1.09-0.02-1.64-0.04c-0.21-0.01-0.19,0.13-0.19,0.26c0,0.93,0,1.86,0,2.79c0.01,1.18,0.02,2.36,0.03,3.54
		c0,0.11,0.01,0.22,0.02,0.33c0.02,0.35,0.2,0.54,0.55,0.56C101.29,11.62,101.45,11.66,101.65,11.69z"/>
	<path fill="#232425" d="M100.41,25.29c-0.54,0.03-1.04-0.06-1.53-0.21c-0.23-0.07-0.37-0.2-0.35-0.47
		c0.03-0.38,0.05-0.76,0.07-1.14c0-0.08,0.01-0.16,0.12-0.16c0.07,0,0.08,0.07,0.08,0.12c-0.03,1.08,0.95,1.43,1.74,1.44
		c0.3,0,0.61-0.03,0.89-0.16c0.82-0.36,1.11-1.33,0.62-2.08c-0.21-0.31-0.49-0.55-0.78-0.78c-0.61-0.48-1.27-0.89-1.81-1.45
		c-0.56-0.59-0.85-1.27-0.62-2.09c0.27-0.95,1-1.31,1.9-1.45c0.69-0.11,1.37,0.05,2.05,0.13c0.09,0.01,0.13,0.07,0.12,0.16
		c-0.06,0.38-0.04,0.76-0.05,1.14c0,0.07-0.02,0.14-0.09,0.16c-0.06,0.01-0.09-0.05-0.1-0.11c-0.06-0.34-0.16-0.66-0.49-0.84
		c-0.41-0.22-0.85-0.26-1.3-0.23c-0.18,0.01-0.37,0.05-0.54,0.11c-0.75,0.25-1.01,1.15-0.53,1.83c0.24,0.34,0.57,0.6,0.91,0.83
		c0.6,0.42,1.22,0.81,1.73,1.34c0.88,0.93,0.96,2.24,0.18,3.11C102.02,25.16,101.25,25.33,100.41,25.29z"/>
	<path fill="#202022" d="M68.44,25.16c-1.02-0.03-1.96-0.03-2.94,0c0.05-0.15,0.11-0.16,0.16-0.17c0.52-0.14,0.59-0.21,0.61-0.75
		c0.08-2.18,0.03-4.37,0.04-6.55c0-0.11,0.01-0.22-0.16-0.21c-0.64,0.03-1.29-0.02-1.93,0.04c-0.38,0.03-0.66,0.21-0.8,0.57
		c-0.03,0.07-0.04,0.21-0.16,0.17c-0.13-0.04-0.06-0.17-0.05-0.25c0.07-0.33,0.15-0.66,0.22-0.99c0.03-0.12,0.05-0.23,0.24-0.16
		c0.39,0.15,0.82,0.14,1.23,0.14c1.43,0.01,2.86,0.01,4.29,0c0.3,0,0.61-0.03,0.91-0.08c0.18-0.03,0.22,0.03,0.21,0.18
		c-0.02,0.38-0.03,0.76-0.05,1.15c0,0.06-0.01,0.12-0.07,0.13c-0.09,0.02-0.11-0.06-0.11-0.12c0-0.54-0.38-0.65-0.8-0.72
		c-0.6-0.09-1.2-0.03-1.8-0.06c-0.2-0.01-0.16,0.12-0.16,0.23c0,0.82-0.01,1.64,0,2.46c0.02,1.36-0.06,2.73,0.05,4.09
		c0.05,0.6,0.1,0.63,0.72,0.71C68.19,24.98,68.32,24.95,68.44,25.16z"/>
</g>
<g>
</g>
<g>
</g>
<g>
</g>
<g>
</g>
<g>
</g>
<g>
</g>
</svg>
