<?xml version="1.0" encoding="utf-8"?>
<!-- Generator: Adobe Illustrator 27.0.0, SVG Export Plug-In . SVG Version: 6.00 Build 0)  -->
<svg version="1.1" id="Layer_1" xmlns="http://www.w3.org/2000/svg" xmlns:xlink="http://www.w3.org/1999/xlink" x="0px" y="0px"
	 viewBox="0 0 170.08 28.35" enable-background="new 0 0 170.08 28.35" xml:space="preserve">
<g>
	<path fill="#4B5A73" d="M35.62,0.53c2.7,0,4.59,0.99,6.04,2.87c0.91,1.18,1.5,2.51,2.04,3.89c0.56,1.44,1.04,2.91,1.74,4.29
		c0.48,0.95,1.08,1.79,1.87,2.51c2.23,2.02,6.79,1.64,8.69-1.21c1.83-2.75,1.6-6.54-0.6-8.99c-1.62-1.8-4.18-2.33-6.68-1.38
		c-1.44,0.55-2.59,1.47-3.46,2.74c-0.18,0.27-0.32,0.3-0.56,0.12c-0.18-0.13-0.39-0.23-0.59-0.35c-0.41-0.24-0.42-0.24-0.13-0.65
		c1.13-1.6,2.58-2.8,4.45-3.4c2.81-0.9,5.44-0.63,7.69,1.45c1.38,1.28,2.2,2.91,2.52,4.75c0.44,2.51-0.07,4.85-1.62,6.89
		c-1.43,1.88-3.41,2.72-5.73,2.83c-2.61,0.12-4.67-0.91-6.22-3c-0.75-1.02-1.29-2.14-1.76-3.31c-0.62-1.54-1.12-3.12-1.85-4.61
		c-0.49-1-1.12-1.89-1.95-2.64c-2.25-2.02-6.82-1.61-8.7,1.28c-1.7,2.62-1.57,6.21,0.39,8.64c1.62,2.01,4.17,2.66,6.77,1.73
		c1.51-0.55,2.72-1.5,3.63-2.82c0.16-0.22,0.27-0.29,0.5-0.12c0.24,0.17,0.49,0.31,0.75,0.44c0.21,0.11,0.26,0.21,0.12,0.43
		c-2.21,3.33-6.14,4.69-9.5,3.7c-2.11-0.62-3.53-2.07-4.49-4c-1.59-3.19-1.11-7.1,1.18-9.67C31.7,1.23,33.69,0.55,35.62,0.53z"/>
	<path fill="#4B5A73" d="M95.26,14.52c0.14-0.13,0.15-0.32,0.21-0.48c1.47-4.31,2.93-8.63,4.39-12.95c0.11-0.34,0.26-0.48,0.61-0.44
		c0.28,0.03,0.56,0.02,0.84,0c0.33-0.02,0.35,0.1,0.26,0.38c-0.53,1.47-1.04,2.94-1.55,4.4c-1.28,3.64-2.57,7.28-3.84,10.93
		c-0.11,0.33-0.25,0.46-0.61,0.45c-1.1-0.02-1.1-0.01-1.46-1.06c-1.33-3.89-2.64-7.79-3.86-11.72c-0.03-0.1-0.07-0.19-0.11-0.31
		c-0.15,0.09-0.15,0.24-0.19,0.36c-1.28,4.11-2.68,8.18-4.05,12.26c-0.12,0.37-0.29,0.48-0.67,0.47c-1.05-0.03-1.05-0.01-1.39-1
		c-1.71-4.9-3.42-9.8-5.13-14.7c-0.16-0.46-0.16-0.46,0.34-0.46c1.16,0,1.16,0,1.53,1.11c1.4,4.15,2.8,8.3,4.2,12.45
		c0.04,0.12,0.05,0.25,0.19,0.37c0.24-0.69,0.46-1.36,0.69-2.03c1.28-3.8,2.55-7.61,3.83-11.41c0.15-0.45,0.54-0.63,0.99-0.47
		c0.18,0.06,0.18,0.23,0.22,0.37c1.14,3.4,2.27,6.79,3.41,10.19c0.33,0.98,0.66,1.97,0.99,2.95C95.13,14.31,95.13,14.44,95.26,14.52
		z"/>
	<path fill="#4B5A73" d="M159.93,16.75c-0.73,0-1.34,0-1.96,0c-0.18,0-0.25-0.16-0.35-0.27c-1.64-1.79-3.28-3.59-4.92-5.39
		c-0.19-0.21-0.37-0.3-0.65-0.29c-1.09,0.02-2.18,0.02-3.27,0c-0.32-0.01-0.41,0.1-0.4,0.41c0.01,1.71,0,3.42,0.01,5.13
		c0,0.34-0.09,0.45-0.43,0.42c-0.26-0.03-0.53-0.02-0.8,0c-0.3,0.03-0.39-0.1-0.36-0.37c0.01-0.05,0-0.1,0-0.15
		c0-5.02,0-10.03,0-15.05c0-0.52,0-0.52,0.51-0.52c2.2,0,4.41-0.01,6.61,0c1.7,0.01,3.19,0.54,4.27,1.93
		c1.64,2.12,1.35,5.37-0.62,6.98c-0.78,0.64-1.68,0.96-2.67,1.09c-0.14,0.02-0.34-0.02-0.39,0.1c-0.06,0.15,0.13,0.25,0.23,0.36
		c1.58,1.72,3.16,3.43,4.74,5.14C159.61,16.4,159.73,16.53,159.93,16.75z M148.38,5.73c0,1.08,0,2.15,0,3.23
		c0,0.22,0.02,0.35,0.3,0.35c1.81-0.01,3.62,0.02,5.43-0.02c1.17-0.03,2.26-0.37,2.9-1.44c0.76-1.26,0.82-2.6,0.14-3.91
		c-0.64-1.25-1.76-1.77-3.13-1.79c-1.76-0.02-3.52,0-5.28-0.01c-0.28,0-0.37,0.07-0.37,0.36C148.39,3.58,148.38,4.66,148.38,5.73z"
		/>
	<path fill="#4B5A73" d="M62.86,8.74c0-2.53,0.01-5.07-0.01-7.6c0-0.35,0.07-0.49,0.45-0.48c1.99,0.04,3.98-0.05,5.97,0.06
		c3.85,0.21,6.84,3.14,7.2,6.98c0.19,2.01-0.14,3.89-1.23,5.6c-1.3,2.04-3.22,3.1-5.59,3.38c-1.65,0.2-3.32,0.05-4.97,0.08
		c-0.48,0.01-0.96-0.02-1.44,0.01c-0.31,0.02-0.38-0.1-0.38-0.39C62.86,13.83,62.86,11.28,62.86,8.74z M64.43,8.74
		c0,2.04,0,4.08-0.01,6.12c0,0.29,0.08,0.4,0.38,0.39c1.3-0.02,2.61,0.01,3.91-0.02c2.66-0.05,4.8-1.51,5.74-3.9
		c0.49-1.26,0.6-2.55,0.39-3.88c-0.44-2.87-2.63-4.95-5.52-5.22c-1.48-0.14-2.96-0.02-4.44-0.07c-0.36-0.01-0.47,0.09-0.47,0.46
		C64.44,4.66,64.43,6.7,64.43,8.74z"/>
	<path fill="#4B5A73" d="M21.11,8.17c1.04,0,2.08,0.01,3.12-0.01c0.28,0,0.37,0.08,0.37,0.37c-0.01,1.84-0.01,3.67,0,5.51
		c0,0.19-0.06,0.33-0.2,0.47c-1.87,1.79-4.08,2.62-6.67,2.43c-1.05-0.08-2.06-0.28-3.02-0.71c-2.03-0.9-3.36-2.45-4.05-4.53
		C10.01,9.77,9.99,7.8,10.6,5.87c0.8-2.54,2.49-4.25,5.04-5c3.15-0.93,6.03-0.4,8.54,1.82c0.25,0.22,0.27,0.37,0.02,0.59
		c-0.23,0.2-0.39,0.56-0.64,0.62c-0.27,0.06-0.46-0.33-0.7-0.5c-2.43-1.74-5.03-2.01-7.72-0.74c-2.55,1.21-3.66,3.98-3.43,6.71
		c0.17,1.95,0.92,3.63,2.52,4.83c2.4,1.8,6.32,1.67,8.61-0.26c0.14-0.12,0.24-0.24,0.23-0.44c-0.01-1.19-0.01-2.38,0-3.57
		c0-0.29-0.13-0.33-0.37-0.33c-1.56,0.01-3.12-0.01-4.67,0.01c-0.34,0-0.46-0.07-0.46-0.44c0.02-0.99,0-0.99,1-0.99
		C19.43,8.17,20.27,8.17,21.11,8.17z"/>
	<path fill="#4B5A73" d="M132.13,8.68c0-2.52,0.01-5.04-0.01-7.56c0-0.37,0.11-0.46,0.47-0.46c3.43,0.01,6.86,0.01,10.3,0
		c0.36,0,0.48,0.09,0.47,0.46c-0.02,1.04,0,1.04-1.06,1.04c-2.72,0-5.45,0.01-8.17-0.01c-0.37,0-0.47,0.11-0.47,0.47
		c0.02,1.62,0.02,3.24,0,4.86c0,0.34,0.08,0.46,0.44,0.45c2.77-0.02,5.55,0,8.32-0.02c0.35,0,0.48,0.07,0.48,0.45
		c-0.02,1,0,1-1.02,1c-2.58,0-5.17,0.01-7.75-0.01c-0.36,0-0.48,0.1-0.47,0.46c0.02,1.66,0.02,3.32,0,4.98
		c0,0.33,0.09,0.43,0.43,0.43c3-0.01,6-0.01,9.01-0.01c0.5,0,0.5,0,0.51,0.48c0,1.03,0,1.03-1.02,1.03c-3.33,0-6.66-0.01-9.99,0.01
		c-0.39,0-0.48-0.11-0.48-0.49C132.13,13.75,132.13,11.21,132.13,8.68z"/>
	<path fill="#4B5A73" d="M116.5,16.76c-0.57,0.2-0.83-0.18-1.05-0.75c-0.38-0.95-0.83-1.87-1.24-2.81c-0.1-0.23-0.23-0.32-0.48-0.32
		c-2.84,0.01-5.67,0.01-8.51,0c-0.24,0-0.36,0.09-0.45,0.3c-0.47,1.09-0.97,2.17-1.43,3.27c-0.1,0.24-0.23,0.33-0.48,0.31
		c-0.25-0.02-0.51,0-0.76,0c-0.64,0-0.61,0.04-0.34-0.55c0.82-1.83,1.64-3.65,2.46-5.47c1.45-3.22,2.9-6.44,4.33-9.67
		c0.13-0.3,0.31-0.36,0.62-0.41c0.88-0.14,1.26,0.24,1.6,1.03c2.13,4.87,4.33,9.71,6.5,14.56c0.23,0.52,0.23,0.52-0.35,0.52
		C116.8,16.76,116.7,16.76,116.5,16.76z M109.52,2.54c-0.14,0.05-0.15,0.17-0.19,0.26c-1.21,2.74-2.43,5.49-3.64,8.23
		c-0.17,0.38-0.16,0.4,0.26,0.4c2.36,0,4.71,0,7.07,0c0.42,0,0.42,0,0.25-0.38c-1.02-2.3-2.03-4.61-3.05-6.91
		C109.99,3.6,109.75,3.07,109.52,2.54z"/>
	<path fill="#4B5A73" d="M123.83,9.46c0,2.29-0.01,4.59,0.01,6.88c0,0.33-0.07,0.47-0.42,0.43c-0.22-0.03-0.46-0.03-0.68,0
		c-0.38,0.05-0.46-0.11-0.46-0.47c0.01-4.48,0.01-8.97,0.01-13.45c0-0.11-0.01-0.23,0-0.34c0.03-0.3-0.08-0.4-0.39-0.39
		c-1.55,0.01-3.09,0.01-4.64,0c-0.77,0-0.67,0.08-0.67-0.67c-0.01-0.74,0-0.74,0.74-0.74c3.9,0,7.8,0,11.71,0
		c0.49,0,0.49,0,0.49,0.5c0,0.91,0,0.91-0.92,0.91c-1.42,0-2.84,0-4.26,0c-0.52,0-0.52,0-0.52,0.51
		C123.83,4.9,123.83,7.18,123.83,9.46z"/>
	<path fill="#8F9EA8" d="M78.26,27.73c-1.01,0-2.02,0-3.03,0c0.23-0.15,0.48-0.11,0.72-0.11c0.2,0,0.26-0.07,0.26-0.27
		c0-1.86-0.01-3.72,0-5.58c0-0.24-0.1-0.31-0.32-0.29c-0.22,0.01-0.44,0-0.66,0c-0.02-0.15,0.05-0.16,0.11-0.15
		c1.18,0.02,2.35-0.06,3.53,0.06c0.32,0.03,0.62,0.11,0.91,0.24c0.61,0.27,0.95,0.74,0.98,1.41c0.03,0.66-0.27,1.15-0.84,1.46
		c-0.71,0.39-1.49,0.49-2.28,0.35c-0.37-0.07-0.43,0.02-0.42,0.36c0.02,0.67,0.02,1.34,0,2.01c-0.01,0.31,0.06,0.45,0.39,0.41
		c0.21-0.03,0.42,0,0.63,0C78.26,27.65,78.26,27.69,78.26,27.73z M77.24,23.04c0,0.42,0,0.83,0,1.25c0,0.12-0.01,0.24,0.13,0.32
		c0.83,0.49,2.15-0.16,2.28-1.12c0.16-1.24-0.41-1.94-1.66-2c-0.15-0.01-0.3,0.01-0.46-0.01c-0.25-0.03-0.3,0.09-0.29,0.31
		C77.25,22.21,77.24,22.62,77.24,23.04z"/>
	<path fill="#8F9EA8" d="M93.59,27.74c-1.02,0-2.05,0-3.13,0c0.14-0.18,0.28-0.12,0.4-0.13c0.13-0.01,0.25-0.01,0.38,0
		c0.21,0.02,0.29-0.05,0.28-0.27c-0.01-1.86-0.01-3.72,0-5.58c0-0.2-0.04-0.31-0.27-0.29c-0.36,0.04-0.74,0.03-1.1,0.08
		c-0.66,0.1-0.94,0.43-1.01,1.09c-0.02,0.19,0.03,0.4-0.12,0.6c-0.15-0.2-0.08-0.41-0.08-0.6c-0.01-0.35,0-0.71-0.01-1.06
		c-0.01-0.19,0.06-0.27,0.26-0.27c1.9,0.01,3.8,0,5.7,0c0.1,0,0.26-0.04,0.26,0.13c0.01,0.58,0,1.17-0.04,1.75
		c-0.2-0.17-0.14-0.39-0.16-0.58c-0.1-0.67-0.37-0.98-1.03-1.07c-0.36-0.05-0.73-0.05-1.1-0.08c-0.2-0.02-0.26,0.06-0.26,0.26
		c0.01,1.87,0.01,3.75,0,5.62c0,0.19,0.05,0.26,0.25,0.26C93.09,27.61,93.35,27.57,93.59,27.74z"/>
	<path fill="#8F9EA8" d="M105.77,27.67c0.22-0.11,0.46-0.06,0.69-0.05c0.26,0.01,0.32-0.09,0.32-0.33c-0.01-1.84-0.01-3.67,0-5.51
		c0-0.23-0.07-0.31-0.31-0.31c-0.23,0.01-0.47,0.04-0.7-0.11c1.01,0,2.02,0,3.03,0c-0.22,0.16-0.45,0.11-0.68,0.11
		c-0.22,0-0.32,0.05-0.32,0.29c0.01,1.85,0.01,3.7,0,5.55c0,0.23,0.08,0.31,0.31,0.3c0.67-0.02,1.34,0.02,2.01-0.06
		c1.04-0.11,1.4-0.48,1.48-1.51c0.01-0.13-0.05-0.37,0.09-0.36c0.2,0.01,0.09,0.24,0.1,0.37c0.01,0.48,0,0.96,0.01,1.44
		c0,0.19-0.05,0.27-0.26,0.27c-1.87-0.01-3.75,0-5.62,0C105.86,27.77,105.8,27.77,105.77,27.67z"/>
	<path fill="#8F9EA8" d="M69.51,21.17c0.19,0.12,0.2,0.29,0.25,0.42c0.71,1.84,1.43,3.67,2.11,5.52c0.14,0.37,0.3,0.58,0.72,0.51
		c0.1-0.02,0.22-0.03,0.37,0.11c-1.05,0-2.02,0-3.04,0c0.11-0.15,0.24-0.11,0.35-0.11c0.13-0.01,0.25-0.01,0.38,0
		c0.21,0.02,0.27-0.05,0.19-0.26c-0.19-0.48-0.37-0.97-0.55-1.45c-0.06-0.17-0.16-0.23-0.34-0.23c-0.56,0.01-1.11,0.01-1.67,0
		c-0.16,0-0.26,0.04-0.31,0.2c-0.14,0.41-0.3,0.81-0.43,1.21c-0.12,0.37-0.03,0.48,0.36,0.52c0.18,0.02,0.37-0.04,0.53,0.12
		c-0.68,0-1.37,0-2.05,0c0.01-0.06,0.01-0.11,0.06-0.1c0.58,0.08,0.79-0.27,0.96-0.74c0.63-1.75,1.28-3.48,1.93-5.23
		C69.37,21.5,69.43,21.35,69.51,21.17z M69.09,22.76c-0.34,0.94-0.63,1.76-0.93,2.59c-0.05,0.15,0.05,0.17,0.16,0.17
		c0.53,0,1.06,0,1.59,0c0.13,0,0.19-0.05,0.14-0.19C69.76,24.52,69.45,23.7,69.09,22.76z"/>
	<path fill="#8F9EA8" d="M103.4,27.73c-1.02,0-2,0-2.98,0c0.2-0.18,0.43-0.11,0.64-0.11c0.23,0,0.33-0.04,0.23-0.3
		c-0.19-0.47-0.37-0.94-0.54-1.42c-0.06-0.18-0.16-0.23-0.34-0.23c-0.56,0.01-1.11,0.01-1.67,0c-0.18,0-0.27,0.07-0.33,0.24
		c-0.13,0.38-0.28,0.76-0.41,1.14c-0.14,0.41-0.04,0.53,0.38,0.55c0.17,0.01,0.35-0.04,0.5,0.11c-0.68,0-1.36,0-2.04,0
		c-0.01-0.09,0.04-0.11,0.09-0.11c0.52,0.07,0.74-0.23,0.89-0.67c0.65-1.79,1.32-3.58,1.98-5.37c0.05-0.13,0.05-0.3,0.21-0.39
		c0.13,0.07,0.14,0.21,0.18,0.32c0.71,1.85,1.43,3.7,2.12,5.56c0.15,0.39,0.31,0.64,0.77,0.54C103.18,27.6,103.3,27.57,103.4,27.73z
		 M99.54,22.84c-0.3,0.85-0.59,1.67-0.89,2.48c-0.08,0.21,0.04,0.2,0.17,0.2c0.51,0,1.01-0.01,1.52,0c0.23,0,0.25-0.07,0.17-0.27
		c-0.23-0.59-0.44-1.18-0.67-1.77C99.76,23.28,99.72,23.05,99.54,22.84z"/>
	<path fill="#8F9EA8" d="M63.89,21.4c0,0.72,0,1.37,0,2.02c-0.18-0.05-0.15-0.19-0.17-0.29c-0.26-1.2-1.38-1.96-2.58-1.75
		c-0.58,0.1-1.01,0.44-1.23,0.96c-0.6,1.46-0.63,2.94,0,4.39c0.48,1.1,1.85,1.35,2.87,0.6c0.5-0.37,0.81-0.86,0.93-1.47
		c0.02-0.12-0.01-0.28,0.17-0.41c0,0.76,0,1.46,0,2.2c-0.46-0.49-0.47-0.5-1.11-0.11c-0.85,0.51-1.71,0.47-2.57,0.06
		c-1.35-0.64-2.08-2.12-1.82-3.67c0.23-1.42,1.41-2.54,2.88-2.72c0.61-0.08,1.14,0.12,1.65,0.43C63.43,21.97,63.5,21.95,63.89,21.4z
		"/>
	<path fill="#8F9EA8" d="M83.54,27.72c0.2-0.15,0.42-0.1,0.63-0.1c0.18,0,0.28-0.04,0.27-0.25c-0.01-1.87-0.01-3.74,0-5.62
		c0-0.23-0.09-0.27-0.3-0.27c-0.2,0-0.42,0.05-0.61-0.11c0.95,0,1.89,0,2.84,0c-0.19,0.17-0.41,0.11-0.61,0.11
		c-0.21,0-0.29,0.06-0.29,0.28c0.01,1.86,0.01,3.72,0,5.58c0,0.21,0.07,0.29,0.28,0.28c0.2-0.01,0.42-0.04,0.62,0.1
		C85.42,27.72,84.48,27.72,83.54,27.72z"/>
</g>
<g>
</g>
<g>
</g>
<g>
</g>
<g>
</g>
<g>
</g>
<g>
</g>
</svg>
