<?xml version="1.0" encoding="utf-8"?>
<!-- Generator: Adobe Illustrator 27.0.0, SVG Export Plug-In . SVG Version: 6.00 Build 0)  -->
<svg version="1.1" id="Layer_1" xmlns="http://www.w3.org/2000/svg" xmlns:xlink="http://www.w3.org/1999/xlink" x="0px" y="0px"
	 viewBox="0 0 58 58" enable-background="new 0 0 58 58" xml:space="preserve">
<g>
	<circle fill="#F37021" cx="29" cy="29" r="28.61"/>
	<g>
		<g>
			<g>
				<path fill="#FFFFFF" d="M19.31,32.22h5.83v1.22h-2.18v5.9H21.5v-5.9h-2.18V32.22z"/>
				<path fill="#FFFFFF" d="M28.94,39.43c-1.9,0-3.33-1.35-3.33-3.66c0-2.32,1.43-3.66,3.33-3.66c1.88,0,3.32,1.34,3.32,3.66
					C32.26,38.09,30.82,39.43,28.94,39.43z M28.94,33.43c-1.1,0-1.83,0.83-1.83,2.35c0,1.52,0.73,2.35,1.83,2.35
					s1.82-0.83,1.82-2.35C30.76,34.25,30.04,33.43,28.94,33.43z"/>
				<path fill="#FFFFFF" d="M33.33,32.22h2.79c1.62,0,2.54,0.99,2.54,2.4c0,1.42-0.94,2.4-2.58,2.4h-1.28v2.32h-1.47V32.22z
					 M35.85,35.82c0.87,0,1.3-0.49,1.3-1.21c0-0.71-0.42-1.19-1.3-1.19h-1.04v2.4H35.85z"/>
			</g>
		</g>
		<g>
			
				<line fill="none" stroke="#FFFFFF" stroke-width="2" stroke-linecap="round" stroke-linejoin="round" stroke-miterlimit="10" x1="28.92" y1="15.55" x2="28.92" y2="28.1"/>
			
				<polyline fill="none" stroke="#FFFFFF" stroke-width="2" stroke-linecap="round" stroke-linejoin="round" stroke-miterlimit="10" points="
				34.26,21.03 28.92,15.55 23.74,21.03 			"/>
		</g>
	</g>
</g>
<g>
</g>
<g>
</g>
<g>
</g>
<g>
</g>
<g>
</g>
<g>
</g>
</svg>
