<?xml version="1.0" encoding="utf-8"?>
<!-- Generator: Adobe Illustrator 27.0.0, SVG Export Plug-In . SVG Version: 6.00 Build 0)  -->
<svg version="1.1" id="Layer_1" xmlns="http://www.w3.org/2000/svg" xmlns:xlink="http://www.w3.org/1999/xlink" x="0px" y="0px"
	 viewBox="0 0 38 38" enable-background="new 0 0 38 38" xml:space="preserve">
<g>
	<g>
		<g>
			<path fill-rule="evenodd" clip-rule="evenodd" fill="#010101" d="M19,37.44L19,37.44C8.82,37.44,0.56,29.18,0.56,19v0
				C0.56,8.82,8.82,0.56,19,0.56h0c10.18,0,18.44,8.25,18.44,18.44v0C37.44,29.18,29.18,37.44,19,37.44z"/>
		</g>
	</g>
	<path fill="#FFFFFF" d="M28.87,29.09h-5.88l-5.38-7.83l-6.74,7.83H9.13l7.71-8.96L9.13,8.91h5.88l5.1,7.42l6.38-7.42h1.74
		l-7.35,8.54h0L28.87,29.09z M23.81,27.84h2.68L14.17,10.22H11.5L23.81,27.84z"/>
</g>
<g>
</g>
<g>
</g>
<g>
</g>
<g>
</g>
<g>
</g>
<g>
</g>
</svg>
