<?xml version="1.0" encoding="utf-8"?>
<!-- Generator: Adobe Illustrator 27.0.0, SVG Export Plug-In . SVG Version: 6.00 Build 0)  -->
<svg version="1.1" id="Layer_1" xmlns="http://www.w3.org/2000/svg" xmlns:xlink="http://www.w3.org/1999/xlink" x="0px" y="0px"
	 viewBox="0 0 38 38" enable-background="new 0 0 38 38" xml:space="preserve">
<g>
	<g>
		<g>
			<path fill-rule="evenodd" clip-rule="evenodd" fill="#D31F34" d="M19,37.44L19,37.44C8.82,37.44,0.56,29.18,0.56,19v0
				C0.56,8.82,8.82,0.56,19,0.56h0c10.18,0,18.44,8.25,18.44,18.44v0C37.44,29.18,29.18,37.44,19,37.44z"/>
		</g>
	</g>
	<g>
		<path fill="#FFFFFF" d="M30.68,14.23c0,0-0.23-1.64-0.95-2.37c-0.91-0.95-1.92-0.95-2.39-1.01C24.01,10.62,19,10.62,19,10.62H19
			c0,0-5,0-8.34,0.24c-0.47,0.06-1.48,0.06-2.39,1.01c-0.71,0.72-0.95,2.37-0.95,2.37s-0.24,1.93-0.24,3.86v1.81
			c0,1.93,0.24,3.86,0.24,3.86s0.23,1.64,0.95,2.37c0.91,0.95,2.1,0.92,2.63,1.02c1.91,0.18,8.1,0.24,8.1,0.24s5.01-0.01,8.34-0.25
			c0.47-0.06,1.48-0.06,2.39-1.01c0.71-0.72,0.95-2.37,0.95-2.37s0.24-1.93,0.24-3.86v-1.81C30.92,16.16,30.68,14.23,30.68,14.23z
			 M16.54,22.09v-6.7l6.44,3.36L16.54,22.09z"/>
	</g>
</g>
<g>
</g>
<g>
</g>
<g>
</g>
<g>
</g>
<g>
</g>
<g>
</g>
</svg>
