<?xml version="1.0" encoding="utf-8"?>
<!-- Generator: Adobe Illustrator 27.0.0, SVG Export Plug-In . SVG Version: 6.00 Build 0)  -->
<!DOCTYPE svg PUBLIC "-//W3C//DTD SVG 1.1//EN" "http://www.w3.org/Graphics/SVG/1.1/DTD/svg11.dtd" [
	<!ENTITY ns_extend "http://ns.adobe.com/Extensibility/1.0/">
	<!ENTITY ns_ai "http://ns.adobe.com/AdobeIllustrator/10.0/">
	<!ENTITY ns_graphs "http://ns.adobe.com/Graphs/1.0/">
	<!ENTITY ns_vars "http://ns.adobe.com/Variables/1.0/">
	<!ENTITY ns_imrep "http://ns.adobe.com/ImageReplacement/1.0/">
	<!ENTITY ns_sfw "http://ns.adobe.com/SaveForWeb/1.0/">
	<!ENTITY ns_custom "http://ns.adobe.com/GenericCustomNamespace/1.0/">
	<!ENTITY ns_adobe_xpath "http://ns.adobe.com/XPath/1.0/">
]>
<svg version="1.1" id="Layer_1" xmlns:x="&ns_extend;" xmlns:i="&ns_ai;" xmlns:graph="&ns_graphs;"
	 xmlns="http://www.w3.org/2000/svg" xmlns:xlink="http://www.w3.org/1999/xlink" x="0px" y="0px" viewBox="0 0 150 160"
	 style="enable-background:new 0 0 150 160;" xml:space="preserve">
<style type="text/css">
	.st0{fill:#51AD51;}
	.st1{fill:#C6E773;}
	.st2{fill:none;stroke:#202B37;stroke-linecap:round;stroke-linejoin:round;stroke-miterlimit:10;}
</style>
<metadata>
	<sfw  xmlns="&ns_sfw;">
		<slices></slices>
		<sliceSourceBounds  bottomLeftOrigin="true" height="141.4" width="114.6" x="-2.8" y="-129.4"></sliceSourceBounds>
	</sfw>
</metadata>
<g>
	<path class="st0" d="M36.3,150.7h77.5c10.3,0,18.6-8.3,18.6-18.6l0,0c0-10.3-8.3-18.6-18.6-18.6H36.3c-10.3,0-18.6,8.3-18.6,18.6
		l0,0C17.7,142.4,26,150.7,36.3,150.7z"/>
	<g>
		<path class="st1" d="M83.8,94h14.9c11.2,0,20.4-9.1,20.4-20.4v-44c0-11.2-9.1-20.4-20.4-20.4H83.8c-11.2,0-20.4,9.1-20.4,20.4v44
			C63.4,84.9,72.5,94,83.8,94z"/>
		<g>
			<line class="st2" x1="91.2" y1="46.1" x2="91.2" y2="113.6"/>
			<line class="st2" x1="108.1" y1="69.4" x2="91.2" y2="80.8"/>
			<line class="st2" x1="81.9" y1="53.6" x2="91.2" y2="61.4"/>
		</g>
	</g>
</g>
</svg>
