<?xml version="1.0" encoding="utf-8"?>
<!-- Generator: Adobe Illustrator 27.0.0, SVG Export Plug-In . SVG Version: 6.00 Build 0)  -->
<!DOCTYPE svg PUBLIC "-//W3C//DTD SVG 1.1//EN" "http://www.w3.org/Graphics/SVG/1.1/DTD/svg11.dtd" [
	<!ENTITY ns_extend "http://ns.adobe.com/Extensibility/1.0/">
	<!ENTITY ns_ai "http://ns.adobe.com/AdobeIllustrator/10.0/">
	<!ENTITY ns_graphs "http://ns.adobe.com/Graphs/1.0/">
	<!ENTITY ns_vars "http://ns.adobe.com/Variables/1.0/">
	<!ENTITY ns_imrep "http://ns.adobe.com/ImageReplacement/1.0/">
	<!ENTITY ns_sfw "http://ns.adobe.com/SaveForWeb/1.0/">
	<!ENTITY ns_custom "http://ns.adobe.com/GenericCustomNamespace/1.0/">
	<!ENTITY ns_adobe_xpath "http://ns.adobe.com/XPath/1.0/">
]>
<svg version="1.1" id="Layer_1" xmlns:x="&ns_extend;" xmlns:i="&ns_ai;" xmlns:graph="&ns_graphs;"
	 xmlns="http://www.w3.org/2000/svg" xmlns:xlink="http://www.w3.org/1999/xlink" x="0px" y="0px" viewBox="0 0 150 160"
	 style="enable-background:new 0 0 150 160;" xml:space="preserve">
<style type="text/css">
	.st0{fill:#C6E773;}
	.st1{fill:none;stroke:#202B37;stroke-linecap:round;stroke-linejoin:round;stroke-miterlimit:10;}
	.st2{fill:#51AD51;}
</style>
<metadata>
	<sfw  xmlns="&ns_sfw;">
		<slices></slices>
		<sliceSourceBounds  bottomLeftOrigin="true" height="149.6" width="148.1" x="-35" y="-116.9"></sliceSourceBounds>
	</sfw>
</metadata>
<g>
	<g>
		<path class="st0" d="M65.6,89.6L65.6,89.6c-15.4,0-28-12.5-28-28V33.1c0-15.4,12.5-28,28-28l0,0c15.4,0,28,12.5,28,28v28.5
			C93.6,77.1,81.1,89.6,65.6,89.6z"/>
		<g>
			<line class="st1" x1="65.6" y1="41.4" x2="65.6" y2="109.3"/>
			<line class="st1" x1="76.1" y1="41.9" x2="65.6" y2="51.2"/>
			<line class="st1" x1="49.8" y1="58.9" x2="65.6" y2="70.1"/>
		</g>
	</g>
	<path class="st2" d="M125.1,154.8H24.9c-13.3,0-24-10.7-24-24l0,0c0-13.3,10.7-24,24-24h100.1c13.3,0,24,10.7,24,24l0,0
		C149.1,144.1,138.3,154.8,125.1,154.8z"/>
</g>
</svg>
