<?xml version="1.0" encoding="utf-8"?>
<!-- Generator: Adobe Illustrator 27.0.0, SVG Export Plug-In . SVG Version: 6.00 Build 0)  -->
<!DOCTYPE svg PUBLIC "-//W3C//DTD SVG 1.1//EN" "http://www.w3.org/Graphics/SVG/1.1/DTD/svg11.dtd" [
	<!ENTITY ns_extend "http://ns.adobe.com/Extensibility/1.0/">
	<!ENTITY ns_ai "http://ns.adobe.com/AdobeIllustrator/10.0/">
	<!ENTITY ns_graphs "http://ns.adobe.com/Graphs/1.0/">
	<!ENTITY ns_vars "http://ns.adobe.com/Variables/1.0/">
	<!ENTITY ns_imrep "http://ns.adobe.com/ImageReplacement/1.0/">
	<!ENTITY ns_sfw "http://ns.adobe.com/SaveForWeb/1.0/">
	<!ENTITY ns_custom "http://ns.adobe.com/GenericCustomNamespace/1.0/">
	<!ENTITY ns_adobe_xpath "http://ns.adobe.com/XPath/1.0/">
]>
<svg version="1.1" id="Layer_1" xmlns:x="&ns_extend;" xmlns:i="&ns_ai;" xmlns:graph="&ns_graphs;"
	 xmlns="http://www.w3.org/2000/svg" xmlns:xlink="http://www.w3.org/1999/xlink" x="0px" y="0px" viewBox="0 0 150 160"
	 style="enable-background:new 0 0 150 160;" xml:space="preserve">
<style type="text/css">
	.st0{fill:#C6E773;}
	.st1{fill:none;stroke:#202B37;stroke-linecap:round;stroke-linejoin:round;stroke-miterlimit:10;}
	.st2{fill:#51AD51;}
</style>
<metadata>
	<sfw  xmlns="&ns_sfw;">
		<slices></slices>
		<sliceSourceBounds  bottomLeftOrigin="true" height="141.4" width="114.6" x="-2.8" y="-129.4"></sliceSourceBounds>
	</sfw>
</metadata>
<g>
	<g>
		<path class="st0" d="M72.7,37.7v15.4h-1.2c-7.2,0-13.1,5.8-13.1,13.1l0,0c0,14.4,11.7,26,26,26l0,0c14.4,0,26-11.7,26-26V37.7
			c0-10.4-8.5-18.9-18.9-18.9l0,0C81.1,18.8,72.7,27.2,72.7,37.7z"/>
		<g>
			<line class="st1" x1="88.7" y1="45.6" x2="88.7" y2="131.4"/>
			<line class="st1" x1="68.6" y1="65.2" x2="88.7" y2="80"/>
		</g>
	</g>
	<path class="st2" d="M107.5,141.2h-65c-8.6,0-15.6-7-15.6-15.6l0,0c0-8.6,7-15.6,15.6-15.6h65c8.6,0,15.6,7,15.6,15.6l0,0
		C123.1,134.2,116.1,141.2,107.5,141.2z"/>
</g>
</svg>
