<?xml version="1.0" encoding="utf-8"?>
<!-- Generator: Adobe Illustrator 27.0.0, SVG Export Plug-In . SVG Version: 6.00 Build 0)  -->
<!DOCTYPE svg PUBLIC "-//W3C//DTD SVG 1.1//EN" "http://www.w3.org/Graphics/SVG/1.1/DTD/svg11.dtd" [
	<!ENTITY ns_extend "http://ns.adobe.com/Extensibility/1.0/">
	<!ENTITY ns_ai "http://ns.adobe.com/AdobeIllustrator/10.0/">
	<!ENTITY ns_graphs "http://ns.adobe.com/Graphs/1.0/">
	<!ENTITY ns_vars "http://ns.adobe.com/Variables/1.0/">
	<!ENTITY ns_imrep "http://ns.adobe.com/ImageReplacement/1.0/">
	<!ENTITY ns_sfw "http://ns.adobe.com/SaveForWeb/1.0/">
	<!ENTITY ns_custom "http://ns.adobe.com/GenericCustomNamespace/1.0/">
	<!ENTITY ns_adobe_xpath "http://ns.adobe.com/XPath/1.0/">
]>
<svg version="1.1" id="Layer_1" xmlns:x="&ns_extend;" xmlns:i="&ns_ai;" xmlns:graph="&ns_graphs;"
	 xmlns="http://www.w3.org/2000/svg" xmlns:xlink="http://www.w3.org/1999/xlink" x="0px" y="0px" viewBox="0 0 150 160"
	 style="enable-background:new 0 0 150 160;" xml:space="preserve">
<style type="text/css">
	.st0{fill:#C6E773;}
	.st1{fill:none;stroke:#202B37;stroke-linecap:round;stroke-linejoin:round;stroke-miterlimit:10;}
	.st2{fill:#51AD51;}
</style>
<metadata>
	<sfw  xmlns="&ns_sfw;">
		<slices></slices>
		<sliceSourceBounds  bottomLeftOrigin="true" height="146" width="142.8" x="-32.3" y="-115.1"></sliceSourceBounds>
	</sfw>
</metadata>
<g>
	<g>
		<path class="st0" d="M83.8,48.1V30.8C83.8,17.7,73.2,7,60,7l0,0C46.9,7,36.2,17.7,36.2,30.8v1.8c-18,0-32.6,14.6-32.6,32.6
			s14.6,32.6,32.6,32.6h47.6c13.7,0,24.8-11.1,24.8-24.8C108.7,59.3,97.6,48.1,83.8,48.1z"/>
		<g>
			<line class="st1" x1="58.3" y1="39.9" x2="58.3" y2="126.7"/>
			<line class="st1" x1="77.8" y1="61.2" x2="58.3" y2="80.9"/>
			<line class="st1" x1="37" y1="52.4" x2="58.3" y2="64.1"/>
		</g>
	</g>
	<path class="st2" d="M126.9,153H45.5c-10.8,0-19.5-8.7-19.5-19.5l0,0c0-10.8,8.7-19.5,19.5-19.5h81.4c10.8,0,19.5,8.7,19.5,19.5
		l0,0C146.4,144.3,137.7,153,126.9,153z"/>
</g>
</svg>
