<?xml version="1.0" encoding="utf-8"?>
<!-- Generator: Adobe Illustrator 27.0.0, SVG Export Plug-In . SVG Version: 6.00 Build 0)  -->
<!DOCTYPE svg PUBLIC "-//W3C//DTD SVG 1.1//EN" "http://www.w3.org/Graphics/SVG/1.1/DTD/svg11.dtd" [
	<!ENTITY ns_extend "http://ns.adobe.com/Extensibility/1.0/">
	<!ENTITY ns_ai "http://ns.adobe.com/AdobeIllustrator/10.0/">
	<!ENTITY ns_graphs "http://ns.adobe.com/Graphs/1.0/">
	<!ENTITY ns_vars "http://ns.adobe.com/Variables/1.0/">
	<!ENTITY ns_imrep "http://ns.adobe.com/ImageReplacement/1.0/">
	<!ENTITY ns_sfw "http://ns.adobe.com/SaveForWeb/1.0/">
	<!ENTITY ns_custom "http://ns.adobe.com/GenericCustomNamespace/1.0/">
	<!ENTITY ns_adobe_xpath "http://ns.adobe.com/XPath/1.0/">
]>
<svg version="1.1" id="Layer_1" xmlns:x="&ns_extend;" xmlns:i="&ns_ai;" xmlns:graph="&ns_graphs;"
	 xmlns="http://www.w3.org/2000/svg" xmlns:xlink="http://www.w3.org/1999/xlink" x="0px" y="0px" viewBox="0 0 240 320"
	 style="enable-background:new 0 0 240 320;" xml:space="preserve">
<style type="text/css">
	.st0{fill:#FFFFFF;}
	.st1{fill:#3AC4AB;}
	.st2{fill:#B4DD2A;}
	.st3{fill:#DAD9D9;}
	.st4{fill:#FDE2D4;}
	.st5{fill:#464A50;}
	.st6{fill:#12B494;}
	.st7{fill:#AFD240;}
	.st8{fill:#B3DE27;}
	.st9{fill:#EB915B;}
</style>
<metadata>
	<sfw  xmlns="&ns_sfw;">
		<slices></slices>
		<sliceSourceBounds  bottomLeftOrigin="true" height="305.8" width="229.3" x="-65.5" y="-200.8"></sliceSourceBounds>
	</sfw>
</metadata>
<g>
	<path class="st0" d="M124.1,45.7c3.6-9.2,8.3-17.6,15.8-24.2c8.9-7.8,18.9-13.1,31.2-13c14.5,0.1,20.6,5.5,22.6,19.6
		c1.4,0,2.4-1,3.6-1.6c12.8-6.8,29.9-2.7,36.7,8.7c4.9,8.3,3.9,17.8-2.9,26.2c-5.9,7.3-13.1,12.8-21.6,16.6
		c-3.9,1.7-3.8,1.7-0.8,4.4c10.5,9.6,18.7,20.8,21.1,35c3.4,20.2-3.6,36.5-20.1,48.6c-4.6,3.4-9.6,6.2-15,8c-8,3.2-16.3,5-24.7,7
		c9.1-0.5,18-1.8,26.9-3.4c13.6,9.8,19.6,27.1,14.7,41.4c-1.2,3.3-3.1,6.2-5.3,8.9c-1.2-1-0.4-2.3-0.4-3.5
		c-0.1-9.9-3.8-18.1-12.2-23.2c-8.4-5.2-17.5-5.6-26.5-0.8c-3.5,0.9-7.1,1.5-10.7,1.2c-0.4-3.2-0.9-6.4-1.3-9.6
		c-0.7-5.2-4.4-8.4-9.6-8.3c-4.6,0.1-9.2,0.3-13.8,0.6c-6,0.3-8.8,3.4-8.1,9.4c1.3,11.2,2.7,22.4,4.1,33.6c0.5,4.1,3.2,7.5,6.8,7.8
		c5.1,0.6,10.2,0,15.9-0.3c-1.6-1.6-2.7-2.7-3.7-3.9c-5.3-6.3-6.2-12.3-3-18.5c2.7-5.3,7.3-7.6,12.8-8.8c3.6-0.6,7.2-1.3,10.8-1.9
		c2.2,0.2,4.1,0.9,6,1.8c10.3,4.8,15.5,18.3,14.7,28.4c-0.1,0.8-0.5,1.5-1,2.1c-1.8,1.8-3.5,3.7-5.3,5.5c-8.9,1-17.8,1-26.5-1.8
		c7.2,4.4,14.9,6.7,23.4,6.4c-2.3,4.8-3.5,10.1-1.6,14.9c1.7,4.3,1,8,0.3,12c-0.3,1.5-0.5,3.1-0.6,4.7c-0.5,9.2,1.1,11.5,10.1,14.2
		c0.4,0.1,0.8,0.4,1.2,0.6c-0.5,3.8-1.4,7.4-2.9,11c-6.2,14.6-30.3,17.6-39.7,6.1c-3.9-6.1-5-12.7-1.1-19c2.1-3.5,2.2-6.9,2-10.6
		c-0.1-2.1-0.3-4.2-0.5-6.4c-0.8-6-1.6-12-4.3-17.5c-0.2,0.6-0.1,1.1,0,1.7c1.4,7.6,2,15.3,1.7,23c-0.1,2.3-0.1,4.7-1.5,6.8
		c-6.1,9-5.4,15,2.5,22.8c-1.2,1.3-2.7,2-4.3,2.6c-8.2,2.7-16.4,2.6-24.2-1.2c-9.4-4.5-12-15.5-5.6-23.8c1.7-2.2,2.3-4.4,2.4-7.1
		c0.4-13.9-1.8-27.4-6.9-40.4c-6.1-15.9-12.5-31.6-20.7-46.6c-1-1.8-2.2-2.9-4-3.8c-16-7.8-32-15.6-46.1-26.7
		c-16.9-13.3-26.9-30.2-26.9-52.3c0-22.2,14.7-41.6,35.8-46.7c4.4-1.1,8.9-1.2,13.3-1.3c2.3,0.3,4.7,0.5,7,0.9
		C78.8,64,87.2,76.5,83,90.7c-1,3.3-2.8,6.1-5.2,8.4c-8.6,5-17.3,3.9-26.5-0.7c2.2,4.2,5.6,5.2,8.6,6.7c-2,6.9-3.3,13.8-2.4,21.1
		c0.8,6.6,2.8,12.7,6.2,18.2c6.7,10.9,17,17.2,29.2,20.7c17.4,5,34.7,4.7,52-0.1c9.7-2.7,18.5-7.2,24.3-15.7
		c9.8-14.4,10.6-32.7,0.1-48.6c3.7-4.3,5.4-9.1,4.7-14.8c-0.5-3.5-1.7-6.7-3.3-9.8c-5.9-11-21.4-19.9-33.4-14.1
		c-0.9,0.4-1.8,0.6-2.2-0.6C133,55.1,128.8,50.2,124.1,45.7z M164.7,65.8c7-12.7,15-24.6,26.5-35C178.3,33.8,164.4,52.6,164.7,65.8z
		"/>
	<path class="st1" d="M83,90.7c4.1-14.2-4.2-26.7-19.3-29c-2.3-0.4-4.6-0.6-7-0.9c4.6-4.6,10.4-6.4,16.6-7.1
		c5.1-0.6,10.3-0.4,15.3,1.4c1.9,0.7,3.1,0.3,4.1-1.6c5.1-10.3,18.3-14.5,29.4-8.5c0.6,0.3,1.3,0.4,1.9,0.6c4.7,4.5,8.9,9.4,11,15.8
		c0.4,1.2,1.2,1,2.2,0.6c12-5.8,27.5,3.1,33.4,14.1c1.7,3.1,2.9,6.3,3.3,9.8c0.7,5.7-1,10.5-4.7,14.8c-10.3,7.4-25.1,4.7-33-5.9
		c0.2-0.6,0.3-1.3,0.6-1.9c3.6-7.9,3.7-15.9,1-24.1c-0.2-0.6-0.1-1.6-1.4-1.5c0,4.1,0,8.2,0,12.4c0,4.3-2,8.2-2.7,12.4
		c-1.3,0.4-1.7,1.7-2.6,2.5c-4.5,4.7-9.9,7.6-16.6,7.5c-9-0.2-15.2-5.2-19.9-12.4c-1.6-2.5-2.9-3.6-5.4-1c-1.2,1.2-3,1.8-4.6,2.8
		C83.7,92,83.2,91.7,83,90.7z M90.5,59.4c-5.9,6-4.9,21.8,1.3,24.9C89.2,76.2,89.6,68,90.5,59.4z"/>
	<path class="st2" d="M181.6,239.4c1.8-1.8,3.5-3.7,5.3-5.5c0.6-0.6,0.9-1.2,1-2.1c0.8-10.1-4.4-23.6-14.7-28.4
		c-1.9-0.9-3.9-1.7-6-1.8c0-0.4,0-0.8,0-1.3c9-4.8,18.1-4.3,26.5,0.8c8.4,5.2,12.1,13.4,12.2,23.2c0,1.2-0.7,2.4,0.4,3.5
		c0.2,0.7,0.2,1.6,0.7,2.2c3,3.7,4.8,7.8,3.7,12.7c-0.3,1.4,0.6,2.6,1.4,3.7c6.5,9.4,8.9,19.6,6.5,30.8c-1,4.7-4.6,7-8.3,9
		c-5.4,3-11.6,3.1-17.5,3.8c-1.5,0.2-3.1,0-4.7,0c-0.4-0.2-0.8-0.5-1.2-0.6c-9-2.7-10.6-4.9-10.1-14.2c0.1-1.6,0.3-3.1,0.6-4.7
		c0.7-4,1.4-7.7-0.3-12c-1.9-4.8-0.7-10.1,1.6-14.9C180.1,242.9,180.8,241.1,181.6,239.4z M190.8,253.3c3-1.8,6-3.4,8.8-5.4
		c2.6-1.8,3.7-0.9,4.4,1.8c0.9,3.2,1.8,6.4,3.6,9.3c0.4,0.6,0.9,1.5,1.8,1.1c0.9-0.4,0.6-1.3,0.4-2.1c-0.9-2.9-1.5-5.9-2.8-8.6
		c-1.2-2.5-1.9-4.3,1.4-5.7C203.3,241.4,194.4,246.4,190.8,253.3c-0.3,0.1-0.5,0.3-0.8,0.4c0.1,0.1,0.2,0.2,0.3,0.3
		C190.5,253.8,190.7,253.6,190.8,253.3z M191.1,231.1c4-2.7,7.9-4,12.2-3.1c0.7,0.1,1.3-0.1,1.4-1c0-0.9-0.6-1.4-1.4-1.7
		C199.4,223.7,193.3,226.4,191.1,231.1z"/>
	<path class="st3" d="M143.9,308.1c-7.9-7.8-8.6-13.8-2.5-22.8c1.4-2.1,1.4-4.4,1.5-6.8c0.3-7.7-0.3-15.4-1.7-23
		c-0.1-0.5-0.1-1.1,0-1.7c2.8,5.5,3.6,11.5,4.3,17.5c0.3,2.1,0.4,4.2,0.5,6.4c0.2,3.7,0.1,7.1-2,10.6c-3.8,6.4-2.8,12.9,1.1,19
		C144.9,307.6,144.4,307.8,143.9,308.1z"/>
	<path class="st3" d="M196.9,177.7c-8.9,1.6-17.9,2.9-26.9,3.4c8.3-2,16.7-3.8,24.7-7C194.2,176,196,176.5,196.9,177.7z"/>
	<path class="st4" d="M83,90.7c0.2,1,0.7,1.3,1.6,0.8c1.5-0.9,3.4-1.5,4.6-2.8c2.5-2.6,3.8-1.5,5.4,1c4.7,7.1,10.8,12.1,19.9,12.4
		c6.7,0.2,12-2.8,16.6-7.5c0.8-0.9,1.3-2.1,2.6-2.5c0.8,1,1.4,2.2,2.6,2.8c7.9,10.6,22.7,13.3,33,5.9c10.5,15.8,9.7,34.1-0.1,48.6
		c-5.8,8.5-14.6,13-24.3,15.7c-17.3,4.8-34.7,5.1-52,0.1c-12.2-3.5-22.4-9.7-29.2-20.7c-3.4-5.5-5.4-11.6-6.2-18.2
		c-0.9-7.3,0.5-14.2,2.4-21.1c2.8,0.5,5.6,0.6,8.3,0.2c4.1-0.6,7.9-1.7,9.5-6.2C80.3,96.8,82,94,83,90.7z M83.7,107.5
		c0,2.4,0.1,4.7,1,6.9c0.4,1,1,2.1,2.3,2.2c1.2,0.1,2.1-0.8,2.6-1.8c3-5.7,3.6-11.6,1.6-17.8c-0.4-1.2-1-2.3-2.5-2.4
		c-1.3-0.1-2,0.9-2.5,1.9C84.3,99.9,83.7,103.6,83.7,107.5z M110.5,138.7c3.9,0.1,6.9-2.2,7-5.2c0.1-3.7-3.2-6.5-7.8-6.6
		c-4.2-0.1-7.2,2.2-7.3,5.3C102.4,135.6,106.1,138.6,110.5,138.7z M102.8,123.8c4,0.2,7.1-1.8,7.3-4.8c0.2-2.8-2.3-5.3-6.1-6.1
		c-4.2-0.8-8.4,1.5-8.7,4.7C95,120.8,98.5,123.6,102.8,123.8z M129.3,112.4c2.8-0.6,4.9-0.6,7-0.5c1.3,0,2.6-0.1,2.6-1.8
		c0-1.4-1.2-1.8-2.3-1.9c-5.3-0.3-10.5,0.5-15.3,2.9c-1,0.5-2.1,1.1-1.8,2.5c0.3,1.2,1.4,1.3,2.4,1.4c4.6,0.6,9,1.6,12.8,4.4
		c1,0.8,2.1,1,2.9-0.2c0.7-1.2,0.1-2.1-0.9-2.9C134.7,114.7,132.3,113.9,129.3,112.4z"/>
	<path class="st5" d="M156.4,203.5c-5.4,1.2-10.1,3.6-12.8,8.8c-3.2,6.2-2.3,12.3,3,18.5c1,1.2,2.1,2.3,3.7,3.9
		c-5.7,0.3-10.8,0.8-15.9,0.3c-3.5-0.4-6.2-3.8-6.8-7.8c-1.4-11.2-2.9-22.4-4.1-33.6c-0.7-6,2.1-9,8.1-9.4c4.6-0.2,9.2-0.5,13.8-0.6
		c5.3-0.1,8.9,3.1,9.6,8.3c0.4,3.2,0.9,6.4,1.3,9.6C156.4,202.2,156.4,202.9,156.4,203.5z M130.3,193.2c1.1-0.2,1.6-0.8,1.6-1.9
		c-0.1-1-0.7-1.7-1.7-1.6c-1.1,0.1-1.9,0.8-1.7,2C128.6,192.7,129.3,193.1,130.3,193.2z"/>
	<path class="st3" d="M164.7,65.8c-0.3-13.2,13.6-31.9,26.5-35C179.7,41.2,171.7,53.1,164.7,65.8z"/>
	<path class="st3" d="M181.6,239.4c-0.8,1.7-1.5,3.4-3.1,4.6c-8.4,0.3-16.2-2-23.4-6.4C163.8,240.4,172.7,240.4,181.6,239.4z"/>
	<path class="st3" d="M77.8,99.1c-1.6,4.5-5.5,5.6-9.5,6.2c-2.8,0.4-5.6,0.3-8.3-0.2c-3-1.5-6.4-2.5-8.6-6.7
		C60.6,103.1,69.2,104.1,77.8,99.1z"/>
	<path class="st3" d="M156.4,203.5c0-0.6,0-1.3,0-1.9c3.6,0.2,7.2-0.4,10.7-1.2c0,0.4,0,0.8,0,1.3
		C163.6,202.2,160,202.9,156.4,203.5z"/>
	<path class="st6" d="M136.3,94.9c-1.2-0.6-1.8-1.8-2.6-2.8c0.7-4.2,2.7-8.1,2.7-12.4c0-4.1,0-8.2,0-12.4c1.4-0.1,1.2,0.9,1.4,1.5
		c2.8,8.1,2.7,16.2-1,24.1C136.6,93.6,136.4,94.3,136.3,94.9z"/>
	<path class="st6" d="M90.5,59.4c-0.9,8.6-1.3,16.8,1.3,24.9C85.6,81.2,84.6,65.5,90.5,59.4z"/>
	<path class="st7" d="M190.8,253.3c3.6-6.9,12.5-11.9,17.8-9.5c-3.2,1.4-2.6,3.3-1.4,5.7c1.3,2.7,1.9,5.7,2.8,8.6
		c0.2,0.7,0.5,1.6-0.4,2.1c-1,0.4-1.4-0.5-1.8-1.1c-1.8-2.9-2.8-6.1-3.6-9.3c-0.7-2.7-1.8-3.6-4.4-1.8
		C196.8,249.9,193.8,251.6,190.8,253.3L190.8,253.3z"/>
	<path class="st8" d="M191.1,231.1c2.2-4.7,8.3-7.4,12.2-5.8c0.8,0.3,1.4,0.8,1.4,1.7c0,0.9-0.6,1.1-1.4,1
		C199,227.1,195.1,228.4,191.1,231.1z"/>
	<path class="st7" d="M190.8,253.3c-0.2,0.2-0.3,0.5-0.5,0.7c-0.1-0.1-0.2-0.2-0.3-0.3C190.3,253.6,190.5,253.4,190.8,253.3
		C190.8,253.3,190.8,253.3,190.8,253.3z"/>
	<path class="st5" d="M83.7,107.5c0-3.8,0.6-7.6,2.5-10.9c0.6-1,1.2-1.9,2.5-1.9c1.5,0.1,2.1,1.2,2.5,2.4c1.9,6.1,1.3,12.1-1.6,17.8
		c-0.5,1-1.4,1.9-2.6,1.8c-1.2-0.1-1.8-1.2-2.3-2.2C83.8,112.2,83.7,109.8,83.7,107.5z"/>
	<path class="st9" d="M110.5,138.7c-4.4-0.1-8.1-3-8.1-6.5c0.1-3.2,3.1-5.4,7.3-5.3c4.6,0.1,8,2.9,7.8,6.6
		C117.5,136.5,114.5,138.7,110.5,138.7z"/>
	<path class="st5" d="M102.8,123.8c-4.3-0.2-7.8-3-7.5-6.1c0.3-3.2,4.6-5.6,8.7-4.7c3.8,0.7,6.3,3.2,6.1,6.1
		C109.9,122,106.9,123.9,102.8,123.8z"/>
	<path class="st5" d="M129.3,112.4c2.9,1.5,5.4,2.3,7.4,3.9c1,0.8,1.6,1.7,0.9,2.9c-0.8,1.3-1.8,1-2.9,0.2
		c-3.8-2.8-8.2-3.8-12.8-4.4c-1-0.1-2.1-0.1-2.4-1.4c-0.3-1.4,0.8-2,1.8-2.5c4.8-2.4,10-3.2,15.3-2.9c1.2,0.1,2.3,0.4,2.3,1.9
		c0,1.7-1.3,1.9-2.6,1.8C134.2,111.9,132.1,111.8,129.3,112.4z"/>
	<path class="st4" d="M130.3,193.2c-0.9-0.1-1.7-0.5-1.8-1.5c-0.2-1.2,0.6-1.9,1.7-2c1-0.1,1.6,0.6,1.7,1.6
		C131.9,192.4,131.3,193,130.3,193.2z"/>
</g>
</svg>
